<?xml version="1.0" encoding="utf-8"?>
<!-- Generator: Adobe Illustrator 16.0.0, SVG Export Plug-In . SVG Version: 6.00 Build 0)  -->
<!DOCTYPE svg PUBLIC "-//W3C//DTD SVG 1.1//EN" "http://www.w3.org/Graphics/SVG/1.1/DTD/svg11.dtd">
<svg version="1.1" id="Capa_1" xmlns="http://www.w3.org/2000/svg" xmlns:xlink="http://www.w3.org/1999/xlink" x="0px" y="0px"
	 width="24px" height="24px" viewBox="0 0 24 24" enable-background="new 0 0 24 24" xml:space="preserve">
<path fill="#030104" d="M12,22.063C6.442,22.063,1.938,17.558,1.938,12S6.442,1.938,12,1.938S22.063,6.442,22.063,12
	S17.558,22.063,12,22.063z M12,23.5c6.351,0,11.5-5.149,11.5-11.5c0-6.352-5.149-11.5-11.5-11.5C5.648,0.5,0.5,5.648,0.5,12
	C0.5,18.351,5.648,23.5,12,23.5z"/>
<path fill="#030104" d="M7.179,7.179c0.28-0.281,0.735-0.282,1.016-0.001c0.001,0,0.001,0,0.001,0.001L12,10.983l3.805-3.805
	c0.28-0.281,0.735-0.281,1.016,0c0.281,0.281,0.281,0.737,0,1.018L13.017,12l3.804,3.805c0.281,0.28,0.281,0.735,0,1.016
	c-0.28,0.281-0.735,0.281-1.016,0L12,13.017L8.196,16.82c-0.281,0.281-0.737,0.281-1.018,0c-0.281-0.28-0.281-0.735,0-1.016
	L10.983,12L7.179,8.196C6.898,7.917,6.897,7.461,7.177,7.18C7.178,7.179,7.178,7.179,7.179,7.179z"/>
</svg>
