<?xml version="1.0" encoding="utf-8"?>
<!-- Generator: Adobe Illustrator 16.0.0, SVG Export Plug-In . SVG Version: 6.00 Build 0)  -->
<!DOCTYPE svg PUBLIC "-//W3C//DTD SVG 1.1//EN" "http://www.w3.org/Graphics/SVG/1.1/DTD/svg11.dtd">
<svg version="1.1" id="Capa_1" xmlns="http://www.w3.org/2000/svg" xmlns:xlink="http://www.w3.org/1999/xlink" x="0px" y="0px"
	 width="24px" height="24px" viewBox="0 0 24 24" enable-background="new 0 0 24 24" xml:space="preserve">
<path fill="#030104" d="M12,22.063C6.442,22.063,1.938,17.558,1.938,12S6.442,1.938,12,1.938S22.063,6.442,22.063,12
	S17.558,22.063,12,22.063z M12,23.5c6.351,0,11.5-5.149,11.5-11.5c0-6.352-5.149-11.5-11.5-11.5C5.648,0.5,0.5,5.648,0.5,12
	C0.5,18.351,5.648,23.5,12,23.5z"/>
<path fill="#030104" d="M12,6.25c0.397,0,0.719,0.321,0.719,0.719v4.313h4.313c0.397,0,0.719,0.321,0.719,0.719
	s-0.321,0.719-0.719,0.719h-4.313v4.313c0,0.397-0.321,0.719-0.719,0.719s-0.719-0.321-0.719-0.719v-4.313H6.969
	c-0.397,0-0.719-0.321-0.719-0.719s0.321-0.719,0.719-0.719h4.313V6.969C11.281,6.571,11.603,6.25,12,6.25z"/>
</svg>
