<?xml version="1.0" encoding="utf-8"?>
<!-- Generator: Adobe Illustrator 16.0.0, SVG Export Plug-In . SVG Version: 6.00 Build 0)  -->
<!DOCTYPE svg PUBLIC "-//W3C//DTD SVG 1.1//EN" "http://www.w3.org/Graphics/SVG/1.1/DTD/svg11.dtd">
<svg version="1.1" id="Capa_1" xmlns="http://www.w3.org/2000/svg" xmlns:xlink="http://www.w3.org/1999/xlink" x="0px" y="0px"
	 width="24px" height="24px" viewBox="0 0 24 24" enable-background="new 0 0 24 24" xml:space="preserve">
<path fill="#030104" d="M12,22.063C6.442,22.063,1.938,17.558,1.938,12S6.442,1.938,12,1.938S22.063,6.442,22.063,12
	S17.558,22.063,12,22.063z M12,23.5c6.351,0,11.5-5.149,11.5-11.5c0-6.352-5.149-11.5-11.5-11.5C5.648,0.5,0.5,5.648,0.5,12
	C0.5,18.351,5.648,23.5,12,23.5z"/>
<path fill="#030104" d="M16.271,7.645c-0.012,0.01-0.021,0.021-0.029,0.032l-4.993,6.361l-3.009-3.01
	c-0.435-0.406-1.118-0.382-1.523,0.053c-0.386,0.414-0.386,1.056,0,1.471l3.804,3.804c0.421,0.421,1.104,0.421,1.525,0
	c0.009-0.009,0.017-0.019,0.026-0.028l5.738-7.172c0.41-0.431,0.395-1.113-0.036-1.524C17.35,7.227,16.684,7.233,16.271,7.645z"/>
</svg>
