<?xml version="1.0" encoding="utf-8"?>
<!-- Generator: Adobe Illustrator 16.0.0, SVG Export Plug-In . SVG Version: 6.00 Build 0)  -->
<!DOCTYPE svg PUBLIC "-//W3C//DTD SVG 1.1//EN" "http://www.w3.org/Graphics/SVG/1.1/DTD/svg11.dtd">
<svg version="1.1" id="Capa_1" xmlns="http://www.w3.org/2000/svg" xmlns:xlink="http://www.w3.org/1999/xlink" x="0px" y="0px"
	 width="24px" height="24px" viewBox="0 0 24 24" enable-background="new 0 0 24 24" xml:space="preserve">
<path fill="#030104" d="M23.27,2.785c0.308,0.31,0.308,0.81,0,1.12l-1.637,1.656l-3.141-3.172l1.638-1.656
	c0.307-0.31,0.804-0.31,1.11,0l2.029,2.051V2.785z M20.522,6.68l-3.141-3.172L6.685,14.315c-0.086,0.089-0.152,0.194-0.19,0.312
	l-1.264,3.829c-0.068,0.208,0.043,0.433,0.249,0.501c0.081,0.026,0.167,0.026,0.248,0l3.791-1.276
	c0.116-0.039,0.221-0.104,0.308-0.191L20.522,6.682V6.68z"/>
<path fill="#030104" d="M0.5,21.12c0,1.313,1.054,2.38,2.355,2.38h17.272c1.3,0,2.354-1.066,2.354-2.38v-9.517
	c0-0.438-0.351-0.793-0.784-0.793c-0.435,0-0.785,0.355-0.785,0.793v9.517c0,0.438-0.352,0.793-0.785,0.793H2.855
	c-0.434,0-0.785-0.354-0.785-0.793V3.673c0-0.438,0.351-0.793,0.785-0.793h10.206c0.435,0,0.785-0.354,0.785-0.793
	s-0.351-0.793-0.785-0.793H2.855C1.554,1.294,0.5,2.359,0.5,3.673V21.12z"/>
</svg>
