<?xml version="1.0" encoding="UTF-8"?>
<svg xmlns="http://www.w3.org/2000/svg" xmlns:xlink="http://www.w3.org/1999/xlink" width="34px" height="34px" viewBox="0 0 34 34" version="1.1">
<g id="surface1">
<path style=" stroke:none;fill-rule:nonzero;fill:rgb(1.176471%,0.392157%,1.568627%);fill-opacity:1;" d="M 24.460938 14.757812 L 32.761719 14.757812 C 33.050781 14.757812 33.292969 15.007812 33.292969 15.316406 C 33.292969 15.449219 33.25 15.578125 33.167969 15.675781 L 29.015625 20.96875 C 28.828125 21.207031 28.496094 21.238281 28.273438 21.042969 C 28.25 21.019531 28.226562 20.996094 28.207031 20.96875 L 24.054688 15.675781 C 23.867188 15.4375 23.898438 15.085938 24.121094 14.886719 C 24.21875 14.804688 24.339844 14.757812 24.460938 14.757812 Z M 1.238281 19.242188 L 9.535156 19.242188 C 9.832031 19.242188 10.066406 18.996094 10.066406 18.683594 C 10.066406 18.550781 10.023438 18.421875 9.945312 18.324219 L 5.792969 13.027344 C 5.605469 12.792969 5.273438 12.757812 5.050781 12.957031 C 5.023438 12.980469 5.003906 13.003906 4.980469 13.027344 L 0.832031 18.324219 C 0.644531 18.5625 0.675781 18.914062 0.898438 19.109375 C 0.996094 19.199219 1.113281 19.242188 1.238281 19.242188 Z M 1.238281 19.242188 "/>
<path style=" stroke:none;fill-rule:nonzero;fill:rgb(1.176471%,0.392157%,1.568627%);fill-opacity:1;" d="M 17 5.78125 C 13.722656 5.78125 10.792969 7.367188 8.855469 9.859375 C 8.5 10.351562 7.835938 10.441406 7.375 10.0625 C 6.914062 9.683594 6.828125 8.980469 7.183594 8.488281 C 7.199219 8.46875 7.214844 8.453125 7.230469 8.433594 C 11.6875 2.699219 19.671875 1.886719 25.070312 6.625 C 27.414062 8.683594 28.984375 11.570312 29.492188 14.753906 L 27.34375 14.753906 C 26.339844 9.53125 22.015625 5.78125 17 5.78125 Z M 6.652344 19.242188 C 7.824219 25.316406 13.40625 29.230469 19.121094 27.988281 C 21.480469 27.472656 23.605469 26.117188 25.144531 24.140625 C 25.5 23.648438 26.164062 23.554688 26.625 23.9375 C 27.085938 24.3125 27.171875 25.019531 26.816406 25.511719 C 26.800781 25.527344 26.785156 25.546875 26.769531 25.566406 C 22.316406 31.300781 14.328125 32.109375 8.933594 27.371094 C 6.585938 25.3125 5.015625 22.429688 4.507812 19.242188 Z M 6.652344 19.242188 "/>
</g>
</svg>
