<?xml version="1.0" encoding="utf-8"?>
<!-- Generator: Adobe Illustrator 16.0.0, SVG Export Plug-In . SVG Version: 6.00 Build 0)  -->
<!DOCTYPE svg PUBLIC "-//W3C//DTD SVG 1.1//EN" "http://www.w3.org/Graphics/SVG/1.1/DTD/svg11.dtd">
<svg version="1.1" id="Capa_1" xmlns="http://www.w3.org/2000/svg" xmlns:xlink="http://www.w3.org/1999/xlink" x="0px" y="0px"
	 width="25px" height="25px" viewBox="0 0 25 25" enable-background="new 0 0 25 25" xml:space="preserve">
<g>
	<g>
		<g>
			<path fill="#135A30" d="M12.501,24.501C5.883,24.501,0.5,19.114,0.5,12.5c0-6.617,5.383-12.001,12.001-12.001
				C19.117,0.499,24.5,5.883,24.5,12.5C24.5,19.114,19.117,24.501,12.501,24.501z M12.501,1.871C6.638,1.871,1.873,6.639,1.873,12.5
				c0,5.86,4.765,10.631,10.628,10.631c5.861,0,10.626-4.771,10.626-10.631C23.127,6.639,18.362,1.871,12.501,1.871z"/>
		</g>
	</g>
	<g>
		<g>
			<g>
				<path fill="#135A30" d="M10.755,19.661c-0.446,0-0.866-0.207-1.137-0.564L5.963,14.27c-0.479-0.63-0.352-1.522,0.276-2
					c0.629-0.476,1.521-0.35,1.997,0.275l2.404,3.177l6.046-9.709c0.421-0.67,1.298-0.873,1.968-0.458
					c0.671,0.415,0.874,1.297,0.455,1.967l-7.143,11.47c-0.249,0.397-0.677,0.649-1.143,0.67
					C10.799,19.661,10.776,19.661,10.755,19.661z"/>
			</g>
		</g>
	</g>
</g>
</svg>
