<?xml version="1.0" encoding="utf-8"?>
<!-- Generator: Adobe Illustrator 16.0.3, SVG Export Plug-In . SVG Version: 6.00 Build 0)  -->
<!DOCTYPE svg PUBLIC "-//W3C//DTD SVG 1.1//EN" "http://www.w3.org/Graphics/SVG/1.1/DTD/svg11.dtd">
<svg version="1.1" id="Capa_1" xmlns="http://www.w3.org/2000/svg" xmlns:xlink="http://www.w3.org/1999/xlink" x="0px" y="0px"
	 width="160px" height="180px" viewBox="-5 -75 160 180" enable-background="new -5 -75 160 180" xml:space="preserve">
<g>
	<g>
		<g>
			<circle cx="62.198" cy="-1.175" r="7.145"/>
			<path d="M120.844,25.123c-3.372-3.176-7.638-5.262-12.302-5.857v-36.318c0-3.871-1.588-7.343-4.069-9.924
				c-2.579-2.58-6.053-4.068-9.927-4.068H36.992c-3.87,0-7.343,1.588-9.922,4.068C24.488-24.396,23-20.924,23-17.053v45.746v4.27
				v9.229c0,3.869,1.588,7.344,4.069,9.922c2.58,2.58,6.053,4.07,9.922,4.07h55.673c3.669,2.977,8.232,4.861,13.297,4.861
				c5.854,0,11.111-2.381,14.882-6.15c3.771-3.771,6.155-9.033,6.155-14.887S124.615,28.895,120.844,25.123z M28.259-17.053
				c0-2.382,0.992-4.565,2.58-6.153c1.587-1.587,3.771-2.58,6.153-2.58h57.554c2.385,0,4.568,0.993,6.155,2.58
				c1.588,1.588,2.58,3.771,2.58,6.153v30.961L88.596-0.679c-0.992-0.992-2.682-1.092-3.771,0l-22.13,22.226L47.71,6.466
				c-0.992-0.992-2.68-1.092-3.771,0L28.259,22.344V-17.053z M36.894,51.021v-0.096c-2.382,0-4.566-0.994-6.153-2.582
				c-1.49-1.588-2.481-3.771-2.481-6.152v-9.229v-3.176l17.665-17.665l14.984,14.983c0.992,0.996,2.679,0.996,3.771,0L86.807,4.878
				l14.49,14.587c-0.298,0.1-0.596,0.199-0.894,0.299c-0.396,0.098-0.792,0.199-1.289,0.396c-0.396,0.102-0.796,0.297-1.188,0.398
				c-0.298,0.098-0.502,0.197-0.796,0.396c-0.396,0.201-0.694,0.295-0.992,0.498c-0.497,0.297-0.996,0.592-1.489,0.891
				c-0.298,0.199-0.494,0.297-0.792,0.496c-0.2,0.1-0.298,0.197-0.499,0.299c-0.893,0.596-1.688,1.287-2.379,2.082
				c-3.771,3.771-6.154,9.029-6.154,14.885c0,1.49,0.196,2.879,0.494,4.367c0.102,0.396,0.199,0.695,0.299,1.09
				c0.297,0.996,0.594,1.984,0.993,2.98v0.098c0.397,0.795,0.793,1.689,1.288,2.381H36.894z M116.979,51.123
				c-2.878,2.877-6.751,4.563-11.117,4.563c-4.169,0-8.037-1.686-10.816-4.367c-0.396-0.393-0.796-0.893-1.188-1.287
				c-0.298-0.297-0.596-0.697-0.895-0.994c-0.398-0.494-0.697-1.09-0.994-1.686c-0.197-0.396-0.395-0.695-0.597-1.092
				c-0.196-0.498-0.393-1.092-0.495-1.686c-0.097-0.4-0.297-0.893-0.396-1.293c-0.2-0.992-0.297-2.084-0.297-3.176
				c0-4.367,1.784-8.236,4.566-11.113c2.878-2.877,6.743-4.564,11.111-4.564c4.366,0,8.239,1.785,11.117,4.564
				s4.563,6.746,4.563,11.113C121.541,44.371,119.755,48.244,116.979,51.123z"/>
			<path d="M114.493,37.33h-6.054v-6.053c0-1.49-1.19-2.682-2.678-2.682c-1.485,0-2.677,1.191-2.677,2.682v6.053h-6.054
				c-1.489,0-2.681,1.188-2.681,2.678c0,1.486,1.191,2.678,2.681,2.678h6.054v6.053c0,1.49,1.191,2.682,2.677,2.682
				c1.487,0,2.678-1.191,2.678-2.682v-6.053h6.054c1.49,0,2.682-1.191,2.682-2.678C117.175,38.518,115.983,37.33,114.493,37.33z"/>
		</g>
	</g>
</g>
</svg>
