<?xml version="1.0" encoding="utf-8"?>
<!-- Generator: Adobe Illustrator 16.0.3, SVG Export Plug-In . SVG Version: 6.00 Build 0)  -->
<!DOCTYPE svg PUBLIC "-//W3C//DTD SVG 1.1//EN" "http://www.w3.org/Graphics/SVG/1.1/DTD/svg11.dtd">
<svg version="1.1" id="Capa_1" xmlns="http://www.w3.org/2000/svg" xmlns:xlink="http://www.w3.org/1999/xlink" x="0px" y="0px"
	 width="24px" height="24px" viewBox="-4 -4 24 24" enable-background="new -4 -4 24 24" xml:space="preserve">
<g>
	<g>
		<path fill="#FFFFFF" d="M-0.321,11.65l-2.904-8.074c-0.041-0.118,0.02-0.249,0.138-0.29c3.818-1.374,8.121-2.65,11.798-4.219
			c0.166-0.105,0.294-0.001,0.365,0.194l4.563,11.761l1.239,3.447c0.04,0.116-0.021,0.247-0.139,0.292l-8.731,3.138l-3.402,1.225
			c-0.118,0.041-0.249-0.022-0.292-0.141L-0.321,11.65z"/>
	</g>
	<g>
		<path fill="#FFFFFF" d="M2.101,8.973L0.65,0.516c-0.023-0.125,0.062-0.24,0.183-0.262l9.989-1.711l2.287-0.377
			c0.125-0.054,0.327,0.01,0.376,0.289l2.473,12.337l0.615,3.605c0.022,0.123-0.063,0.241-0.185,0.264l-9.145,1.567l-3.567,0.613
			c-0.121,0.021-0.241-0.063-0.262-0.185L2.101,8.973z"/>
	</g>
	<g>
		<path fill="#FFFFFF" d="M4.9,6.478v8.133c0,0.131,0.105,0.236,0.235,0.236H8.91h5.589h0.802h3.291c0.13,0,0.236-0.105,0.236-0.236
			v-3.821V0.237v-0.11h-2.403c-0.23,0-0.712,0.033-0.712-0.49l-0.006-2.346H5.136c-0.13,0-0.235,0.107-0.235,0.238v2.029v0.86V6.478
			z"/>
	</g>
	<g>
		<path fill="#B5C4CF" d="M0.893,1.917c-1.354,0.457-2.695,0.909-3.979,1.369c-0.118,0.042-0.179,0.172-0.138,0.29l2.904,8.074
			l2.636,7.333c0.042,0.118,0.172,0.182,0.292,0.141l3.402-1.225l7.755-2.787L0.893,1.917z"/>
	</g>
	<g>
		<path fill="#D7E7EC" d="M4.9-0.443L0.835,0.253C0.712,0.275,0.628,0.393,0.65,0.516l0.241,1.4L2.1,8.972l1.317,7.681
			c0.021,0.122,0.141,0.206,0.262,0.186l3.566-0.614l6.519-1.114l1.533-0.266h-0.802L4.9-0.443z"/>
	</g>
	<g>
		<path fill="#EDF3F4" d="M18.824,10.789V0.237v-0.11V0.092c0-0.066-0.03-0.079-0.133-0.182l-2.594-2.471
			c-0.121-0.117-0.143-0.147-0.215-0.147h-0.176H5.136c-0.13,0-0.235,0.107-0.235,0.238v17.083c0,0.13,0.105,0.236,0.235,0.236
			H18.59c0.13,0,0.234-0.106,0.234-0.236V10.789z"/>
	</g>
	<g>
		<path fill="#B5C4CF" d="M4.9-0.443L3.946-0.281v15.764c0,0.13,0.105,0.234,0.235,0.234h3.776h2.247l3.561-0.608l1.533-0.266
			h-0.802h-0.989H8.91H5.136c-0.13,0-0.235-0.104-0.235-0.234C4.9,9.593,4.9,4.574,4.9-0.443L4.9-0.443z"/>
	</g>
	<g>
		<path fill="#9AAFB7" d="M2.101,8.973L0.893,1.917C0.563,2.03,0.237,2.138-0.087,2.249l0.151,0.876l1.21,7.053l1.316,7.681
			c0.02,0.125,0.139,0.206,0.262,0.186l3.566-0.609l1.691-0.292l5.096-1.834l-0.06-0.095l-2.94,0.503l-2.958,0.506l-3.566,0.612
			c-0.122,0.022-0.241-0.064-0.262-0.186L2.101,8.973z"/>
	</g>
	<g>
		<path fill="#D7E7EC" d="M18.824,10.789V0.237v-0.11c0-0.127-0.04-0.128-0.133-0.219l-2.594-2.471
			c-0.121-0.117-0.143-0.147-0.215-0.147h-0.176h-2.631c3.215,4.303,3.397,12.06,1.013,16.905c-0.109,0.225-0.228,0.442-0.348,0.651
			h0.755h0.802h3.29c0.131,0,0.236-0.105,0.236-0.236V10.789L18.824,10.789z"/>
	</g>
	<g>
		<path fill="#FFFFFF" d="M15.71-0.362c0,0.524,0.483,0.49,0.712,0.49h2.402V0.092c0-0.066-0.03-0.079-0.133-0.182l-2.594-2.471
			c-0.121-0.117-0.143-0.147-0.215-0.147h-0.176L15.71-0.362z"/>
	</g>
	<g>
		<path fill="#B5C4CF" d="M18.691-0.091l-2.594-2.471c-0.121-0.117-0.143-0.147-0.215-0.147h-0.176l0.003,2.346
			c0,0.524,0.483,0.49,0.712,0.49h2.402V0.092C18.824,0.024,18.796,0.013,18.691-0.091z"/>
	</g>
	<path fill="#010202" d="M18.972-0.284c-0.014-0.012-2.684-2.56-2.684-2.56c-0.102-0.098-0.207-0.198-0.404-0.198H5.136
		c-0.313,0-0.57,0.256-0.57,0.57v1.748l-3.79,0.65C0.474-0.021,0.27,0.269,0.323,0.573l0.192,1.121
		C-0.716,2.107-1.98,2.536-3.202,2.973C-3.49,3.078-3.641,3.399-3.538,3.689l2.426,6.751c0.048,0.137,0.177,0.219,0.314,0.219
		c0.036,0,0.077-0.006,0.112-0.019c0.172-0.063,0.262-0.254,0.2-0.427l-2.389-6.65c1.148-0.411,2.339-0.814,3.503-1.207l1.146,6.668
		L3.09,16.71c0.047,0.273,0.286,0.464,0.554,0.464c0.031,0,0.063-0.003,0.095-0.006l3.565-0.613l2.786-0.48l-4.189,1.508
		l-3.305,1.188l-2.566-7.138c-0.062-0.174-0.253-0.263-0.425-0.202c-0.173,0.063-0.264,0.254-0.201,0.426l2.604,7.238
		c0.083,0.228,0.298,0.37,0.527,0.37c0.062,0,0.125-0.012,0.188-0.033l3.402-1.225l7.729-2.778l1.476-0.25h3.264
		c0.313,0,0.569-0.258,0.569-0.569V0.092C19.159-0.106,19.052-0.209,18.972-0.284L18.972-0.284z M18.092-0.204h-1.667h-0.042
		c-0.082,0.001-0.268,0.001-0.314-0.045c-0.01-0.011-0.025-0.048-0.025-0.115L16.04-2.16L18.092-0.204z M18.494,14.514H5.232V8.023
		c0-0.183-0.149-0.333-0.332-0.333c-0.184,0-0.334,0.151-0.334,0.333v6.587c0,0.313,0.256,0.569,0.57,0.569h6.25l-4.198,0.719
		l-3.46,0.594l-1.3-7.575L0.997,0.564l3.569-0.611v6.527c0,0.184,0.151,0.333,0.334,0.333c0.182,0,0.332-0.149,0.332-0.333v-8.854
		h10.144l0.003,2.012c0,0.243,0.073,0.44,0.222,0.584c0.225,0.225,0.544,0.239,0.739,0.239c0.019,0,0.033,0,0.049,0h2.105V14.514
		L18.494,14.514z"/>
	<g>
		<path fill="#010202" d="M16.688,2.461H7.171c-0.185,0-0.333-0.148-0.333-0.332c0-0.183,0.148-0.332,0.333-0.332h9.517
			c0.185,0,0.335,0.148,0.335,0.332C17.023,2.313,16.873,2.461,16.688,2.461z"/>
	</g>
	<g>
		<path fill="#010202" d="M16.688,4.827H7.171c-0.185,0-0.333-0.15-0.333-0.333c0-0.185,0.148-0.333,0.333-0.333h9.517
			c0.185,0,0.335,0.148,0.335,0.333C17.021,4.677,16.873,4.827,16.688,4.827z"/>
	</g>
	<g>
		<path fill="#010202" d="M16.688,7.192H7.171c-0.185,0-0.333-0.149-0.333-0.333c0-0.184,0.148-0.335,0.333-0.335h9.517
			c0.185,0,0.335,0.151,0.335,0.335C17.021,7.042,16.873,7.192,16.688,7.192z"/>
	</g>
	<g>
		<path fill="#010202" d="M16.688,9.56H7.171c-0.185,0-0.333-0.152-0.333-0.334c0-0.185,0.148-0.333,0.333-0.333h9.517
			c0.185,0,0.335,0.148,0.335,0.333C17.021,9.407,16.873,9.56,16.688,9.56z"/>
	</g>
	<g>
		<path fill="#010202" d="M16.688,11.926H7.171c-0.185,0-0.333-0.153-0.333-0.337c0-0.182,0.148-0.331,0.333-0.331h9.517
			c0.185,0,0.335,0.149,0.335,0.331C17.021,11.774,16.873,11.926,16.688,11.926z"/>
	</g>
</g>
</svg>
