<?xml version="1.0" encoding="utf-8"?>
<!-- Generator: Adobe Illustrator 16.0.3, SVG Export Plug-In . SVG Version: 6.00 Build 0)  -->
<!DOCTYPE svg PUBLIC "-//W3C//DTD SVG 1.1//EN" "http://www.w3.org/Graphics/SVG/1.1/DTD/svg11.dtd">
<svg version="1.1" id="Capa_1" xmlns="http://www.w3.org/2000/svg" xmlns:xlink="http://www.w3.org/1999/xlink" x="0px" y="0px"
	 width="16px" height="16px" viewBox="0 0 16 16" enable-background="new 0 0 16 16" xml:space="preserve">
<g>
	<g>
		<path fill="#FFFFFF" d="M2.564,10.428L0.692,5.224c-0.026-0.076,0.013-0.16,0.089-0.187c2.461-0.885,5.234-1.708,7.605-2.719
			C8.492,2.25,8.575,2.317,8.621,2.443l2.941,7.581l0.799,2.221c0.026,0.076-0.013,0.16-0.089,0.188l-5.628,2.023l-2.193,0.789
			c-0.076,0.027-0.16-0.014-0.188-0.09L2.564,10.428z"/>
	</g>
	<g>
		<path fill="#FFFFFF" d="M4.125,8.702L3.19,3.251c-0.015-0.08,0.04-0.155,0.118-0.169l6.438-1.103l1.474-0.243
			c0.081-0.035,0.212,0.006,0.243,0.186l1.593,7.952l0.397,2.324c0.015,0.08-0.04,0.156-0.119,0.17l-5.894,1.01l-2.299,0.395
			c-0.078,0.014-0.155-0.041-0.169-0.119L4.125,8.702z"/>
	</g>
	<g>
		<path fill="#FFFFFF" d="M5.929,7.094v5.242c0,0.084,0.068,0.152,0.152,0.152h2.433h3.602h0.517h2.121
			c0.084,0,0.152-0.068,0.152-0.152V9.873V3.072V3.001h-1.549c-0.148,0-0.459,0.021-0.459-0.316l-0.003-1.512H6.081
			c-0.084,0-0.152,0.069-0.152,0.153v1.308v0.554V7.094z"/>
	</g>
	<g>
		<path fill="#B5C4CF" d="M3.346,4.155C2.473,4.449,1.609,4.74,0.781,5.037C0.705,5.064,0.666,5.148,0.692,5.224l1.872,5.204
			l1.699,4.727c0.027,0.076,0.111,0.117,0.188,0.09l2.193-0.789l4.999-1.797L3.346,4.155z"/>
	</g>
	<g>
		<path fill="#D7E7EC" d="M5.929,2.633l-2.62,0.449C3.23,3.096,3.176,3.172,3.19,3.251l0.155,0.903l0.779,4.547l0.849,4.951
			c0.014,0.078,0.091,0.133,0.169,0.119l2.299-0.395l4.202-0.719l0.988-0.17h-0.517L5.929,2.633z"/>
	</g>
	<g>
		<path fill="#EDF3F4" d="M14.904,9.873V3.072V3.001V2.978c0-0.043-0.019-0.051-0.085-0.117l-1.672-1.593
			c-0.079-0.075-0.093-0.095-0.139-0.095h-0.114H6.081c-0.084,0-0.152,0.069-0.152,0.153v11.011c0,0.084,0.068,0.152,0.152,0.152
			h8.672c0.084,0,0.151-0.068,0.151-0.152V9.873z"/>
	</g>
	<g>
		<path fill="#B5C4CF" d="M5.929,2.633L5.314,2.738v10.16c0,0.084,0.068,0.152,0.152,0.152H7.9h1.447l2.296-0.393l0.988-0.17h-0.517
			h-0.637H8.514H6.081c-0.084,0-0.152-0.068-0.152-0.152C5.929,9.102,5.929,5.867,5.929,2.633L5.929,2.633z"/>
	</g>
	<g>
		<path fill="#9AAFB7" d="M4.125,8.702L3.346,4.155C3.134,4.227,2.924,4.297,2.715,4.368l0.097,0.565l0.78,4.546L4.44,14.43
			c0.013,0.08,0.09,0.133,0.169,0.119l2.298-0.393l1.09-0.188l3.284-1.182l-0.038-0.061l-1.896,0.324l-1.906,0.326l-2.299,0.395
			c-0.078,0.014-0.155-0.041-0.169-0.119L4.125,8.702z"/>
	</g>
	<g>
		<path fill="#D7E7EC" d="M14.904,9.873V3.072V3.001c0-0.082-0.026-0.083-0.085-0.141l-1.672-1.593
			c-0.079-0.075-0.093-0.095-0.139-0.095h-0.114h-1.695c2.072,2.774,2.189,7.774,0.652,10.896c-0.07,0.145-0.146,0.285-0.223,0.42
			h0.486h0.517h2.121c0.084,0,0.152-0.068,0.152-0.152L14.904,9.873L14.904,9.873z"/>
	</g>
	<g>
		<path fill="#FFFFFF" d="M12.897,2.685c0,0.338,0.311,0.316,0.459,0.316h1.548V2.978c0-0.043-0.019-0.051-0.085-0.117l-1.672-1.593
			c-0.079-0.075-0.093-0.095-0.139-0.095h-0.114L12.897,2.685z"/>
	</g>
	<g>
		<path fill="#B5C4CF" d="M14.819,2.86l-1.672-1.593c-0.079-0.075-0.093-0.095-0.139-0.095h-0.114l0.003,1.512
			c0,0.338,0.311,0.316,0.459,0.316h1.548V2.978C14.904,2.934,14.886,2.927,14.819,2.86z"/>
	</g>
	<path fill="#010202" d="M14.999,2.736C14.99,2.728,13.27,1.086,13.27,1.086c-0.066-0.063-0.134-0.128-0.261-0.128H6.081
		c-0.202,0-0.367,0.165-0.367,0.367v1.127L3.271,2.871C3.076,2.905,2.945,3.092,2.979,3.288l0.124,0.723
		C2.309,4.277,1.494,4.553,0.707,4.835C0.521,4.903,0.424,5.11,0.49,5.297l1.564,4.351c0.031,0.088,0.114,0.141,0.203,0.141
		c0.023,0,0.049-0.004,0.072-0.012c0.111-0.041,0.169-0.164,0.129-0.275L0.918,5.216c0.74-0.265,1.508-0.525,2.258-0.778
		l0.738,4.299l0.848,4.952c0.031,0.176,0.185,0.299,0.357,0.299c0.02,0,0.041-0.002,0.061-0.004l2.298-0.395l1.795-0.309l-2.7,0.971
		l-2.13,0.766l-1.654-4.6c-0.04-0.113-0.163-0.17-0.274-0.131c-0.111,0.041-0.17,0.164-0.129,0.275l1.678,4.666
		c0.053,0.146,0.192,0.238,0.34,0.238c0.04,0,0.081-0.008,0.121-0.021l2.193-0.789l4.981-1.791l0.952-0.162h2.103
		c0.202,0,0.367-0.166,0.367-0.367V2.978C15.12,2.85,15.051,2.784,14.999,2.736L14.999,2.736z M14.431,2.787h-1.074H13.33
		c-0.052,0.001-0.172,0.001-0.202-0.029c-0.007-0.007-0.016-0.031-0.016-0.074L13.11,1.527L14.431,2.787z M14.691,12.273H6.143V8.09
		c0-0.118-0.096-0.215-0.214-0.215S5.714,7.972,5.714,8.09v4.246c0,0.201,0.165,0.367,0.367,0.367h4.028l-2.705,0.463l-2.23,0.383
		L4.336,8.666L3.413,3.282l2.301-0.394v4.207c0,0.119,0.097,0.215,0.215,0.215s0.214-0.096,0.214-0.215V1.388h6.538l0.003,1.297
		c0,0.157,0.047,0.284,0.142,0.377c0.145,0.145,0.351,0.154,0.477,0.154c0.011,0,0.021,0,0.031,0h1.358V12.273z"/>
	<g>
		<path fill="#010202" d="M13.527,4.505H7.393c-0.119,0-0.215-0.096-0.215-0.214s0.096-0.214,0.215-0.214h6.135
			c0.119,0,0.215,0.096,0.215,0.214S13.646,4.505,13.527,4.505z"/>
	</g>
	<g>
		<path fill="#010202" d="M13.527,6.03H7.393c-0.119,0-0.215-0.097-0.215-0.215c0-0.119,0.096-0.215,0.215-0.215h6.135
			c0.119,0,0.215,0.096,0.215,0.215C13.742,5.933,13.646,6.03,13.527,6.03z"/>
	</g>
	<g>
		<path fill="#010202" d="M13.527,7.554H7.393c-0.119,0-0.215-0.096-0.215-0.214c0-0.119,0.096-0.216,0.215-0.216h6.135
			c0.119,0,0.215,0.097,0.215,0.216C13.742,7.458,13.646,7.554,13.527,7.554z"/>
	</g>
	<g>
		<path fill="#010202" d="M13.527,9.08H7.393c-0.119,0-0.215-0.097-0.215-0.215c0-0.119,0.096-0.215,0.215-0.215h6.135
			c0.119,0,0.215,0.096,0.215,0.215C13.742,8.983,13.646,9.08,13.527,9.08z"/>
	</g>
	<g>
		<path fill="#010202" d="M13.527,10.605H7.393c-0.119,0-0.215-0.098-0.215-0.217c0-0.117,0.096-0.213,0.215-0.213h6.135
			c0.119,0,0.215,0.096,0.215,0.213C13.742,10.508,13.646,10.605,13.527,10.605z"/>
	</g>
</g>
</svg>
