<?xml version="1.0" encoding="utf-8"?>
<!-- Generator: Adobe Illustrator 16.0.0, SVG Export Plug-In . SVG Version: 6.00 Build 0)  -->
<!DOCTYPE svg PUBLIC "-//W3C//DTD SVG 1.1//EN" "http://www.w3.org/Graphics/SVG/1.1/DTD/svg11.dtd">
<svg version="1.1" id="Capa_1" xmlns="http://www.w3.org/2000/svg" xmlns:xlink="http://www.w3.org/1999/xlink" x="0px" y="0px"
	 width="25px" height="25px" viewBox="0 0 25 25" enable-background="new 0 0 25 25" xml:space="preserve">
<g transform="matrix(1.25 0 0 -1.25 0 45)">
	<g>
		<g>
			<path fill="#C33A47" d="M12.148,26.009l7.408,7.407c0.591,0.591,0.591,1.549,0,2.14c-0.591,0.591-1.548,0.591-2.141,0
				l-7.407-7.407L2.6,35.556c-0.59,0.592-1.549,0.592-2.14,0c-0.591-0.591-0.591-1.549,0-2.14l7.408-7.407l-7.424-7.424
				c-0.591-0.592-0.591-1.55,0-2.141C0.739,16.148,1.127,16,1.514,16c0.387,0,0.775,0.148,1.07,0.444l7.425,7.424l7.407-7.407
				c0.297-0.295,0.683-0.444,1.07-0.444c0.388,0,0.775,0.148,1.07,0.444c0.591,0.591,0.591,1.548,0,2.141L12.148,26.009z"/>
		</g>
	</g>
</g>
</svg>
