<?xml version="1.0" encoding="utf-8"?>
<!-- Generator: Adobe Illustrator 16.0.0, SVG Export Plug-In . SVG Version: 6.00 Build 0)  -->
<!DOCTYPE svg PUBLIC "-//W3C//DTD SVG 1.1//EN" "http://www.w3.org/Graphics/SVG/1.1/DTD/svg11.dtd">
<svg version="1.1" id="Capa_1" xmlns="http://www.w3.org/2000/svg" xmlns:xlink="http://www.w3.org/1999/xlink" x="0px" y="0px"
	 width="25px" height="25px" viewBox="0 0 25 25" enable-background="new 0 0 25 25" xml:space="preserve">
<g>
	<g>
		<path fill="#BF0411" d="M12.501,24.502C5.883,24.502,0.5,19.114,0.5,12.5c0-6.617,5.383-12.002,12.001-12.002
			C19.117,0.498,24.5,5.883,24.5,12.5C24.5,19.114,19.117,24.502,12.501,24.502z M12.501,1.869c-5.863,0-10.628,4.77-10.628,10.631
			c0,5.86,4.765,10.632,10.628,10.632c5.862,0,10.626-4.771,10.626-10.632C23.127,6.639,18.363,1.869,12.501,1.869z"/>
	</g>
</g>
<g transform="matrix(1.25 0 0 -1.25 0 45)">
	<g>
		<g>
			<path fill="#BF0411" d="M11.035,26.006l3.57,3.568c0.286,0.287,0.286,0.746,0,1.032s-0.748,0.285-1.034,0l-3.567-3.568
				l-3.572,3.568c-0.283,0.285-0.746,0.285-1.03,0c-0.283-0.285-0.283-0.745,0-1.032l3.571-3.568l-3.578-3.577
				c-0.285-0.284-0.285-0.752,0-1.03c0.143-0.143,0.328-0.218,0.515-0.218c0.184,0,0.376,0.075,0.518,0.218l3.577,3.575l3.567-3.571
				c0.141-0.145,0.334-0.214,0.519-0.214c0.187,0,0.371,0.07,0.515,0.214c0.286,0.284,0.286,0.746,0,1.03L11.035,26.006z"/>
		</g>
	</g>
</g>
</svg>
