<?xml version="1.0" encoding="utf-8"?>
<!-- Generator: Adobe Illustrator 16.0.0, SVG Export Plug-In . SVG Version: 6.00 Build 0)  -->
<!DOCTYPE svg PUBLIC "-//W3C//DTD SVG 1.1//EN" "http://www.w3.org/Graphics/SVG/1.1/DTD/svg11.dtd">
<svg version="1.1" id="Capa_1" xmlns="http://www.w3.org/2000/svg" xmlns:xlink="http://www.w3.org/1999/xlink" x="0px" y="0px"
	 width="40px" height="40px" viewBox="0 0 40 40" enable-background="new 0 0 40 40" xml:space="preserve">
<g>
	
		<rect x="10.609" y="5.905" transform="matrix(0.9964 0.0851 -0.0851 0.9964 1.7807 -1.8143)" fill="#D5D9DE" width="23.121" height="28.146"/>
	
		<rect x="6.815" y="5.904" transform="matrix(0.9922 -0.1247 0.1247 0.9922 -2.3476 2.4471)" fill="#EAECEE" width="23.12" height="28.147"/>
	<rect x="8.44" y="7.662" fill="#EDEDED" width="23.121" height="28.146"/>
	<path fill="#696E70" d="M35.589,6.177c-0.081-0.096-0.196-0.155-0.32-0.166l-6.964-0.595l-0.127-1.003
		c-0.032-0.259-0.269-0.441-0.525-0.409l-6.461,0.812c-0.025-0.006-0.052-0.012-0.078-0.014l-8.881-0.758
		c-0.256-0.023-0.487,0.174-0.51,0.429l-0.132,1.55L4.713,6.888C4.459,6.919,4.271,7.159,4.305,7.414l3.51,27.926
		c0.017,0.127-0.011,0.249,0.041,0.373C7.929,35.885,8.103,36,8.29,36h23.119c0.261,0,0.472-0.211,0.472-0.471v-0.614l0.912,0.078
		c0.256,0.022,0.488-0.174,0.51-0.429l2.395-28.044C35.709,6.396,35.669,6.272,35.589,6.177z M27.543,6.913H12.07l15.231-1.916
		L27.543,6.913z M12.622,5.022l4.124,0.353l-4.199,0.528L12.622,5.022z M5.298,7.764l2.521-0.317v20.368L5.298,7.764z
		 M32.404,34.014l-0.523-0.045V20.2c0-0.261-0.211-0.472-0.472-0.472s-0.472,0.211-0.472,0.472v14.857H8.762V7.854h22.176v10.146
		c0,0.26,0.211,0.471,0.472,0.471s0.472-0.211,0.472-0.471V7.384c0-0.26-0.211-0.471-0.472-0.471h-2.917l-0.068-0.541l6.295,0.537
		L32.404,34.014z"/>
	<line fill="none" x1="16.549" y1="22.839" x2="23.451" y2="17.161"/>
	<line fill="none" x1="18.375" y1="20" x2="21.625" y2="20"/>
</g>
<g>
	<path fill="#9D9D9C" d="M26.177,15.112c0-0.022-0.003-0.045-0.003-0.067S26.172,15,26.169,14.977
		c-0.002-0.022-0.005-0.044-0.008-0.068c-0.002-0.022-0.005-0.045-0.01-0.069s-0.008-0.047-0.013-0.069
		c-0.005-0.024-0.01-0.049-0.016-0.072c-0.005-0.024-0.01-0.049-0.018-0.072c-0.005-0.025-0.01-0.051-0.018-0.075
		c-0.005-0.021-0.01-0.039-0.018-0.057c0-0.002,0-0.003,0-0.003c0-0.004-0.003-0.009-0.003-0.014
		c-0.01-0.024-0.015-0.049-0.025-0.071c-0.007-0.024-0.015-0.048-0.025-0.071c-0.005-0.022-0.015-0.045-0.022-0.068
		c-0.01-0.021-0.018-0.044-0.027-0.066c-0.008-0.019-0.016-0.036-0.023-0.053l0,0c-0.002-0.005-0.002-0.01-0.005-0.015
		c-0.01-0.021-0.021-0.045-0.03-0.067c-0.013-0.024-0.022-0.048-0.035-0.072c-0.013-0.027-0.028-0.056-0.046-0.084
		c-0.013-0.03-0.03-0.06-0.048-0.09c-0.003-0.004-0.006-0.006-0.006-0.009c-0.005-0.008-0.007-0.015-0.013-0.021
		c-0.032-0.056-0.068-0.111-0.104-0.165c-0.028-0.041-0.056-0.083-0.086-0.124c-0.021-0.027-0.041-0.055-0.063-0.081
		c-0.018-0.022-0.036-0.044-0.054-0.065s-0.035-0.043-0.053-0.063c-0.018-0.021-0.036-0.04-0.054-0.06
		c-0.002-0.005-0.005-0.008-0.01-0.012c-0.003-0.001-0.003-0.002-0.005-0.003c-0.013-0.015-0.025-0.029-0.041-0.046
		c-0.021-0.02-0.04-0.038-0.061-0.059c-0.018-0.018-0.038-0.036-0.059-0.056c-0.021-0.018-0.04-0.037-0.063-0.055
		c-0.01-0.008-0.02-0.017-0.03-0.023c-0.002-0.002-0.002-0.004-0.008-0.006c-0.005-0.006-0.013-0.013-0.022-0.019
		c-0.018-0.017-0.04-0.031-0.061-0.047s-0.041-0.029-0.062-0.043c-0.018-0.014-0.037-0.025-0.058-0.039
		c-0.018-0.012-0.038-0.023-0.059-0.036c-0.005-0.002-0.008-0.005-0.013-0.008c-0.015-0.009-0.03-0.018-0.046-0.023
		c-0.018-0.012-0.038-0.021-0.056-0.03c-0.013-0.007-0.025-0.013-0.038-0.019c-0.002-0.001-0.002-0.002-0.005-0.002
		c-0.005-0.003-0.008-0.004-0.013-0.007c-0.018-0.009-0.038-0.016-0.056-0.022c-0.018-0.008-0.038-0.014-0.056-0.021
		c-0.003-0.001-0.008-0.003-0.013-0.004l-0.003-0.001c-0.013-0.005-0.027-0.009-0.04-0.013c-0.018-0.005-0.038-0.011-0.056-0.016
		c-0.011-0.004-0.021-0.005-0.028-0.006c-0.005-0.002-0.008-0.004-0.01-0.004c-0.008-0.001-0.016-0.003-0.021-0.004
		c-0.021-0.003-0.04-0.008-0.061-0.009c-0.013-0.003-0.025-0.004-0.041-0.005c0,0-0.002,0-0.008,0
		c-0.002-0.002-0.007-0.002-0.012-0.002c-0.023-0.001-0.044-0.003-0.066-0.001c-0.01,0-0.021,0-0.03,0
		c-0.005,0-0.013,0.001-0.018,0.001c-0.008,0-0.016,0-0.023,0c-0.027,0.004-0.053,0.007-0.081,0.013l0,0
		c-0.007,0.002-0.013,0.004-0.018,0.006c-0.027,0.006-0.053,0.011-0.078,0.021c-0.003,0.001-0.003,0.002-0.006,0.002
		c-0.037,0.014-0.073,0.029-0.106,0.05l-4.024,2.338c0.033-0.019,0.068-0.035,0.106-0.05c0.021-0.007,0.043-0.012,0.063-0.019
		c0.015-0.003,0.027-0.008,0.04-0.01c0,0,0.003,0,0.006,0c0.03-0.008,0.063-0.012,0.096-0.015c0.008,0,0.013,0,0.018,0
		c0.036-0.001,0.074,0,0.109,0.003c0.005,0,0.008,0,0.013,0c0.04,0.004,0.078,0.01,0.119,0.019c0.003,0,0.003,0,0.003,0.002
		c0.04,0.009,0.083,0.021,0.126,0.035c0.003,0,0.008,0.003,0.011,0.003c0.043,0.014,0.086,0.032,0.132,0.053
		c0.002,0.001,0.005,0.003,0.01,0.004c0.043,0.021,0.089,0.044,0.135,0.071c0.094,0.055,0.188,0.119,0.275,0.191
		c0.003,0.002,0.006,0.004,0.008,0.005c0.178,0.146,0.345,0.324,0.489,0.523c0.003,0,0.003,0.001,0.003,0.001
		c0.07,0.098,0.137,0.199,0.2,0.305c0.002,0.006,0.005,0.011,0.008,0.019c0.061,0.104,0.113,0.21,0.162,0.319
		c0.002,0.003,0.002,0.004,0.002,0.005c0.049,0.111,0.092,0.225,0.124,0.339c0.003,0.002,0.003,0.004,0.003,0.008
		c0.033,0.112,0.061,0.225,0.079,0.337c0,0.002,0,0.005,0,0.006s0,0.001,0,0.001c0.018,0.114,0.027,0.226,0.027,0.335
		c0,0.052-0.003,0.103-0.008,0.151c0,0.006,0,0.011-0.002,0.016c-0.003,0.045-0.008,0.087-0.018,0.126
		c0,0.006-0.003,0.014-0.003,0.021c-0.01,0.038-0.021,0.078-0.03,0.113c-0.003,0.008-0.005,0.013-0.008,0.02
		c-0.025,0.078-0.059,0.149-0.099,0.212c-0.028,0.043-0.061,0.082-0.094,0.117c-0.011,0.009-0.018,0.02-0.028,0.025
		c-0.035,0.034-0.073,0.064-0.116,0.089l4.024-2.337c0.041-0.025,0.081-0.056,0.117-0.09c0.01-0.008,0.018-0.017,0.025-0.024
		c0.035-0.036,0.068-0.076,0.096-0.121h0.003c0.018-0.029,0.035-0.062,0.051-0.096c0.002-0.001,0.002-0.002,0.002-0.003
		c0-0.002,0.003-0.007,0.003-0.008c0.01-0.023,0.021-0.045,0.028-0.068c0.005-0.011,0.007-0.021,0.013-0.033
		c0-0.007,0.005-0.014,0.007-0.021c0.003-0.007,0.003-0.012,0.005-0.018c0.006-0.023,0.013-0.047,0.019-0.071
		c0.002-0.009,0.005-0.019,0.005-0.028c0.002-0.003,0.002-0.007,0.002-0.013c0.003-0.009,0.006-0.018,0.008-0.026
		c0.003-0.022,0.008-0.044,0.011-0.067c0-0.013,0.002-0.025,0.002-0.037c0-0.006,0.003-0.01,0.003-0.012c0-0.007,0-0.012,0-0.017
		c0.002-0.021,0.002-0.044,0.005-0.067c0-0.021,0-0.043,0-0.065c0-0.002,0-0.003,0-0.004C26.177,15.154,26.177,15.133,26.177,15.112
		z"/>
	<defs>
		<filter id="Adobe_OpacityMaskFilter" filterUnits="userSpaceOnUse" x="19.787" y="12.591" width="6.39" height="5.812">
			<feFlood  style="flood-color:white;flood-opacity:1" result="back"/>
			<feBlend  in="SourceGraphic" in2="back" mode="normal"/>
		</filter>
	</defs>
	<mask maskUnits="userSpaceOnUse" x="19.787" y="12.591" width="6.39" height="5.812" id="SVGID_1_">
		<g filter="url(#Adobe_OpacityMaskFilter)">
			<defs>
				<filter id="Adobe_OpacityMaskFilter_1_" filterUnits="userSpaceOnUse" x="19.787" y="12.591" width="6.39" height="5.812">
					<feFlood  style="flood-color:white;flood-opacity:1" result="back"/>
					<feBlend  in="SourceGraphic" in2="back" mode="normal"/>
				</filter>
			</defs>
			<mask maskUnits="userSpaceOnUse" x="19.787" y="12.591" width="6.39" height="5.812" id="SVGID_1_">
				<g filter="url(#Adobe_OpacityMaskFilter_1_)">
				</g>
			</mask>
			<linearGradient id="SVGID_2_" gradientUnits="userSpaceOnUse" x1="22.0938" y1="13.647" x2="24.2917" y2="16.8778">
				<stop  offset="0" style="stop-color:#666666"/>
				<stop  offset="0.05" style="stop-color:#888888"/>
				<stop  offset="0.1132" style="stop-color:#ADADAD"/>
				<stop  offset="0.1799" style="stop-color:#CBCBCB"/>
				<stop  offset="0.2499" style="stop-color:#E2E2E2"/>
				<stop  offset="0.3248" style="stop-color:#F2F2F2"/>
				<stop  offset="0.408" style="stop-color:#FCFCFC"/>
				<stop  offset="0.516" style="stop-color:#FFFFFF"/>
				<stop  offset="0.6512" style="stop-color:#FDFDFD"/>
				<stop  offset="0.7287" style="stop-color:#F4F4F4"/>
				<stop  offset="0.7916" style="stop-color:#E6E6E6"/>
				<stop  offset="0.8467" style="stop-color:#D3D3D3"/>
				<stop  offset="0.8966" style="stop-color:#B9B9B9"/>
				<stop  offset="0.9429" style="stop-color:#999999"/>
				<stop  offset="0.9854" style="stop-color:#747474"/>
				<stop  offset="1" style="stop-color:#666666"/>
			</linearGradient>
			<path mask="url(#SVGID_1_)" fill="url(#SVGID_2_)" d="M26.177,15.112c0-0.022-0.003-0.045-0.003-0.067S26.172,15,26.169,14.977
				c-0.002-0.022-0.005-0.044-0.008-0.068c-0.002-0.022-0.005-0.045-0.01-0.069s-0.008-0.047-0.013-0.069
				c-0.005-0.024-0.01-0.049-0.016-0.072c-0.005-0.024-0.01-0.049-0.018-0.072c-0.005-0.025-0.01-0.051-0.018-0.075
				c-0.005-0.021-0.01-0.039-0.018-0.057c0-0.002,0-0.003,0-0.003c0-0.004-0.003-0.009-0.003-0.014
				c-0.01-0.024-0.015-0.049-0.025-0.071c-0.007-0.024-0.015-0.048-0.025-0.071c-0.005-0.022-0.015-0.045-0.022-0.068
				c-0.01-0.021-0.018-0.044-0.027-0.066c-0.008-0.019-0.016-0.036-0.023-0.053l0,0c-0.002-0.005-0.002-0.01-0.005-0.015
				c-0.01-0.021-0.021-0.045-0.03-0.067c-0.013-0.024-0.022-0.048-0.035-0.072c-0.013-0.027-0.028-0.056-0.046-0.084
				c-0.013-0.03-0.03-0.06-0.048-0.09c-0.003-0.004-0.006-0.006-0.006-0.009c-0.005-0.008-0.007-0.015-0.013-0.021
				c-0.032-0.056-0.068-0.111-0.104-0.165c-0.028-0.041-0.056-0.083-0.086-0.124c-0.021-0.027-0.041-0.055-0.063-0.081
				c-0.018-0.022-0.036-0.044-0.054-0.065s-0.035-0.043-0.053-0.063c-0.018-0.021-0.036-0.04-0.054-0.06
				c-0.002-0.005-0.005-0.008-0.01-0.012c-0.003-0.001-0.003-0.002-0.005-0.003c-0.013-0.015-0.025-0.029-0.041-0.046
				c-0.021-0.02-0.04-0.038-0.061-0.059c-0.018-0.018-0.038-0.036-0.059-0.056c-0.021-0.018-0.04-0.037-0.063-0.055
				c-0.01-0.008-0.02-0.017-0.03-0.023c-0.002-0.002-0.002-0.004-0.008-0.006c-0.005-0.006-0.013-0.013-0.022-0.019
				c-0.018-0.017-0.04-0.031-0.061-0.047s-0.041-0.029-0.062-0.043c-0.018-0.014-0.037-0.025-0.058-0.039
				c-0.018-0.012-0.038-0.023-0.059-0.036c-0.005-0.002-0.008-0.005-0.013-0.008c-0.015-0.009-0.03-0.018-0.046-0.023
				c-0.018-0.012-0.038-0.021-0.056-0.03c-0.013-0.007-0.025-0.013-0.038-0.019c-0.002-0.001-0.002-0.002-0.005-0.002
				c-0.005-0.003-0.008-0.004-0.013-0.007c-0.018-0.009-0.038-0.016-0.056-0.022c-0.018-0.008-0.038-0.014-0.056-0.021
				c-0.003-0.001-0.008-0.003-0.013-0.004l-0.003-0.001c-0.013-0.005-0.027-0.009-0.04-0.013c-0.018-0.005-0.038-0.011-0.056-0.016
				c-0.011-0.004-0.021-0.005-0.028-0.006c-0.005-0.002-0.008-0.004-0.01-0.004c-0.008-0.001-0.016-0.003-0.021-0.004
				c-0.021-0.003-0.04-0.008-0.061-0.009c-0.013-0.003-0.025-0.004-0.041-0.005c0,0-0.002,0-0.008,0
				c-0.002-0.002-0.007-0.002-0.012-0.002c-0.023-0.001-0.044-0.003-0.066-0.001c-0.01,0-0.021,0-0.03,0
				c-0.005,0-0.013,0.001-0.018,0.001c-0.008,0-0.016,0-0.023,0c-0.027,0.004-0.053,0.007-0.081,0.013l0,0
				c-0.007,0.002-0.013,0.004-0.018,0.006c-0.027,0.006-0.053,0.011-0.078,0.021c-0.003,0.001-0.003,0.002-0.006,0.002
				c-0.037,0.014-0.073,0.029-0.106,0.05l-4.024,2.338c0.033-0.019,0.068-0.035,0.106-0.05c0.021-0.007,0.043-0.012,0.063-0.019
				c0.015-0.003,0.027-0.008,0.04-0.01c0,0,0.003,0,0.006,0c0.03-0.008,0.063-0.012,0.096-0.015c0.008,0,0.013,0,0.018,0
				c0.036-0.001,0.074,0,0.109,0.003c0.005,0,0.008,0,0.013,0c0.04,0.004,0.078,0.01,0.119,0.019c0.003,0,0.003,0,0.003,0.002
				c0.04,0.009,0.083,0.021,0.126,0.035c0.003,0,0.008,0.003,0.011,0.003c0.043,0.014,0.086,0.032,0.132,0.053
				c0.002,0.001,0.005,0.003,0.01,0.004c0.043,0.021,0.089,0.044,0.135,0.071c0.094,0.055,0.188,0.119,0.275,0.191
				c0.003,0.002,0.006,0.004,0.008,0.005c0.178,0.146,0.345,0.324,0.489,0.523c0.003,0,0.003,0.001,0.003,0.001
				c0.07,0.098,0.137,0.199,0.2,0.305c0.002,0.006,0.005,0.011,0.008,0.019c0.061,0.104,0.113,0.21,0.162,0.319
				c0.002,0.003,0.002,0.004,0.002,0.005c0.049,0.111,0.092,0.225,0.124,0.339c0.003,0.002,0.003,0.004,0.003,0.008
				c0.033,0.112,0.061,0.225,0.079,0.337c0,0.002,0,0.005,0,0.006s0,0.001,0,0.001c0.018,0.114,0.027,0.226,0.027,0.335
				c0,0.052-0.003,0.103-0.008,0.151c0,0.006,0,0.011-0.002,0.016c-0.003,0.045-0.008,0.087-0.018,0.126
				c0,0.006-0.003,0.014-0.003,0.021c-0.01,0.038-0.021,0.078-0.03,0.113c-0.003,0.008-0.005,0.013-0.008,0.02
				c-0.025,0.078-0.059,0.149-0.099,0.212c-0.028,0.043-0.061,0.082-0.094,0.117c-0.011,0.009-0.018,0.02-0.028,0.025
				c-0.035,0.034-0.073,0.064-0.116,0.089l4.024-2.337c0.041-0.025,0.081-0.056,0.117-0.09c0.01-0.008,0.018-0.017,0.025-0.024
				c0.035-0.036,0.068-0.076,0.096-0.121h0.003c0.018-0.029,0.035-0.062,0.051-0.096c0.002-0.001,0.002-0.002,0.002-0.003
				c0-0.002,0.003-0.007,0.003-0.008c0.01-0.023,0.021-0.045,0.028-0.068c0.005-0.011,0.007-0.021,0.013-0.033
				c0-0.007,0.005-0.014,0.007-0.021c0.003-0.007,0.003-0.012,0.005-0.018c0.006-0.023,0.013-0.047,0.019-0.071
				c0.002-0.009,0.005-0.019,0.005-0.028c0.002-0.003,0.002-0.007,0.002-0.013c0.003-0.009,0.006-0.018,0.008-0.026
				c0.003-0.022,0.008-0.044,0.011-0.067c0-0.013,0.002-0.025,0.002-0.037c0-0.006,0.003-0.01,0.003-0.012c0-0.007,0-0.012,0-0.017
				c0.002-0.021,0.002-0.044,0.005-0.067c0-0.021,0-0.043,0-0.065c0-0.002,0-0.003,0-0.004
				C26.177,15.154,26.177,15.133,26.177,15.112z"/>
		</g>
	</mask>
	<path fill="#9D9D9C" d="M26.177,15.112c0-0.022-0.003-0.045-0.003-0.067S26.172,15,26.169,14.977
		c-0.002-0.022-0.005-0.044-0.008-0.068c-0.002-0.022-0.005-0.045-0.01-0.069s-0.008-0.047-0.013-0.069
		c-0.005-0.024-0.01-0.049-0.016-0.072c-0.005-0.024-0.01-0.049-0.018-0.072c-0.005-0.025-0.01-0.051-0.018-0.075
		c-0.005-0.021-0.01-0.039-0.018-0.057c0-0.002,0-0.003,0-0.003c0-0.004-0.003-0.009-0.003-0.014
		c-0.01-0.024-0.015-0.049-0.025-0.071c-0.007-0.024-0.015-0.048-0.025-0.071c-0.005-0.022-0.015-0.045-0.022-0.068
		c-0.01-0.021-0.018-0.044-0.027-0.066c-0.008-0.019-0.016-0.036-0.023-0.053l0,0c-0.002-0.005-0.002-0.01-0.005-0.015
		c-0.01-0.021-0.021-0.045-0.03-0.067c-0.013-0.024-0.022-0.048-0.035-0.072c-0.013-0.027-0.028-0.056-0.046-0.084
		c-0.013-0.03-0.03-0.06-0.048-0.09c-0.003-0.004-0.006-0.006-0.006-0.009c-0.005-0.008-0.007-0.015-0.013-0.021
		c-0.032-0.056-0.068-0.111-0.104-0.165c-0.028-0.041-0.056-0.083-0.086-0.124c-0.021-0.027-0.041-0.055-0.063-0.081
		c-0.018-0.022-0.036-0.044-0.054-0.065s-0.035-0.043-0.053-0.063c-0.018-0.021-0.036-0.04-0.054-0.06
		c-0.002-0.005-0.005-0.008-0.01-0.012c-0.003-0.001-0.003-0.002-0.005-0.003c-0.013-0.015-0.025-0.029-0.041-0.046
		c-0.021-0.02-0.04-0.038-0.061-0.059c-0.018-0.018-0.038-0.036-0.059-0.056c-0.021-0.018-0.04-0.037-0.063-0.055
		c-0.01-0.008-0.02-0.017-0.03-0.023c-0.002-0.002-0.002-0.004-0.008-0.006c-0.005-0.006-0.013-0.013-0.022-0.019
		c-0.018-0.017-0.04-0.031-0.061-0.047s-0.041-0.029-0.062-0.043c-0.018-0.014-0.037-0.025-0.058-0.039
		c-0.018-0.012-0.038-0.023-0.059-0.036c-0.005-0.002-0.008-0.005-0.013-0.008c-0.015-0.009-0.03-0.018-0.046-0.023
		c-0.018-0.012-0.038-0.021-0.056-0.03c-0.013-0.007-0.025-0.013-0.038-0.019c-0.002-0.001-0.002-0.002-0.005-0.002
		c-0.005-0.003-0.008-0.004-0.013-0.007c-0.018-0.009-0.038-0.016-0.056-0.022c-0.018-0.008-0.038-0.014-0.056-0.021
		c-0.003-0.001-0.008-0.003-0.013-0.004l-0.003-0.001c-0.013-0.005-0.027-0.009-0.04-0.013c-0.018-0.005-0.038-0.011-0.056-0.016
		c-0.011-0.004-0.021-0.005-0.028-0.006c-0.005-0.002-0.008-0.004-0.01-0.004c-0.008-0.001-0.016-0.003-0.021-0.004
		c-0.021-0.003-0.04-0.008-0.061-0.009c-0.013-0.003-0.025-0.004-0.041-0.005c0,0-0.002,0-0.008,0
		c-0.002-0.002-0.007-0.002-0.012-0.002c-0.023-0.001-0.044-0.003-0.066-0.001c-0.01,0-0.021,0-0.03,0
		c-0.005,0-0.013,0.001-0.018,0.001c-0.008,0-0.016,0-0.023,0c-0.027,0.004-0.053,0.007-0.081,0.013l0,0
		c-0.007,0.002-0.013,0.004-0.018,0.006c-0.027,0.006-0.053,0.011-0.078,0.021c-0.003,0.001-0.003,0.002-0.006,0.002
		c-0.037,0.014-0.073,0.029-0.106,0.05l-4.024,2.338c0.033-0.019,0.068-0.035,0.106-0.05c0.021-0.007,0.043-0.012,0.063-0.019
		c0.015-0.003,0.027-0.008,0.04-0.01c0,0,0.003,0,0.006,0c0.03-0.008,0.063-0.012,0.096-0.015c0.008,0,0.013,0,0.018,0
		c0.036-0.001,0.074,0,0.109,0.003c0.005,0,0.008,0,0.013,0c0.04,0.004,0.078,0.01,0.119,0.019c0.003,0,0.003,0,0.003,0.002
		c0.04,0.009,0.083,0.021,0.126,0.035c0.003,0,0.008,0.003,0.011,0.003c0.043,0.014,0.086,0.032,0.132,0.053
		c0.002,0.001,0.005,0.003,0.01,0.004c0.043,0.021,0.089,0.044,0.135,0.071c0.094,0.055,0.188,0.119,0.275,0.191
		c0.003,0.002,0.006,0.004,0.008,0.005c0.178,0.146,0.345,0.324,0.489,0.523c0.003,0,0.003,0.001,0.003,0.001
		c0.07,0.098,0.137,0.199,0.2,0.305c0.002,0.006,0.005,0.011,0.008,0.019c0.061,0.104,0.113,0.21,0.162,0.319
		c0.002,0.003,0.002,0.004,0.002,0.005c0.049,0.111,0.092,0.225,0.124,0.339c0.003,0.002,0.003,0.004,0.003,0.008
		c0.033,0.112,0.061,0.225,0.079,0.337c0,0.002,0,0.005,0,0.006s0,0.001,0,0.001c0.018,0.114,0.027,0.226,0.027,0.335
		c0,0.052-0.003,0.103-0.008,0.151c0,0.006,0,0.011-0.002,0.016c-0.003,0.045-0.008,0.087-0.018,0.126
		c0,0.006-0.003,0.014-0.003,0.021c-0.01,0.038-0.021,0.078-0.03,0.113c-0.003,0.008-0.005,0.013-0.008,0.02
		c-0.025,0.078-0.059,0.149-0.099,0.212c-0.028,0.043-0.061,0.082-0.094,0.117c-0.011,0.009-0.018,0.02-0.028,0.025
		c-0.035,0.034-0.073,0.064-0.116,0.089l4.024-2.337c0.041-0.025,0.081-0.056,0.117-0.09c0.01-0.008,0.018-0.017,0.025-0.024
		c0.035-0.036,0.068-0.076,0.096-0.121h0.003c0.018-0.029,0.035-0.062,0.051-0.096c0.002-0.001,0.002-0.002,0.002-0.003
		c0-0.002,0.003-0.007,0.003-0.008c0.01-0.023,0.021-0.045,0.028-0.068c0.005-0.011,0.007-0.021,0.013-0.033
		c0-0.007,0.005-0.014,0.007-0.021c0.003-0.007,0.003-0.012,0.005-0.018c0.006-0.023,0.013-0.047,0.019-0.071
		c0.002-0.009,0.005-0.019,0.005-0.028c0.002-0.003,0.002-0.007,0.002-0.013c0.003-0.009,0.006-0.018,0.008-0.026
		c0.003-0.022,0.008-0.044,0.011-0.067c0-0.013,0.002-0.025,0.002-0.037c0-0.006,0.003-0.01,0.003-0.012c0-0.007,0-0.012,0-0.017
		c0.002-0.021,0.002-0.044,0.005-0.067c0-0.021,0-0.043,0-0.065c0-0.002,0-0.003,0-0.004C26.177,15.154,26.177,15.133,26.177,15.112
		z"/>
	<g>
		<path fill="#9D9D9C" d="M20.773,15.119c0.765,0.442,1.384,1.513,1.381,2.394c-0.003,0.88-0.623,1.237-1.389,0.795
			c-0.766-0.443-1.387-1.516-1.384-2.396C19.384,15.032,20.008,14.677,20.773,15.119z"/>
	</g>
	<path fill="#9D9D9C" d="M21.163,25.481c-0.002,0.034-0.005,0.066-0.01,0.101c-0.005,0.02-0.01,0.043-0.018,0.064
		c-0.008,0.03-0.016,0.06-0.025,0.089c-0.008,0.023-0.018,0.045-0.028,0.069c-0.013,0.03-0.025,0.06-0.043,0.09
		c-0.01,0.02-0.022,0.039-0.035,0.06c-0.021,0.034-0.043,0.068-0.068,0.101c-0.016,0.02-0.03,0.039-0.046,0.058
		c-0.035,0.043-0.076,0.087-0.119,0.128c-0.016,0.017-0.033,0.033-0.051,0.05c-0.025,0.021-0.053,0.044-0.081,0.065
		c-0.028,0.023-0.056,0.046-0.086,0.069c-0.025,0.019-0.056,0.039-0.086,0.057c-0.041,0.026-0.079,0.053-0.122,0.08
		c-0.084,0.048-0.173,0.092-0.267,0.133c-0.027,0.014-0.056,0.026-0.086,0.038c-0.07,0.029-0.14,0.056-0.213,0.08
		c-0.03,0.01-0.058,0.022-0.089,0.031c-0.045,0.014-0.091,0.026-0.137,0.039c-0.04,0.011-0.078,0.021-0.119,0.032
		c-0.051,0.013-0.104,0.022-0.154,0.032c-0.035,0.008-0.071,0.016-0.109,0.022c-0.106,0.018-0.213,0.034-0.321,0.045
		c-0.033,0.003-0.066,0.005-0.1,0.008c-0.068,0.007-0.134,0.012-0.202,0.013c-0.033,0.001-0.068,0.003-0.104,0.004
		c-0.058,0.001-0.113,0.002-0.169,0.001c-0.044-0.001-0.082-0.002-0.122-0.005c-0.051-0.001-0.102-0.003-0.149-0.006
		c-0.046-0.004-0.086-0.007-0.13-0.012c-0.048-0.005-0.096-0.011-0.144-0.017c-0.041-0.005-0.084-0.012-0.122-0.018
		c-0.054-0.007-0.104-0.016-0.154-0.025c-0.038-0.008-0.079-0.017-0.117-0.024c-0.061-0.014-0.124-0.029-0.183-0.044
		c-0.03-0.009-0.061-0.017-0.088-0.024c-0.106-0.03-0.208-0.065-0.31-0.104c-0.013-0.007-0.025-0.012-0.038-0.018
		c-0.137-0.055-0.267-0.114-0.388-0.186c-0.558-0.322-0.837-0.745-0.837-1.168l-0.007,3.428c-0.003,0.423,0.275,0.848,0.836,1.171
		c0.122,0.071,0.254,0.131,0.391,0.187c0.005,0.002,0.013,0.008,0.018,0.01c0.005,0.001,0.01,0.003,0.015,0.003
		c0.1,0.039,0.201,0.074,0.308,0.104c0.007,0.004,0.015,0.007,0.024,0.009c0.023,0.007,0.049,0.012,0.071,0.019
		c0.059,0.015,0.117,0.03,0.178,0.043c0.015,0.004,0.03,0.009,0.046,0.011c0.025,0.006,0.048,0.01,0.073,0.013
		c0.046,0.01,0.096,0.017,0.145,0.025c0.021,0.003,0.043,0.008,0.063,0.013c0.025,0.002,0.048,0.004,0.07,0.007
		c0.046,0.006,0.092,0.012,0.14,0.015c0.021,0.002,0.043,0.007,0.068,0.008c0.021,0.003,0.041,0.003,0.061,0.003
		c0.049,0.004,0.097,0.008,0.145,0.009c0.025,0.001,0.049,0.002,0.074,0.004c0.018,0,0.038-0.002,0.056-0.002
		c0.051,0.002,0.104,0.002,0.154,0c0.028,0,0.054,0,0.081,0c0.013,0,0.03-0.002,0.046-0.003c0.065-0.003,0.129-0.008,0.192-0.013
		c0.025-0.003,0.051-0.003,0.076-0.006c0.008,0,0.016-0.002,0.022-0.003c0.106-0.011,0.216-0.027,0.319-0.044
		c0.008-0.002,0.013-0.002,0.021-0.003c0.033-0.006,0.068-0.015,0.102-0.022c0.048-0.01,0.097-0.019,0.145-0.03
		c0.04-0.009,0.078-0.021,0.119-0.031c0.046-0.013,0.094-0.025,0.14-0.039c0.01-0.004,0.02-0.007,0.03-0.011
		c0.018-0.006,0.035-0.013,0.053-0.019c0.076-0.026,0.149-0.056,0.221-0.085c0.028-0.012,0.054-0.021,0.078-0.033
		c0.095-0.043,0.186-0.087,0.27-0.136c0.013-0.008,0.025-0.014,0.035-0.021c0.025-0.015,0.046-0.03,0.068-0.046
		c0.038-0.023,0.073-0.048,0.109-0.071c0.025-0.019,0.045-0.036,0.068-0.055c0.035-0.027,0.068-0.054,0.096-0.081
		c0.008-0.004,0.013-0.009,0.018-0.012c0.011-0.01,0.019-0.021,0.025-0.029c0.046-0.044,0.089-0.09,0.127-0.137
		c0.008-0.008,0.018-0.016,0.023-0.024c0.007-0.009,0.013-0.018,0.018-0.025c0.027-0.036,0.051-0.073,0.073-0.107
		c0.008-0.013,0.018-0.024,0.025-0.037c0.003-0.006,0.005-0.013,0.008-0.02c0.015-0.03,0.03-0.062,0.043-0.093
		c0.008-0.017,0.018-0.032,0.022-0.05c0.003-0.005,0.003-0.011,0.005-0.017c0.011-0.028,0.019-0.06,0.025-0.09
		c0.006-0.017,0.013-0.034,0.019-0.053c0-0.004,0-0.009,0-0.013c0.005-0.033,0.007-0.064,0.01-0.098
		c0.003-0.017,0.008-0.034,0.008-0.054c0-0.006,0-0.015,0-0.023l0.01-3.43C21.171,25.431,21.166,25.457,21.163,25.481z"/>
	<defs>
		<filter id="Adobe_OpacityMaskFilter_2_" filterUnits="userSpaceOnUse" x="15.486" y="25.391" width="5.685" height="5.079">
			<feFlood  style="flood-color:white;flood-opacity:1" result="back"/>
			<feBlend  in="SourceGraphic" in2="back" mode="normal"/>
		</filter>
	</defs>
	<mask maskUnits="userSpaceOnUse" x="15.486" y="25.391" width="5.685" height="5.079" id="SVGID_3_">
		<g filter="url(#Adobe_OpacityMaskFilter_2_)">
			<defs>
				<filter id="Adobe_OpacityMaskFilter_3_" filterUnits="userSpaceOnUse" x="15.486" y="25.391" width="5.685" height="5.079">
					<feFlood  style="flood-color:white;flood-opacity:1" result="back"/>
					<feBlend  in="SourceGraphic" in2="back" mode="normal"/>
				</filter>
			</defs>
			<mask maskUnits="userSpaceOnUse" x="15.486" y="25.391" width="5.685" height="5.079" id="SVGID_3_">
				<g filter="url(#Adobe_OpacityMaskFilter_3_)">
				</g>
			</mask>
			<linearGradient id="SVGID_4_" gradientUnits="userSpaceOnUse" x1="15.4863" y1="27.9297" x2="21.1709" y2="27.9297">
				<stop  offset="0" style="stop-color:#666666"/>
				<stop  offset="0.05" style="stop-color:#888888"/>
				<stop  offset="0.1132" style="stop-color:#ADADAD"/>
				<stop  offset="0.1799" style="stop-color:#CBCBCB"/>
				<stop  offset="0.2499" style="stop-color:#E2E2E2"/>
				<stop  offset="0.3248" style="stop-color:#F2F2F2"/>
				<stop  offset="0.408" style="stop-color:#FCFCFC"/>
				<stop  offset="0.516" style="stop-color:#FFFFFF"/>
				<stop  offset="0.6512" style="stop-color:#FDFDFD"/>
				<stop  offset="0.7287" style="stop-color:#F4F4F4"/>
				<stop  offset="0.7916" style="stop-color:#E6E6E6"/>
				<stop  offset="0.8467" style="stop-color:#D3D3D3"/>
				<stop  offset="0.8966" style="stop-color:#B9B9B9"/>
				<stop  offset="0.9429" style="stop-color:#999999"/>
				<stop  offset="0.9854" style="stop-color:#747474"/>
				<stop  offset="1" style="stop-color:#666666"/>
			</linearGradient>
			<path mask="url(#SVGID_3_)" fill="url(#SVGID_4_)" d="M21.163,25.481c-0.002,0.034-0.005,0.066-0.01,0.101
				c-0.005,0.02-0.01,0.043-0.018,0.064c-0.008,0.03-0.016,0.06-0.025,0.089c-0.008,0.023-0.018,0.045-0.028,0.069
				c-0.013,0.03-0.025,0.06-0.043,0.09c-0.01,0.02-0.022,0.039-0.035,0.06c-0.021,0.034-0.043,0.068-0.068,0.101
				c-0.016,0.02-0.03,0.039-0.046,0.058c-0.035,0.043-0.076,0.087-0.119,0.128c-0.016,0.017-0.033,0.033-0.051,0.05
				c-0.025,0.021-0.053,0.044-0.081,0.065c-0.028,0.023-0.056,0.046-0.086,0.069c-0.025,0.019-0.056,0.039-0.086,0.057
				c-0.041,0.026-0.079,0.053-0.122,0.08c-0.084,0.048-0.173,0.092-0.267,0.133c-0.027,0.014-0.056,0.026-0.086,0.038
				c-0.07,0.029-0.14,0.056-0.213,0.08c-0.03,0.01-0.058,0.022-0.089,0.031c-0.045,0.014-0.091,0.026-0.137,0.039
				c-0.04,0.011-0.078,0.021-0.119,0.032c-0.051,0.013-0.104,0.022-0.154,0.032c-0.035,0.008-0.071,0.016-0.109,0.022
				c-0.106,0.018-0.213,0.034-0.321,0.045c-0.033,0.003-0.066,0.005-0.1,0.008c-0.068,0.007-0.134,0.012-0.202,0.013
				c-0.033,0.001-0.068,0.003-0.104,0.004c-0.058,0.001-0.113,0.002-0.169,0.001c-0.044-0.001-0.082-0.002-0.122-0.005
				c-0.051-0.001-0.102-0.003-0.149-0.006c-0.046-0.004-0.086-0.007-0.13-0.012c-0.048-0.005-0.096-0.011-0.144-0.017
				c-0.041-0.005-0.084-0.012-0.122-0.018c-0.054-0.007-0.104-0.016-0.154-0.025c-0.038-0.008-0.079-0.017-0.117-0.024
				c-0.061-0.014-0.124-0.029-0.183-0.044c-0.03-0.009-0.061-0.017-0.088-0.024c-0.106-0.03-0.208-0.065-0.31-0.104
				c-0.013-0.007-0.025-0.012-0.038-0.018c-0.137-0.055-0.267-0.114-0.388-0.186c-0.558-0.322-0.837-0.745-0.837-1.168l-0.007,3.428
				c-0.003,0.423,0.275,0.848,0.836,1.171c0.122,0.071,0.254,0.131,0.391,0.187c0.005,0.002,0.013,0.008,0.018,0.01
				c0.005,0.001,0.01,0.003,0.015,0.003c0.1,0.039,0.201,0.074,0.308,0.104c0.007,0.004,0.015,0.007,0.024,0.009
				c0.023,0.007,0.049,0.012,0.071,0.019c0.059,0.015,0.117,0.03,0.178,0.043c0.015,0.004,0.03,0.009,0.046,0.011
				c0.025,0.006,0.048,0.01,0.073,0.013c0.046,0.01,0.096,0.017,0.145,0.025c0.021,0.003,0.043,0.008,0.063,0.013
				c0.025,0.002,0.048,0.004,0.07,0.007c0.046,0.006,0.092,0.012,0.14,0.015c0.021,0.002,0.043,0.007,0.068,0.008
				c0.021,0.003,0.041,0.003,0.061,0.003c0.049,0.004,0.097,0.008,0.145,0.009c0.025,0.001,0.049,0.002,0.074,0.004
				c0.018,0,0.038-0.002,0.056-0.002c0.051,0.002,0.104,0.002,0.154,0c0.028,0,0.054,0,0.081,0c0.013,0,0.03-0.002,0.046-0.003
				c0.065-0.003,0.129-0.008,0.192-0.013c0.025-0.003,0.051-0.003,0.076-0.006c0.008,0,0.016-0.002,0.022-0.003
				c0.106-0.011,0.216-0.027,0.319-0.044c0.008-0.002,0.013-0.002,0.021-0.003c0.033-0.006,0.068-0.015,0.102-0.022
				c0.048-0.01,0.097-0.019,0.145-0.03c0.04-0.009,0.078-0.021,0.119-0.031c0.046-0.013,0.094-0.025,0.14-0.039
				c0.01-0.004,0.02-0.007,0.03-0.011c0.018-0.006,0.035-0.013,0.053-0.019c0.076-0.026,0.149-0.056,0.221-0.085
				c0.028-0.012,0.054-0.021,0.078-0.033c0.095-0.043,0.186-0.087,0.27-0.136c0.013-0.008,0.025-0.014,0.035-0.021
				c0.025-0.015,0.046-0.03,0.068-0.046c0.038-0.023,0.073-0.048,0.109-0.071c0.025-0.019,0.045-0.036,0.068-0.055
				c0.035-0.027,0.068-0.054,0.096-0.081c0.008-0.004,0.013-0.009,0.018-0.012c0.011-0.01,0.019-0.021,0.025-0.029
				c0.046-0.044,0.089-0.09,0.127-0.137c0.008-0.008,0.018-0.016,0.023-0.024c0.007-0.009,0.013-0.018,0.018-0.025
				c0.027-0.036,0.051-0.073,0.073-0.107c0.008-0.013,0.018-0.024,0.025-0.037c0.003-0.006,0.005-0.013,0.008-0.02
				c0.015-0.03,0.03-0.062,0.043-0.093c0.008-0.017,0.018-0.032,0.022-0.05c0.003-0.005,0.003-0.011,0.005-0.017
				c0.011-0.028,0.019-0.06,0.025-0.09c0.006-0.017,0.013-0.034,0.019-0.053c0-0.004,0-0.009,0-0.013
				c0.005-0.033,0.007-0.064,0.01-0.098c0.003-0.017,0.008-0.034,0.008-0.054c0-0.006,0-0.015,0-0.023l0.01-3.43
				C21.171,25.431,21.166,25.457,21.163,25.481z"/>
		</g>
	</mask>
	<path fill="#9D9D9C" d="M21.163,25.481c-0.002,0.034-0.005,0.066-0.01,0.101c-0.005,0.02-0.01,0.043-0.018,0.064
		c-0.008,0.03-0.016,0.06-0.025,0.089c-0.008,0.023-0.018,0.045-0.028,0.069c-0.013,0.03-0.025,0.06-0.043,0.09
		c-0.01,0.02-0.022,0.039-0.035,0.06c-0.021,0.034-0.043,0.068-0.068,0.101c-0.016,0.02-0.03,0.039-0.046,0.058
		c-0.035,0.043-0.076,0.087-0.119,0.128c-0.016,0.017-0.033,0.033-0.051,0.05c-0.025,0.021-0.053,0.044-0.081,0.065
		c-0.028,0.023-0.056,0.046-0.086,0.069c-0.025,0.019-0.056,0.039-0.086,0.057c-0.041,0.026-0.079,0.053-0.122,0.08
		c-0.084,0.048-0.173,0.092-0.267,0.133c-0.027,0.014-0.056,0.026-0.086,0.038c-0.07,0.029-0.14,0.056-0.213,0.08
		c-0.03,0.01-0.058,0.022-0.089,0.031c-0.045,0.014-0.091,0.026-0.137,0.039c-0.04,0.011-0.078,0.021-0.119,0.032
		c-0.051,0.013-0.104,0.022-0.154,0.032c-0.035,0.008-0.071,0.016-0.109,0.022c-0.106,0.018-0.213,0.034-0.321,0.045
		c-0.033,0.003-0.066,0.005-0.1,0.008c-0.068,0.007-0.134,0.012-0.202,0.013c-0.033,0.001-0.068,0.003-0.104,0.004
		c-0.058,0.001-0.113,0.002-0.169,0.001c-0.044-0.001-0.082-0.002-0.122-0.005c-0.051-0.001-0.102-0.003-0.149-0.006
		c-0.046-0.004-0.086-0.007-0.13-0.012c-0.048-0.005-0.096-0.011-0.144-0.017c-0.041-0.005-0.084-0.012-0.122-0.018
		c-0.054-0.007-0.104-0.016-0.154-0.025c-0.038-0.008-0.079-0.017-0.117-0.024c-0.061-0.014-0.124-0.029-0.183-0.044
		c-0.03-0.009-0.061-0.017-0.088-0.024c-0.106-0.03-0.208-0.065-0.31-0.104c-0.013-0.007-0.025-0.012-0.038-0.018
		c-0.137-0.055-0.267-0.114-0.388-0.186c-0.558-0.322-0.837-0.745-0.837-1.168l-0.007,3.428c-0.003,0.423,0.275,0.848,0.836,1.171
		c0.122,0.071,0.254,0.131,0.391,0.187c0.005,0.002,0.013,0.008,0.018,0.01c0.005,0.001,0.01,0.003,0.015,0.003
		c0.1,0.039,0.201,0.074,0.308,0.104c0.007,0.004,0.015,0.007,0.024,0.009c0.023,0.007,0.049,0.012,0.071,0.019
		c0.059,0.015,0.117,0.03,0.178,0.043c0.015,0.004,0.03,0.009,0.046,0.011c0.025,0.006,0.048,0.01,0.073,0.013
		c0.046,0.01,0.096,0.017,0.145,0.025c0.021,0.003,0.043,0.008,0.063,0.013c0.025,0.002,0.048,0.004,0.07,0.007
		c0.046,0.006,0.092,0.012,0.14,0.015c0.021,0.002,0.043,0.007,0.068,0.008c0.021,0.003,0.041,0.003,0.061,0.003
		c0.049,0.004,0.097,0.008,0.145,0.009c0.025,0.001,0.049,0.002,0.074,0.004c0.018,0,0.038-0.002,0.056-0.002
		c0.051,0.002,0.104,0.002,0.154,0c0.028,0,0.054,0,0.081,0c0.013,0,0.03-0.002,0.046-0.003c0.065-0.003,0.129-0.008,0.192-0.013
		c0.025-0.003,0.051-0.003,0.076-0.006c0.008,0,0.016-0.002,0.022-0.003c0.106-0.011,0.216-0.027,0.319-0.044
		c0.008-0.002,0.013-0.002,0.021-0.003c0.033-0.006,0.068-0.015,0.102-0.022c0.048-0.01,0.097-0.019,0.145-0.03
		c0.04-0.009,0.078-0.021,0.119-0.031c0.046-0.013,0.094-0.025,0.14-0.039c0.01-0.004,0.02-0.007,0.03-0.011
		c0.018-0.006,0.035-0.013,0.053-0.019c0.076-0.026,0.149-0.056,0.221-0.085c0.028-0.012,0.054-0.021,0.078-0.033
		c0.095-0.043,0.186-0.087,0.27-0.136c0.013-0.008,0.025-0.014,0.035-0.021c0.025-0.015,0.046-0.03,0.068-0.046
		c0.038-0.023,0.073-0.048,0.109-0.071c0.025-0.019,0.045-0.036,0.068-0.055c0.035-0.027,0.068-0.054,0.096-0.081
		c0.008-0.004,0.013-0.009,0.018-0.012c0.011-0.01,0.019-0.021,0.025-0.029c0.046-0.044,0.089-0.09,0.127-0.137
		c0.008-0.008,0.018-0.016,0.023-0.024c0.007-0.009,0.013-0.018,0.018-0.025c0.027-0.036,0.051-0.073,0.073-0.107
		c0.008-0.013,0.018-0.024,0.025-0.037c0.003-0.006,0.005-0.013,0.008-0.02c0.015-0.03,0.03-0.062,0.043-0.093
		c0.008-0.017,0.018-0.032,0.022-0.05c0.003-0.005,0.003-0.011,0.005-0.017c0.011-0.028,0.019-0.06,0.025-0.09
		c0.006-0.017,0.013-0.034,0.019-0.053c0-0.004,0-0.009,0-0.013c0.005-0.033,0.007-0.064,0.01-0.098
		c0.003-0.017,0.008-0.034,0.008-0.054c0-0.006,0-0.015,0-0.023l0.01-3.43C21.171,25.431,21.166,25.457,21.163,25.481z"/>
	<g>
		<path fill="#9D9D9C" d="M20.332,24.234c1.112,0.643,1.118,1.685,0.013,2.327c-1.105,0.641-2.899,0.641-4.015-0.003
			c-1.11-0.64-1.115-1.682-0.013-2.324C17.425,23.593,19.222,23.593,20.332,24.234z"/>
	</g>
	<path fill="#9D9D9C" d="M22.259,23.903c-0.003,0.045-0.006,0.091-0.016,0.134c-0.005,0.031-0.016,0.063-0.022,0.095
		c-0.011,0.042-0.021,0.082-0.036,0.124c-0.01,0.03-0.025,0.061-0.038,0.09c-0.02,0.043-0.038,0.087-0.061,0.128
		c-0.016,0.029-0.033,0.058-0.051,0.087c-0.027,0.045-0.059,0.09-0.091,0.135c-0.033,0.046-0.068,0.092-0.109,0.134
		c-0.008,0.01-0.013,0.019-0.022,0.026c-0.051,0.059-0.109,0.112-0.168,0.167c-0.035,0.032-0.075,0.062-0.113,0.094
		c-0.038,0.03-0.074,0.062-0.117,0.092c-0.04,0.031-0.089,0.06-0.132,0.089c-0.053,0.032-0.102,0.068-0.157,0.1
		c-0.119,0.069-0.243,0.131-0.372,0.188c-0.035,0.017-0.076,0.032-0.114,0.05c-0.099,0.041-0.203,0.08-0.307,0.115
		c-0.038,0.014-0.076,0.028-0.116,0.041c-0.066,0.019-0.132,0.038-0.198,0.056c-0.053,0.015-0.106,0.029-0.157,0.043
		c-0.073,0.018-0.149,0.033-0.223,0.048c-0.046,0.009-0.094,0.021-0.145,0.028c-0.147,0.026-0.299,0.048-0.451,0.063
		c-0.043,0.005-0.086,0.007-0.129,0.011c-0.092,0.008-0.183,0.013-0.274,0.02c-0.058,0.001-0.116,0.004-0.177,0.004
		c-0.066,0.001-0.135,0.001-0.203,0c-0.066,0-0.127-0.002-0.192-0.004c-0.063-0.004-0.13-0.007-0.195-0.012
		c-0.061-0.004-0.119-0.009-0.18-0.015c-0.066-0.007-0.13-0.015-0.195-0.021c-0.062-0.009-0.122-0.018-0.186-0.026
		c-0.065-0.011-0.129-0.023-0.195-0.035c-0.058-0.011-0.116-0.022-0.175-0.036c-0.078-0.016-0.157-0.035-0.232-0.056
		c-0.049-0.015-0.097-0.024-0.145-0.039c-0.145-0.042-0.284-0.089-0.421-0.143c-0.073-0.027-0.145-0.061-0.216-0.091
		c-0.027-0.013-0.056-0.024-0.083-0.037c-0.1-0.048-0.198-0.1-0.292-0.153c-0.775-0.446-1.163-1.035-1.161-1.622l-0.002,0.979
		c-0.003,0.589,0.385,1.177,1.16,1.624c0.095,0.054,0.188,0.104,0.287,0.151c0.038,0.018,0.078,0.033,0.116,0.051
		c0.056,0.023,0.109,0.049,0.167,0.071c0.006,0.003,0.013,0.005,0.019,0.007c0.137,0.054,0.278,0.101,0.423,0.143
		c0.013,0.004,0.025,0.009,0.035,0.013c0.036,0.009,0.071,0.016,0.106,0.025c0.079,0.02,0.157,0.04,0.238,0.058
		c0.023,0.007,0.046,0.013,0.068,0.017c0.031,0.008,0.063,0.011,0.097,0.018c0.071,0.013,0.142,0.027,0.213,0.038
		c0.025,0.003,0.054,0.009,0.081,0.013c0.028,0.005,0.059,0.007,0.089,0.011c0.065,0.007,0.132,0.015,0.197,0.021
		c0.033,0.004,0.063,0.007,0.097,0.011c0.028,0.002,0.059,0.003,0.089,0.006c0.065,0.003,0.132,0.006,0.2,0.01
		c0.033,0.002,0.065,0.005,0.099,0.005c0.025,0.001,0.051,0,0.079,0c0.07,0.001,0.145,0,0.218-0.001c0.035-0.002,0.07,0.001,0.106,0
		c0.021-0.002,0.043-0.004,0.063-0.005c0.089-0.004,0.177-0.011,0.266-0.019c0.036-0.002,0.071-0.003,0.109-0.006
		c0.008-0.001,0.021-0.004,0.03-0.005c0.152-0.016,0.302-0.037,0.451-0.063c0.005-0.001,0.013-0.002,0.018-0.004
		c0.041-0.006,0.081-0.018,0.119-0.023c0.076-0.017,0.154-0.031,0.229-0.05c0.051-0.013,0.099-0.026,0.151-0.041
		c0.068-0.019,0.138-0.037,0.206-0.058c0.013-0.005,0.027-0.008,0.04-0.013c0.025-0.008,0.048-0.018,0.071-0.025
		c0.106-0.037,0.208-0.076,0.312-0.12c0.035-0.015,0.073-0.029,0.111-0.047c0.13-0.059,0.254-0.118,0.373-0.188
		c0.015-0.01,0.03-0.019,0.048-0.027c0.035-0.022,0.066-0.044,0.099-0.067c0.049-0.033,0.1-0.063,0.145-0.096
		c0.036-0.027,0.068-0.055,0.104-0.083c0.043-0.034,0.088-0.068,0.126-0.105c0.008-0.006,0.016-0.011,0.023-0.018
		c0.051-0.047,0.096-0.095,0.14-0.143c0.012-0.011,0.022-0.023,0.03-0.034c0.025-0.029,0.053-0.058,0.073-0.088
		c0.01-0.012,0.018-0.024,0.027-0.037c0.033-0.045,0.063-0.091,0.095-0.138c0.01-0.019,0.027-0.039,0.037-0.06
		c0.006-0.01,0.011-0.021,0.016-0.029c0.021-0.042,0.041-0.083,0.059-0.124c0.007-0.024,0.022-0.047,0.03-0.069
		c0.005-0.008,0.005-0.016,0.008-0.024c0.013-0.039,0.025-0.081,0.035-0.123c0.005-0.024,0.016-0.05,0.022-0.074
		c0-0.007,0-0.015,0-0.021c0.008-0.041,0.013-0.084,0.016-0.126c0.003-0.026,0.01-0.053,0.01-0.081c0-0.01,0-0.022,0-0.032
		l0.003-0.98C22.269,23.833,22.261,23.868,22.259,23.903z"/>
	<defs>
		<filter id="Adobe_OpacityMaskFilter_4_" filterUnits="userSpaceOnUse" x="14.389" y="23.774" width="7.88" height="3.27">
			<feFlood  style="flood-color:white;flood-opacity:1" result="back"/>
			<feBlend  in="SourceGraphic" in2="back" mode="normal"/>
		</filter>
	</defs>
	<mask maskUnits="userSpaceOnUse" x="14.389" y="23.774" width="7.88" height="3.27" id="SVGID_5_">
		<g filter="url(#Adobe_OpacityMaskFilter_4_)">
			<defs>
				<filter id="Adobe_OpacityMaskFilter_5_" filterUnits="userSpaceOnUse" x="14.389" y="23.774" width="7.88" height="3.27">
					<feFlood  style="flood-color:white;flood-opacity:1" result="back"/>
					<feBlend  in="SourceGraphic" in2="back" mode="normal"/>
				</filter>
			</defs>
			<mask maskUnits="userSpaceOnUse" x="14.389" y="23.774" width="7.88" height="3.27" id="SVGID_5_">
				<g filter="url(#Adobe_OpacityMaskFilter_5_)">
				</g>
			</mask>
			<linearGradient id="SVGID_6_" gradientUnits="userSpaceOnUse" x1="14.3887" y1="25.4092" x2="22.2686" y2="25.4092">
				<stop  offset="0" style="stop-color:#666666"/>
				<stop  offset="0.05" style="stop-color:#888888"/>
				<stop  offset="0.1132" style="stop-color:#ADADAD"/>
				<stop  offset="0.1799" style="stop-color:#CBCBCB"/>
				<stop  offset="0.2499" style="stop-color:#E2E2E2"/>
				<stop  offset="0.3248" style="stop-color:#F2F2F2"/>
				<stop  offset="0.408" style="stop-color:#FCFCFC"/>
				<stop  offset="0.516" style="stop-color:#FFFFFF"/>
				<stop  offset="0.6512" style="stop-color:#FDFDFD"/>
				<stop  offset="0.7287" style="stop-color:#F4F4F4"/>
				<stop  offset="0.7916" style="stop-color:#E6E6E6"/>
				<stop  offset="0.8467" style="stop-color:#D3D3D3"/>
				<stop  offset="0.8966" style="stop-color:#B9B9B9"/>
				<stop  offset="0.9429" style="stop-color:#999999"/>
				<stop  offset="0.9854" style="stop-color:#747474"/>
				<stop  offset="1" style="stop-color:#666666"/>
			</linearGradient>
			<path mask="url(#SVGID_5_)" fill="url(#SVGID_6_)" d="M22.259,23.903c-0.003,0.045-0.006,0.091-0.016,0.134
				c-0.005,0.031-0.016,0.063-0.022,0.095c-0.011,0.042-0.021,0.082-0.036,0.124c-0.01,0.03-0.025,0.061-0.038,0.09
				c-0.02,0.043-0.038,0.087-0.061,0.128c-0.016,0.029-0.033,0.058-0.051,0.087c-0.027,0.045-0.059,0.09-0.091,0.135
				c-0.033,0.046-0.068,0.092-0.109,0.134c-0.008,0.01-0.013,0.019-0.022,0.026c-0.051,0.059-0.109,0.112-0.168,0.167
				c-0.035,0.032-0.075,0.062-0.113,0.094c-0.038,0.03-0.074,0.062-0.117,0.092c-0.04,0.031-0.089,0.06-0.132,0.089
				c-0.053,0.032-0.102,0.068-0.157,0.1c-0.119,0.069-0.243,0.131-0.372,0.188c-0.035,0.017-0.076,0.032-0.114,0.05
				c-0.099,0.041-0.203,0.08-0.307,0.115c-0.038,0.014-0.076,0.028-0.116,0.041c-0.066,0.019-0.132,0.038-0.198,0.056
				c-0.053,0.015-0.106,0.029-0.157,0.043c-0.073,0.018-0.149,0.033-0.223,0.048c-0.046,0.009-0.094,0.021-0.145,0.028
				c-0.147,0.026-0.299,0.048-0.451,0.063c-0.043,0.005-0.086,0.007-0.129,0.011c-0.092,0.008-0.183,0.013-0.274,0.02
				c-0.058,0.001-0.116,0.004-0.177,0.004c-0.066,0.001-0.135,0.001-0.203,0c-0.066,0-0.127-0.002-0.192-0.004
				c-0.063-0.004-0.13-0.007-0.195-0.012c-0.061-0.004-0.119-0.009-0.18-0.015c-0.066-0.007-0.13-0.015-0.195-0.021
				c-0.062-0.009-0.122-0.018-0.186-0.026c-0.065-0.011-0.129-0.023-0.195-0.035c-0.058-0.011-0.116-0.022-0.175-0.036
				c-0.078-0.016-0.157-0.035-0.232-0.056c-0.049-0.015-0.097-0.024-0.145-0.039c-0.145-0.042-0.284-0.089-0.421-0.143
				c-0.073-0.027-0.145-0.061-0.216-0.091c-0.027-0.013-0.056-0.024-0.083-0.037c-0.1-0.048-0.198-0.1-0.292-0.153
				c-0.775-0.446-1.163-1.035-1.161-1.622l-0.002,0.979c-0.003,0.589,0.385,1.177,1.16,1.624c0.095,0.054,0.188,0.104,0.287,0.151
				c0.038,0.018,0.078,0.033,0.116,0.051c0.056,0.023,0.109,0.049,0.167,0.071c0.006,0.003,0.013,0.005,0.019,0.007
				c0.137,0.054,0.278,0.101,0.423,0.143c0.013,0.004,0.025,0.009,0.035,0.013c0.036,0.009,0.071,0.016,0.106,0.025
				c0.079,0.02,0.157,0.04,0.238,0.058c0.023,0.007,0.046,0.013,0.068,0.017c0.031,0.008,0.063,0.011,0.097,0.018
				c0.071,0.013,0.142,0.027,0.213,0.038c0.025,0.003,0.054,0.009,0.081,0.013c0.028,0.005,0.059,0.007,0.089,0.011
				c0.065,0.007,0.132,0.015,0.197,0.021c0.033,0.004,0.063,0.007,0.097,0.011c0.028,0.002,0.059,0.003,0.089,0.006
				c0.065,0.003,0.132,0.006,0.2,0.01c0.033,0.002,0.065,0.005,0.099,0.005c0.025,0.001,0.051,0,0.079,0
				c0.07,0.001,0.145,0,0.218-0.001c0.035-0.002,0.07,0.001,0.106,0c0.021-0.002,0.043-0.004,0.063-0.005
				c0.089-0.004,0.177-0.011,0.266-0.019c0.036-0.002,0.071-0.003,0.109-0.006c0.008-0.001,0.021-0.004,0.03-0.005
				c0.152-0.016,0.302-0.037,0.451-0.063c0.005-0.001,0.013-0.002,0.018-0.004c0.041-0.006,0.081-0.018,0.119-0.023
				c0.076-0.017,0.154-0.031,0.229-0.05c0.051-0.013,0.099-0.026,0.151-0.041c0.068-0.019,0.138-0.037,0.206-0.058
				c0.013-0.005,0.027-0.008,0.04-0.013c0.025-0.008,0.048-0.018,0.071-0.025c0.106-0.037,0.208-0.076,0.312-0.12
				c0.035-0.015,0.073-0.029,0.111-0.047c0.13-0.059,0.254-0.118,0.373-0.188c0.015-0.01,0.03-0.019,0.048-0.027
				c0.035-0.022,0.066-0.044,0.099-0.067c0.049-0.033,0.1-0.063,0.145-0.096c0.036-0.027,0.068-0.055,0.104-0.083
				c0.043-0.034,0.088-0.068,0.126-0.105c0.008-0.006,0.016-0.011,0.023-0.018c0.051-0.047,0.096-0.095,0.14-0.143
				c0.012-0.011,0.022-0.023,0.03-0.034c0.025-0.029,0.053-0.058,0.073-0.088c0.01-0.012,0.018-0.024,0.027-0.037
				c0.033-0.045,0.063-0.091,0.095-0.138c0.01-0.019,0.027-0.039,0.037-0.06c0.006-0.01,0.011-0.021,0.016-0.029
				c0.021-0.042,0.041-0.083,0.059-0.124c0.007-0.024,0.022-0.047,0.03-0.069c0.005-0.008,0.005-0.016,0.008-0.024
				c0.013-0.039,0.025-0.081,0.035-0.123c0.005-0.024,0.016-0.05,0.022-0.074c0-0.007,0-0.015,0-0.021
				c0.008-0.041,0.013-0.084,0.016-0.126c0.003-0.026,0.01-0.053,0.01-0.081c0-0.01,0-0.022,0-0.032l0.003-0.98
				C22.269,23.833,22.261,23.868,22.259,23.903z"/>
		</g>
	</mask>
	<path fill="#9D9D9C" d="M22.259,23.903c-0.003,0.045-0.006,0.091-0.016,0.134c-0.005,0.031-0.016,0.063-0.022,0.095
		c-0.011,0.042-0.021,0.082-0.036,0.124c-0.01,0.03-0.025,0.061-0.038,0.09c-0.02,0.043-0.038,0.087-0.061,0.128
		c-0.016,0.029-0.033,0.058-0.051,0.087c-0.027,0.045-0.059,0.09-0.091,0.135c-0.033,0.046-0.068,0.092-0.109,0.134
		c-0.008,0.01-0.013,0.019-0.022,0.026c-0.051,0.059-0.109,0.112-0.168,0.167c-0.035,0.032-0.075,0.062-0.113,0.094
		c-0.038,0.03-0.074,0.062-0.117,0.092c-0.04,0.031-0.089,0.06-0.132,0.089c-0.053,0.032-0.102,0.068-0.157,0.1
		c-0.119,0.069-0.243,0.131-0.372,0.188c-0.035,0.017-0.076,0.032-0.114,0.05c-0.099,0.041-0.203,0.08-0.307,0.115
		c-0.038,0.014-0.076,0.028-0.116,0.041c-0.066,0.019-0.132,0.038-0.198,0.056c-0.053,0.015-0.106,0.029-0.157,0.043
		c-0.073,0.018-0.149,0.033-0.223,0.048c-0.046,0.009-0.094,0.021-0.145,0.028c-0.147,0.026-0.299,0.048-0.451,0.063
		c-0.043,0.005-0.086,0.007-0.129,0.011c-0.092,0.008-0.183,0.013-0.274,0.02c-0.058,0.001-0.116,0.004-0.177,0.004
		c-0.066,0.001-0.135,0.001-0.203,0c-0.066,0-0.127-0.002-0.192-0.004c-0.063-0.004-0.13-0.007-0.195-0.012
		c-0.061-0.004-0.119-0.009-0.18-0.015c-0.066-0.007-0.13-0.015-0.195-0.021c-0.062-0.009-0.122-0.018-0.186-0.026
		c-0.065-0.011-0.129-0.023-0.195-0.035c-0.058-0.011-0.116-0.022-0.175-0.036c-0.078-0.016-0.157-0.035-0.232-0.056
		c-0.049-0.015-0.097-0.024-0.145-0.039c-0.145-0.042-0.284-0.089-0.421-0.143c-0.073-0.027-0.145-0.061-0.216-0.091
		c-0.027-0.013-0.056-0.024-0.083-0.037c-0.1-0.048-0.198-0.1-0.292-0.153c-0.775-0.446-1.163-1.035-1.161-1.622l-0.002,0.979
		c-0.003,0.589,0.385,1.177,1.16,1.624c0.095,0.054,0.188,0.104,0.287,0.151c0.038,0.018,0.078,0.033,0.116,0.051
		c0.056,0.023,0.109,0.049,0.167,0.071c0.006,0.003,0.013,0.005,0.019,0.007c0.137,0.054,0.278,0.101,0.423,0.143
		c0.013,0.004,0.025,0.009,0.035,0.013c0.036,0.009,0.071,0.016,0.106,0.025c0.079,0.02,0.157,0.04,0.238,0.058
		c0.023,0.007,0.046,0.013,0.068,0.017c0.031,0.008,0.063,0.011,0.097,0.018c0.071,0.013,0.142,0.027,0.213,0.038
		c0.025,0.003,0.054,0.009,0.081,0.013c0.028,0.005,0.059,0.007,0.089,0.011c0.065,0.007,0.132,0.015,0.197,0.021
		c0.033,0.004,0.063,0.007,0.097,0.011c0.028,0.002,0.059,0.003,0.089,0.006c0.065,0.003,0.132,0.006,0.2,0.01
		c0.033,0.002,0.065,0.005,0.099,0.005c0.025,0.001,0.051,0,0.079,0c0.07,0.001,0.145,0,0.218-0.001c0.035-0.002,0.07,0.001,0.106,0
		c0.021-0.002,0.043-0.004,0.063-0.005c0.089-0.004,0.177-0.011,0.266-0.019c0.036-0.002,0.071-0.003,0.109-0.006
		c0.008-0.001,0.021-0.004,0.03-0.005c0.152-0.016,0.302-0.037,0.451-0.063c0.005-0.001,0.013-0.002,0.018-0.004
		c0.041-0.006,0.081-0.018,0.119-0.023c0.076-0.017,0.154-0.031,0.229-0.05c0.051-0.013,0.099-0.026,0.151-0.041
		c0.068-0.019,0.138-0.037,0.206-0.058c0.013-0.005,0.027-0.008,0.04-0.013c0.025-0.008,0.048-0.018,0.071-0.025
		c0.106-0.037,0.208-0.076,0.312-0.12c0.035-0.015,0.073-0.029,0.111-0.047c0.13-0.059,0.254-0.118,0.373-0.188
		c0.015-0.01,0.03-0.019,0.048-0.027c0.035-0.022,0.066-0.044,0.099-0.067c0.049-0.033,0.1-0.063,0.145-0.096
		c0.036-0.027,0.068-0.055,0.104-0.083c0.043-0.034,0.088-0.068,0.126-0.105c0.008-0.006,0.016-0.011,0.023-0.018
		c0.051-0.047,0.096-0.095,0.14-0.143c0.012-0.011,0.022-0.023,0.03-0.034c0.025-0.029,0.053-0.058,0.073-0.088
		c0.01-0.012,0.018-0.024,0.027-0.037c0.033-0.045,0.063-0.091,0.095-0.138c0.01-0.019,0.027-0.039,0.037-0.06
		c0.006-0.01,0.011-0.021,0.016-0.029c0.021-0.042,0.041-0.083,0.059-0.124c0.007-0.024,0.022-0.047,0.03-0.069
		c0.005-0.008,0.005-0.016,0.008-0.024c0.013-0.039,0.025-0.081,0.035-0.123c0.005-0.024,0.016-0.05,0.022-0.074
		c0-0.007,0-0.015,0-0.021c0.008-0.041,0.013-0.084,0.016-0.126c0.003-0.026,0.01-0.053,0.01-0.081c0-0.01,0-0.022,0-0.032
		l0.003-0.98C22.269,23.833,22.261,23.868,22.259,23.903z"/>
	<g>
		<path fill="#9D9D9C" d="M21.105,22.171c1.543,0.893,1.551,2.336,0.02,3.226c-1.533,0.894-4.029,0.894-5.573,0
			c-1.541-0.89-1.551-2.333-0.016-3.226C17.067,21.281,19.562,21.281,21.105,22.171z"/>
	</g>
	<path fill="#706F6E" d="M21.105,20.832c1.543,0.892,1.551,2.337,0.02,3.228c-1.533,0.891-4.029,0.891-5.573,0
		c-1.541-0.891-1.551-2.336-0.016-3.228C17.067,19.942,19.562,19.942,21.105,20.832z"/>
	<path fill="none" d="M21.163,18.705c-0.002,0.034-0.005,0.064-0.01,0.098c-0.005,0.021-0.01,0.045-0.018,0.066
		c-0.008,0.031-0.016,0.06-0.025,0.09c-0.008,0.022-0.018,0.045-0.028,0.067c-0.013,0.03-0.025,0.061-0.043,0.091
		c-0.01,0.021-0.022,0.04-0.035,0.063c-0.023,0.031-0.046,0.065-0.068,0.099c-0.016,0.019-0.03,0.038-0.046,0.057
		c-0.035,0.045-0.076,0.088-0.122,0.13c-0.015,0.016-0.03,0.031-0.045,0.047c-0.03,0.025-0.062,0.052-0.094,0.074
		c-0.023,0.021-0.046,0.039-0.071,0.06c-0.033,0.022-0.068,0.045-0.104,0.068c-0.036,0.023-0.071,0.047-0.109,0.07
		c-0.084,0.048-0.175,0.092-0.267,0.134c-0.027,0.013-0.056,0.024-0.083,0.035c-0.071,0.029-0.143,0.058-0.216,0.083
		c-0.03,0.01-0.058,0.021-0.089,0.029c-0.045,0.015-0.091,0.027-0.139,0.04c-0.038,0.012-0.079,0.021-0.119,0.032
		c-0.049,0.013-0.1,0.021-0.147,0.031c-0.038,0.008-0.076,0.017-0.114,0.022c-0.106,0.02-0.215,0.034-0.321,0.046
		c-0.033,0.003-0.063,0.005-0.094,0.008c-0.068,0.006-0.137,0.012-0.203,0.014c-0.038,0.001-0.076,0.001-0.114,0.003
		c-0.053,0.001-0.106,0.001-0.162,0.001c-0.043-0.001-0.086-0.003-0.129-0.004c-0.049-0.002-0.097-0.004-0.143-0.008
		c-0.045-0.003-0.091-0.007-0.134-0.011c-0.048-0.005-0.094-0.011-0.14-0.016c-0.043-0.005-0.086-0.012-0.127-0.018
		c-0.051-0.009-0.101-0.018-0.151-0.026c-0.038-0.008-0.079-0.017-0.119-0.024c-0.059-0.013-0.117-0.027-0.173-0.043
		c-0.033-0.009-0.068-0.018-0.102-0.026c-0.104-0.03-0.205-0.064-0.304-0.103c-0.013-0.006-0.025-0.012-0.038-0.017
		c-0.135-0.055-0.267-0.115-0.388-0.186c-0.558-0.323-0.837-0.746-0.837-1.17l-0.007,3.429c-0.003,0.423,0.275,0.848,0.836,1.17
		c0.122,0.069,0.251,0.132,0.386,0.185c0.01,0.005,0.015,0.009,0.022,0.013c0.005,0.001,0.01,0.003,0.015,0.005
		c0.1,0.038,0.203,0.072,0.308,0.103c0.01,0.003,0.015,0.007,0.024,0.009c0.021,0.007,0.046,0.011,0.066,0.019
		c0.061,0.014,0.122,0.028,0.18,0.041c0.018,0.006,0.033,0.011,0.049,0.013c0.025,0.006,0.05,0.008,0.073,0.013
		c0.048,0.009,0.096,0.018,0.146,0.025c0.023,0.003,0.041,0.007,0.062,0.012c0.022,0.003,0.045,0.004,0.068,0.008
		c0.045,0.005,0.094,0.01,0.142,0.015c0.021,0.003,0.046,0.007,0.068,0.008c0.021,0.001,0.041,0.001,0.063,0.003
		c0.048,0.005,0.094,0.007,0.142,0.009c0.025,0,0.049,0.004,0.074,0.004c0.018,0,0.038,0,0.056,0c0.053,0,0.108,0,0.162-0.002
		c0.025,0,0.048,0.002,0.073,0c0.013-0.001,0.025-0.002,0.041-0.002c0.068-0.004,0.134-0.009,0.2-0.014
		c0.025-0.002,0.051-0.003,0.073-0.006c0.008-0.001,0.016-0.002,0.022-0.002c0.109-0.013,0.219-0.027,0.325-0.047
		c0.005,0,0.01,0,0.015-0.002c0.025-0.003,0.054-0.011,0.081-0.018c0.056-0.011,0.111-0.021,0.165-0.034
		c0.04-0.01,0.076-0.021,0.114-0.03c0.048-0.014,0.096-0.026,0.145-0.042c0.01-0.002,0.02-0.005,0.03-0.009
		c0.018-0.006,0.035-0.014,0.053-0.019c0.076-0.027,0.149-0.054,0.221-0.085c0.028-0.012,0.054-0.021,0.078-0.033
		c0.095-0.043,0.186-0.086,0.27-0.136c0.013-0.008,0.025-0.015,0.035-0.021c0.022-0.014,0.043-0.028,0.063-0.044
		c0.04-0.024,0.078-0.048,0.114-0.076c0.025-0.017,0.045-0.035,0.068-0.053c0.035-0.027,0.068-0.054,0.099-0.081
		c0.005-0.006,0.01-0.01,0.015-0.012c0.011-0.011,0.016-0.02,0.025-0.028c0.046-0.045,0.089-0.09,0.127-0.136
		c0.008-0.01,0.018-0.018,0.023-0.027c0.007-0.008,0.013-0.017,0.02-0.026c0.025-0.033,0.049-0.07,0.068-0.105
		c0.011-0.013,0.019-0.024,0.028-0.038c0.003-0.005,0.005-0.012,0.008-0.018c0.015-0.032,0.03-0.063,0.043-0.093
		c0.008-0.017,0.018-0.033,0.022-0.051c0.003-0.006,0.003-0.011,0.005-0.017c0.011-0.03,0.019-0.06,0.025-0.09
		c0.006-0.018,0.013-0.034,0.019-0.053c0-0.004,0-0.009,0-0.013c0.005-0.032,0.007-0.064,0.01-0.097
		c0.003-0.018,0.008-0.035,0.008-0.053c0-0.009,0-0.019,0-0.024l0.01-3.431C21.171,18.656,21.166,18.68,21.163,18.705z"/>
	<g>
		<path fill="#9D9D9C" d="M20.332,17.457c1.112,0.643,1.118,1.683,0.013,2.327c-1.105,0.64-2.899,0.64-4.015-0.002
			c-1.11-0.643-1.115-1.683-0.013-2.325C17.425,16.815,19.222,16.815,20.332,17.457z"/>
	</g>
	<g>
		<g enable-background="new    ">
			<g>
				<polygon fill="#706F6E" points="22.831,14.901 22.818,19.8 18.335,22.404 18.35,17.507 				"/>
			</g>
			<g>
				<polygon fill="#706F6E" points="18.35,17.507 18.335,22.404 13.823,19.8 13.836,14.901 				"/>
			</g>
			<g>
				<polygon fill="#706F6E" points="22.831,14.901 18.35,17.507 13.836,14.901 18.319,12.297 				"/>
			</g>
		</g>
	</g>
	<path fill="#9D9D9C" d="M21.163,11.26c-0.002,0.032-0.005,0.066-0.01,0.098c-0.005,0.021-0.01,0.043-0.018,0.064
		c-0.008,0.032-0.016,0.062-0.025,0.092c-0.008,0.022-0.018,0.044-0.028,0.065c-0.013,0.032-0.025,0.063-0.043,0.093
		c-0.01,0.021-0.022,0.039-0.035,0.059c-0.021,0.034-0.043,0.068-0.068,0.103c-0.016,0.019-0.03,0.039-0.046,0.057
		c-0.035,0.043-0.076,0.086-0.119,0.128c-0.016,0.017-0.033,0.033-0.051,0.049c-0.025,0.022-0.053,0.045-0.081,0.068
		c-0.028,0.021-0.056,0.044-0.086,0.065c-0.025,0.021-0.056,0.039-0.086,0.059c-0.041,0.027-0.079,0.055-0.122,0.08
		c-0.084,0.048-0.173,0.091-0.264,0.132c-0.03,0.014-0.059,0.026-0.091,0.037c-0.068,0.031-0.138,0.057-0.208,0.08
		c-0.03,0.012-0.061,0.023-0.094,0.033c-0.043,0.013-0.084,0.024-0.127,0.037c-0.043,0.011-0.086,0.023-0.132,0.034
		c-0.048,0.011-0.099,0.021-0.149,0.031c-0.035,0.008-0.071,0.016-0.106,0.022c-0.106,0.019-0.213,0.033-0.322,0.045
		c-0.038,0.005-0.076,0.006-0.116,0.01c-0.059,0.005-0.116,0.009-0.175,0.012c-0.046,0.002-0.089,0.004-0.132,0.004
		c-0.048,0.001-0.099,0.001-0.149,0.001c-0.043-0.001-0.089-0.003-0.135-0.004c-0.046-0.002-0.091-0.005-0.137-0.008
		c-0.048-0.003-0.094-0.007-0.142-0.013c-0.043-0.002-0.084-0.009-0.127-0.013c-0.048-0.007-0.097-0.014-0.145-0.021
		c-0.046-0.007-0.091-0.015-0.135-0.023c-0.043-0.008-0.086-0.016-0.126-0.024c-0.062-0.014-0.117-0.029-0.175-0.044
		c-0.033-0.009-0.066-0.017-0.097-0.025c-0.104-0.03-0.205-0.063-0.305-0.103c-0.015-0.006-0.027-0.013-0.043-0.02
		c-0.134-0.053-0.264-0.114-0.385-0.184c-0.558-0.322-0.837-0.746-0.837-1.17l-0.007,3.43c-0.003,0.424,0.275,0.848,0.836,1.17
		c0.122,0.07,0.254,0.133,0.391,0.188c0.005,0.002,0.013,0.006,0.018,0.01c0.005,0.001,0.01,0.001,0.015,0.003
		c0.1,0.039,0.201,0.074,0.308,0.104c0.007,0.003,0.015,0.007,0.024,0.009c0.023,0.006,0.049,0.012,0.071,0.017
		c0.059,0.017,0.117,0.032,0.178,0.045c0.015,0.002,0.03,0.009,0.046,0.011c0.025,0.004,0.048,0.008,0.07,0.013
		c0.051,0.009,0.102,0.018,0.152,0.025c0.021,0.004,0.04,0.009,0.059,0.012c0.022,0.001,0.045,0.004,0.065,0.006
		c0.048,0.007,0.097,0.012,0.145,0.016c0.022,0.003,0.046,0.008,0.068,0.009c0.021,0.003,0.041,0.003,0.061,0.004
		c0.049,0.003,0.097,0.005,0.145,0.008c0.025,0,0.049,0.002,0.074,0.004c0.018,0,0.038-0.002,0.056,0c0.053,0,0.108,0,0.164-0.002
		c0.023,0,0.046,0,0.071,0c0.013-0.001,0.025-0.002,0.038-0.004c0.071-0.002,0.137-0.007,0.205-0.012
		c0.023-0.002,0.049-0.004,0.071-0.007c0.008,0,0.016-0.001,0.022-0.003c0.106-0.01,0.216-0.023,0.319-0.043
		c0.008-0.002,0.013-0.002,0.021-0.002c0.033-0.007,0.068-0.016,0.102-0.023c0.048-0.01,0.097-0.019,0.145-0.03
		c0.04-0.009,0.078-0.021,0.119-0.033c0.046-0.013,0.094-0.024,0.14-0.039c0.01-0.004,0.02-0.005,0.03-0.009
		c0.018-0.006,0.035-0.014,0.053-0.019c0.076-0.025,0.147-0.055,0.221-0.084c0.025-0.012,0.054-0.022,0.081-0.037
		c0.094-0.04,0.183-0.085,0.267-0.133c0.013-0.009,0.025-0.014,0.035-0.021c0.025-0.015,0.048-0.031,0.071-0.047
		c0.035-0.024,0.07-0.046,0.106-0.071c0.025-0.019,0.045-0.038,0.07-0.057c0.033-0.025,0.066-0.052,0.094-0.078
		c0.008-0.006,0.013-0.008,0.018-0.013c0.011-0.01,0.019-0.02,0.025-0.028c0.046-0.044,0.089-0.09,0.127-0.136
		c0.008-0.01,0.018-0.018,0.023-0.026c0.007-0.009,0.013-0.017,0.018-0.025c0.025-0.034,0.051-0.069,0.07-0.105
		c0.011-0.014,0.019-0.025,0.028-0.038c0.003-0.007,0.005-0.014,0.008-0.019c0.015-0.032,0.03-0.063,0.043-0.094
		c0.008-0.017,0.018-0.032,0.022-0.05c0.003-0.005,0.003-0.011,0.005-0.017c0.011-0.03,0.019-0.06,0.025-0.09
		c0.006-0.018,0.013-0.034,0.019-0.053c0-0.004,0-0.009,0-0.015c0.005-0.031,0.007-0.063,0.01-0.096
		c0.003-0.017,0.008-0.034,0.008-0.052c0-0.009,0-0.017,0-0.024l0.01-3.431C21.171,11.209,21.166,11.234,21.163,11.26z"/>
	<defs>
		<filter id="Adobe_OpacityMaskFilter_6_" filterUnits="userSpaceOnUse" x="15.486" y="11.166" width="5.685" height="5.081">
			<feFlood  style="flood-color:white;flood-opacity:1" result="back"/>
			<feBlend  in="SourceGraphic" in2="back" mode="normal"/>
		</filter>
	</defs>
	<mask maskUnits="userSpaceOnUse" x="15.486" y="11.166" width="5.685" height="5.081" id="SVGID_7_">
		<g filter="url(#Adobe_OpacityMaskFilter_6_)">
			<defs>
				<filter id="Adobe_OpacityMaskFilter_7_" filterUnits="userSpaceOnUse" x="49.919" y="7.871" width="7.808" height="6.975">
					<feFlood  style="flood-color:white;flood-opacity:1" result="back"/>
					<feBlend  in="SourceGraphic" in2="back" mode="normal"/>
				</filter>
			</defs>
			<mask maskUnits="userSpaceOnUse" x="49.919" y="7.871" width="7.808" height="6.975" id="SVGID_7_">
				<g filter="url(#Adobe_OpacityMaskFilter_7_)">
				</g>
			</mask>
			<linearGradient id="SVGID_8_" gradientUnits="userSpaceOnUse" x1="49.9189" y1="11.3584" x2="57.7266" y2="11.3584">
				<stop  offset="0" style="stop-color:#666666"/>
				<stop  offset="0.05" style="stop-color:#888888"/>
				<stop  offset="0.1132" style="stop-color:#ADADAD"/>
				<stop  offset="0.1799" style="stop-color:#CBCBCB"/>
				<stop  offset="0.2499" style="stop-color:#E2E2E2"/>
				<stop  offset="0.3248" style="stop-color:#F2F2F2"/>
				<stop  offset="0.408" style="stop-color:#FCFCFC"/>
				<stop  offset="0.516" style="stop-color:#FFFFFF"/>
				<stop  offset="0.6512" style="stop-color:#FDFDFD"/>
				<stop  offset="0.7287" style="stop-color:#F4F4F4"/>
				<stop  offset="0.7916" style="stop-color:#E6E6E6"/>
				<stop  offset="0.8467" style="stop-color:#D3D3D3"/>
				<stop  offset="0.8966" style="stop-color:#B9B9B9"/>
				<stop  offset="0.9429" style="stop-color:#999999"/>
				<stop  offset="0.9854" style="stop-color:#747474"/>
				<stop  offset="1" style="stop-color:#666666"/>
			</linearGradient>
			<path mask="url(#SVGID_7_)" fill="url(#SVGID_8_)" d="M57.716,7.999c-0.002,0.044-0.007,0.09-0.015,0.134
				c-0.006,0.03-0.015,0.06-0.022,0.089c-0.01,0.042-0.021,0.083-0.036,0.125c-0.009,0.03-0.024,0.061-0.038,0.091
				c-0.018,0.042-0.036,0.084-0.059,0.127c-0.015,0.027-0.033,0.053-0.049,0.08c-0.029,0.047-0.06,0.094-0.094,0.14
				c-0.021,0.026-0.042,0.053-0.063,0.078c-0.05,0.06-0.104,0.118-0.163,0.176c-0.021,0.021-0.044,0.045-0.068,0.067
				c-0.035,0.031-0.075,0.062-0.113,0.093c-0.037,0.03-0.075,0.061-0.116,0.091c-0.038,0.028-0.079,0.054-0.12,0.08
				c-0.055,0.037-0.107,0.073-0.167,0.108c-0.115,0.066-0.236,0.125-0.361,0.182c-0.042,0.02-0.082,0.037-0.124,0.053
				c-0.095,0.04-0.189,0.076-0.286,0.109c-0.044,0.015-0.086,0.031-0.13,0.045c-0.058,0.017-0.113,0.032-0.173,0.049
				c-0.059,0.016-0.119,0.033-0.181,0.048c-0.068,0.016-0.138,0.029-0.206,0.043c-0.049,0.01-0.099,0.021-0.148,0.031
				c-0.145,0.025-0.29,0.044-0.439,0.061c-0.053,0.006-0.106,0.008-0.16,0.013c-0.081,0.007-0.161,0.013-0.242,0.016
				c-0.061,0.003-0.12,0.005-0.18,0.005c-0.067,0.002-0.136,0.002-0.204,0.002c-0.062-0.002-0.124-0.004-0.186-0.006
				c-0.064-0.002-0.127-0.005-0.189-0.01c-0.065-0.005-0.129-0.01-0.194-0.017c-0.057-0.004-0.113-0.011-0.172-0.018
				c-0.066-0.009-0.133-0.019-0.2-0.028c-0.063-0.01-0.123-0.022-0.185-0.033c-0.059-0.01-0.117-0.021-0.174-0.034
				c-0.082-0.019-0.161-0.039-0.241-0.06c-0.043-0.012-0.088-0.023-0.131-0.035c-0.143-0.042-0.282-0.087-0.418-0.141
				c-0.021-0.008-0.039-0.017-0.059-0.025c-0.185-0.075-0.361-0.158-0.527-0.253c-0.768-0.443-1.151-1.025-1.15-1.605l-0.012,4.708
				c-0.001,0.582,0.382,1.164,1.148,1.606c0.168,0.097,0.349,0.182,0.536,0.258c0.01,0.003,0.019,0.009,0.026,0.013
				c0.008,0.001,0.013,0.003,0.019,0.004c0.137,0.054,0.277,0.102,0.422,0.144c0.013,0.004,0.021,0.008,0.034,0.012
				c0.032,0.008,0.066,0.015,0.098,0.024c0.082,0.021,0.163,0.042,0.245,0.06c0.021,0.004,0.041,0.012,0.063,0.016
				c0.032,0.006,0.063,0.01,0.097,0.017c0.068,0.013,0.139,0.025,0.208,0.036c0.028,0.004,0.055,0.011,0.082,0.015
				c0.029,0.003,0.06,0.005,0.09,0.009c0.065,0.008,0.132,0.016,0.198,0.021c0.032,0.004,0.061,0.009,0.092,0.011
				c0.029,0.003,0.057,0.003,0.086,0.005c0.066,0.005,0.132,0.008,0.198,0.011c0.034,0,0.066,0.004,0.101,0.005
				c0.024,0.001,0.051-0.001,0.075,0c0.075,0.001,0.149,0,0.227-0.001c0.033,0,0.064,0,0.097,0c0.019-0.001,0.036-0.003,0.055-0.004
				c0.095-0.004,0.188-0.01,0.28-0.018c0.032-0.003,0.065-0.004,0.098-0.008c0.01-0.001,0.021-0.002,0.03-0.003
				c0.148-0.015,0.296-0.035,0.441-0.061c0.009-0.002,0.017-0.002,0.025-0.003c0.046-0.008,0.094-0.021,0.139-0.031
				c0.066-0.013,0.134-0.026,0.198-0.042c0.056-0.013,0.11-0.029,0.165-0.045c0.063-0.018,0.128-0.035,0.19-0.054
				c0.014-0.005,0.028-0.008,0.043-0.013c0.024-0.008,0.048-0.018,0.071-0.027c0.104-0.035,0.205-0.073,0.304-0.115
				c0.037-0.016,0.075-0.031,0.112-0.048c0.127-0.056,0.25-0.117,0.365-0.185c0.017-0.011,0.033-0.019,0.049-0.029
				c0.033-0.021,0.064-0.043,0.097-0.065c0.05-0.032,0.1-0.063,0.146-0.097c0.034-0.025,0.064-0.051,0.098-0.077
				c0.046-0.035,0.09-0.072,0.13-0.108c0.008-0.007,0.017-0.011,0.023-0.018c0.014-0.013,0.022-0.027,0.036-0.039
				c0.063-0.061,0.12-0.123,0.173-0.187c0.01-0.012,0.022-0.024,0.031-0.035c0.01-0.012,0.017-0.023,0.024-0.035
				c0.036-0.048,0.069-0.097,0.098-0.145c0.012-0.018,0.025-0.034,0.036-0.052c0.004-0.01,0.008-0.019,0.013-0.027
				c0.021-0.042,0.041-0.084,0.059-0.127c0.011-0.022,0.024-0.044,0.032-0.067c0.003-0.008,0.004-0.017,0.007-0.024
				c0.014-0.041,0.024-0.082,0.035-0.123c0.006-0.025,0.016-0.048,0.021-0.073c0.001-0.006,0.001-0.012,0.002-0.018
				c0.007-0.044,0.012-0.088,0.015-0.133c0.003-0.024,0.009-0.048,0.01-0.073c0-0.012,0-0.022,0-0.034l0.014-4.708
				C57.726,7.929,57.719,7.963,57.716,7.999z"/>
		</g>
	</mask>
	<radialGradient id="SVGID_9_" cx="18.3286" cy="13.7065" r="2.6956" gradientUnits="userSpaceOnUse">
		<stop  offset="0" style="stop-color:#FFFFFF"/>
		<stop  offset="1" style="stop-color:#000000"/>
	</radialGradient>
	<path opacity="0" fill="url(#SVGID_9_)" d="M21.163,11.26c-0.002,0.032-0.005,0.066-0.01,0.098
		c-0.005,0.021-0.01,0.043-0.018,0.064c-0.008,0.032-0.016,0.062-0.025,0.092c-0.008,0.022-0.018,0.044-0.028,0.065
		c-0.013,0.032-0.025,0.063-0.043,0.093c-0.01,0.021-0.022,0.039-0.035,0.059c-0.021,0.034-0.043,0.068-0.068,0.103
		c-0.016,0.019-0.03,0.039-0.046,0.057c-0.035,0.043-0.076,0.086-0.119,0.128c-0.016,0.017-0.033,0.033-0.051,0.049
		c-0.025,0.022-0.053,0.045-0.081,0.068c-0.028,0.021-0.056,0.044-0.086,0.065c-0.025,0.021-0.056,0.039-0.086,0.059
		c-0.041,0.027-0.079,0.055-0.122,0.08c-0.084,0.048-0.173,0.091-0.264,0.132c-0.03,0.014-0.059,0.026-0.091,0.037
		c-0.068,0.031-0.138,0.057-0.208,0.08c-0.03,0.012-0.061,0.023-0.094,0.033c-0.043,0.013-0.084,0.024-0.127,0.037
		c-0.043,0.011-0.086,0.023-0.132,0.034c-0.048,0.011-0.099,0.021-0.149,0.031c-0.035,0.008-0.071,0.016-0.106,0.022
		c-0.106,0.019-0.213,0.033-0.322,0.045c-0.038,0.005-0.076,0.006-0.116,0.01c-0.059,0.005-0.116,0.009-0.175,0.012
		c-0.046,0.002-0.089,0.004-0.132,0.004c-0.048,0.001-0.099,0.001-0.149,0.001c-0.043-0.001-0.089-0.003-0.135-0.004
		c-0.046-0.002-0.091-0.005-0.137-0.008c-0.048-0.003-0.094-0.007-0.142-0.013c-0.043-0.002-0.084-0.009-0.127-0.013
		c-0.048-0.007-0.097-0.014-0.145-0.021c-0.046-0.007-0.091-0.015-0.135-0.023c-0.043-0.008-0.086-0.016-0.126-0.024
		c-0.062-0.014-0.117-0.029-0.175-0.044c-0.033-0.009-0.066-0.017-0.097-0.025c-0.104-0.03-0.205-0.063-0.305-0.103
		c-0.015-0.006-0.027-0.013-0.043-0.02c-0.134-0.053-0.264-0.114-0.385-0.184c-0.558-0.322-0.837-0.746-0.837-1.17l-0.007,3.43
		c-0.003,0.424,0.275,0.848,0.836,1.17c0.122,0.07,0.254,0.133,0.391,0.188c0.005,0.002,0.013,0.006,0.018,0.01
		c0.005,0.001,0.01,0.001,0.015,0.003c0.1,0.039,0.201,0.074,0.308,0.104c0.007,0.003,0.015,0.007,0.024,0.009
		c0.023,0.006,0.049,0.012,0.071,0.017c0.059,0.017,0.117,0.032,0.178,0.045c0.015,0.002,0.03,0.009,0.046,0.011
		c0.025,0.004,0.048,0.008,0.07,0.013c0.051,0.009,0.102,0.018,0.152,0.025c0.021,0.004,0.04,0.009,0.059,0.012
		c0.022,0.001,0.045,0.004,0.065,0.006c0.048,0.007,0.097,0.012,0.145,0.016c0.022,0.003,0.046,0.008,0.068,0.009
		c0.021,0.003,0.041,0.003,0.061,0.004c0.049,0.003,0.097,0.005,0.145,0.008c0.025,0,0.049,0.002,0.074,0.004
		c0.018,0,0.038-0.002,0.056,0c0.053,0,0.108,0,0.164-0.002c0.023,0,0.046,0,0.071,0c0.013-0.001,0.025-0.002,0.038-0.004
		c0.071-0.002,0.137-0.007,0.205-0.012c0.023-0.002,0.049-0.004,0.071-0.007c0.008,0,0.016-0.001,0.022-0.003
		c0.106-0.01,0.216-0.023,0.319-0.043c0.008-0.002,0.013-0.002,0.021-0.002c0.033-0.007,0.068-0.016,0.102-0.023
		c0.048-0.01,0.097-0.019,0.145-0.03c0.04-0.009,0.078-0.021,0.119-0.033c0.046-0.013,0.094-0.024,0.14-0.039
		c0.01-0.004,0.02-0.005,0.03-0.009c0.018-0.006,0.035-0.014,0.053-0.019c0.076-0.025,0.147-0.055,0.221-0.084
		c0.025-0.012,0.054-0.022,0.081-0.037c0.094-0.04,0.183-0.085,0.267-0.133c0.013-0.009,0.025-0.014,0.035-0.021
		c0.025-0.015,0.048-0.031,0.071-0.047c0.035-0.024,0.07-0.046,0.106-0.071c0.025-0.019,0.045-0.038,0.07-0.057
		c0.033-0.025,0.066-0.052,0.094-0.078c0.008-0.006,0.013-0.008,0.018-0.013c0.011-0.01,0.019-0.02,0.025-0.028
		c0.046-0.044,0.089-0.09,0.127-0.136c0.008-0.01,0.018-0.018,0.023-0.026c0.007-0.009,0.013-0.017,0.018-0.025
		c0.025-0.034,0.051-0.069,0.07-0.105c0.011-0.014,0.019-0.025,0.028-0.038c0.003-0.007,0.005-0.014,0.008-0.019
		c0.015-0.032,0.03-0.063,0.043-0.094c0.008-0.017,0.018-0.032,0.022-0.05c0.003-0.005,0.003-0.011,0.005-0.017
		c0.011-0.03,0.019-0.06,0.025-0.09c0.006-0.018,0.013-0.034,0.019-0.053c0-0.004,0-0.009,0-0.015
		c0.005-0.031,0.007-0.063,0.01-0.096c0.003-0.017,0.008-0.034,0.008-0.052c0-0.009,0-0.017,0-0.024l0.01-3.431
		C21.171,11.209,21.166,11.234,21.163,11.26z"/>
	<g>
		<path fill="#706F6E" d="M20.332,10.011c1.112,0.644,1.118,1.684,0.013,2.328c-1.105,0.641-2.899,0.641-4.015-0.003
			c-1.11-0.642-1.115-1.682-0.013-2.323C17.425,9.37,19.222,9.37,20.332,10.011z"/>
	</g>
</g>
<g>
</g>
<g>
</g>
<g>
</g>
<g>
</g>
<g>
</g>
<g>
</g>
</svg>
