<?xml version="1.0" encoding="utf-8"?>
<!-- Generator: Adobe Illustrator 16.0.0, SVG Export Plug-In . SVG Version: 6.00 Build 0)  -->
<!DOCTYPE svg PUBLIC "-//W3C//DTD SVG 1.1//EN" "http://www.w3.org/Graphics/SVG/1.1/DTD/svg11.dtd">
<svg version="1.1" id="Capa_1" xmlns="http://www.w3.org/2000/svg" xmlns:xlink="http://www.w3.org/1999/xlink" x="0px" y="0px"
	 width="40px" height="40px" viewBox="0 0 40 40" enable-background="new 0 0 40 40" xml:space="preserve">
<g>
	
		<rect x="10.609" y="5.905" transform="matrix(0.9964 0.0851 -0.0851 0.9964 1.7807 -1.8143)" fill="#D5D9DE" width="23.121" height="28.146"/>
	
		<rect x="6.815" y="5.904" transform="matrix(0.9922 -0.1247 0.1247 0.9922 -2.3476 2.4471)" fill="#EAECEE" width="23.12" height="28.147"/>
	<rect x="8.44" y="7.662" fill="#EDEDED" width="23.121" height="28.146"/>
	<path fill="#696E70" d="M35.589,6.177c-0.081-0.096-0.196-0.155-0.32-0.166l-6.964-0.595l-0.127-1.003
		c-0.032-0.259-0.269-0.441-0.525-0.409l-6.461,0.812c-0.025-0.006-0.052-0.012-0.078-0.014l-8.881-0.758
		c-0.256-0.023-0.487,0.174-0.51,0.429l-0.132,1.55L4.713,6.888C4.459,6.919,4.271,7.159,4.305,7.414l3.51,27.926
		c0.017,0.127-0.011,0.249,0.041,0.373C7.929,35.885,8.103,36,8.29,36h23.119c0.261,0,0.472-0.211,0.472-0.471v-0.614l0.912,0.078
		c0.256,0.022,0.488-0.174,0.51-0.429l2.395-28.044C35.709,6.396,35.669,6.272,35.589,6.177z M27.543,6.913H12.07l15.231-1.916
		L27.543,6.913z M12.622,5.022l4.124,0.353l-4.199,0.528L12.622,5.022z M5.298,7.764l2.521-0.317v20.368L5.298,7.764z
		 M32.404,34.014l-0.523-0.045V20.2c0-0.261-0.211-0.472-0.472-0.472s-0.472,0.211-0.472,0.472v14.857H8.762V7.854h22.176v10.146
		c0,0.26,0.211,0.471,0.472,0.471s0.472-0.211,0.472-0.471V7.384c0-0.26-0.211-0.471-0.472-0.471h-2.917l-0.068-0.541l6.295,0.537
		L32.404,34.014z"/>
	<line fill="none" x1="16.549" y1="22.839" x2="23.451" y2="17.161"/>
	<line fill="none" x1="18.375" y1="20" x2="21.625" y2="20"/>
</g>
<g>
	<g>
		<g>
			<rect x="22.747" y="27.8" fill="#706F6E" width="0.881" height="1.209"/>
			<g>
				<polygon fill="#706F6E" points="23.628,28.759 22.747,28.948 22.747,29.009 22.864,29.009 23.628,28.841 				"/>
				<polygon fill="#706F6E" points="23.628,28.542 22.747,28.735 22.747,28.819 23.628,28.626 				"/>
				<polygon fill="#706F6E" points="23.628,28.327 22.747,28.521 22.747,28.604 23.628,28.413 				"/>
				<polygon fill="#706F6E" points="23.628,28.114 22.747,28.306 22.747,28.39 23.628,28.198 				"/>
				<polygon fill="#706F6E" points="23.628,27.899 22.747,28.091 22.747,28.175 23.628,27.983 				"/>
			</g>
			<rect x="22.505" y="27.8" fill="#706F6E" width="1.365" height="0.199"/>
		</g>
		<path fill="#706F6E" d="M23.651,24.522h-0.928v-12.17c0-0.242,0-0.434-0.6-0.434c-0.596,0-0.596,0.191-0.596,0.434v9.186
			c0,0.51-0.199,1.363-1.529,1.363c-1.328,0-1.527-0.854-1.527-1.363v-9.186c0-0.242,0-0.434-0.596-0.434
			c-0.6,0-0.6,0.191-0.6,0.434v12.17h-0.928v-12.17c0-0.51,0.197-1.361,1.527-1.361c1.326,0,1.527,0.852,1.527,1.361v9.186
			c0,0.242,0,0.432,0.596,0.432c0.598,0,0.598-0.189,0.598-0.432v-9.186c0-0.51,0.201-1.361,1.527-1.361
			c1.33,0,1.527,0.852,1.527,1.361V24.522z"/>
		<path fill="#706F6E" d="M18.075,11.259c0.455,0.023,0.746,0.18,0.98,0.4c-0.178-0.293-0.523-0.518-1.18-0.518
			c-1.109,0-1.342,0.639-1.342,1.176V24.3h0.137l0.012-11.939C16.683,11.823,16.94,11.2,18.075,11.259z"/>
		<path fill="#706F6E" d="M22.358,11.259c0.453,0.023,0.744,0.18,0.979,0.4c-0.176-0.293-0.521-0.518-1.18-0.518
			c-1.107,0-1.342,0.639-1.342,1.176v9.418l0.135-0.396l0.016-8.979C20.966,11.823,21.22,11.2,22.358,11.259z"/>
		<rect x="22.403" y="25.22" fill="#706F6E" width="1.568" height="0.301"/>
		<rect x="22.815" y="24.522" fill="#706F6E" width="0.742" height="0.697"/>
		<rect x="16.442" y="24.522" fill="#706F6E" width="0.744" height="0.697"/>
		<rect x="22.403" y="27.499" fill="#706F6E" width="1.568" height="0.301"/>
		<rect x="20.606" y="24.769" fill="#706F6E" width="1.072" height="0.752"/>
		<rect x="20.606" y="27.499" fill="#706F6E" width="1.072" height="0.77"/>
		<g>
			<rect x="16.372" y="27.8" fill="#706F6E" width="0.881" height="1.209"/>
			<g>
				<polygon fill="#706F6E" points="17.253,28.759 16.372,28.948 16.372,29.009 16.493,29.009 17.253,28.841 				"/>
				<polygon fill="#706F6E" points="17.253,28.542 16.372,28.735 16.372,28.819 17.253,28.626 				"/>
				<polygon fill="#706F6E" points="17.253,28.327 16.372,28.521 16.372,28.604 17.253,28.413 				"/>
				<polygon fill="#706F6E" points="17.253,28.114 16.372,28.306 16.372,28.39 17.253,28.198 				"/>
				<polygon fill="#706F6E" points="17.253,27.899 16.372,28.091 16.372,28.175 17.253,27.983 				"/>
			</g>
			<rect x="16.13" y="27.8" fill="#706F6E" width="1.365" height="0.199"/>
		</g>
		<rect x="16.028" y="27.499" fill="#706F6E" width="1.568" height="0.301"/>
		<rect x="16.028" y="25.22" fill="#706F6E" width="1.568" height="0.301"/>
		<rect x="15.437" y="25.521" fill="#706F6E" width="9.127" height="1.406"/>
		<path fill="#706F6E" d="M24.399,27.493h-8.799c-0.266,0-0.482-0.217-0.482-0.482v-0.084h9.764v0.084
			C24.882,27.276,24.665,27.493,24.399,27.493z"/>
	</g>
</g>
<g>
</g>
<g>
</g>
<g>
</g>
<g>
</g>
<g>
</g>
<g>
</g>
</svg>
