<?xml version="1.0" encoding="utf-8"?>
<!-- Generator: Adobe Illustrator 16.0.0, SVG Export Plug-In . SVG Version: 6.00 Build 0)  -->
<!DOCTYPE svg PUBLIC "-//W3C//DTD SVG 1.1//EN" "http://www.w3.org/Graphics/SVG/1.1/DTD/svg11.dtd">
<svg version="1.1" id="Capa_1" xmlns="http://www.w3.org/2000/svg" xmlns:xlink="http://www.w3.org/1999/xlink" x="0px" y="0px"
	 width="100px" height="150px" viewBox="0 0 100 150" enable-background="new 0 0 100 150" xml:space="preserve">
<g>
	<image overflow="visible" width="140" height="567" xlink:href="722F6DF.png"  transform="matrix(0.24 0 0 0.24 24.5664 6.2319)">
	</image>
	<polygon fill="#155FA3" points="3.976,114.782 24.561,124.516 24.561,114.782 	"/>
	<polygon fill="#155FA3" points="3.976,33.748 24.561,23.988 24.561,33.748 	"/>
	<path fill="#76AADB" d="M4.035,33.748h73.714c6.06,0,10.972,3.445,10.972,7.694v65.645c0,4.25-4.912,7.695-10.972,7.695H4.035"/>
</g>
<g>
	<path fill="none" stroke="#FFFFFF" stroke-width="3" stroke-miterlimit="10" d="M64.792,66.213v20.482
		c0,2.635-2.133,4.773-4.769,4.773H39.602l-9.683,10.658V91.469h-6.85c-2.639,0-4.778-2.139-4.778-4.773V66.213
		c0-2.641,2.14-4.775,4.778-4.775h36.947C62.66,61.438,64.792,63.572,64.792,66.213z"/>
	<path fill="none" stroke="#FFFFFF" stroke-width="3" stroke-miterlimit="10" d="M69.707,47.873H32.752
		c-2.636,0-4.769,2.139-4.769,4.778v8.787h32.04c2.636,0,4.769,2.134,4.769,4.775v11.693h4.914c2.639,0,4.778-2.139,4.778-4.773
		V52.651C74.484,50.012,72.346,47.873,69.707,47.873z"/>
	<path fill="none" stroke="#FFFFFF" stroke-width="3" stroke-miterlimit="10" d="M28.951,74.032c1.599,0,2.903,1.299,2.903,2.91
		c0,1.6-1.305,2.904-2.903,2.904c-1.606,0-2.907-1.305-2.907-2.904C26.043,75.331,27.344,74.032,28.951,74.032z"/>
	<path fill="none" stroke="#FFFFFF" stroke-width="3" stroke-miterlimit="10" d="M41.543,74.032c1.606,0,2.903,1.299,2.903,2.91
		c0,1.6-1.297,2.904-2.903,2.904c-1.603,0-2.907-1.305-2.907-2.904C38.636,75.331,39.941,74.032,41.543,74.032z"/>
	<path fill="none" stroke="#FFFFFF" stroke-width="3" stroke-miterlimit="10" d="M54.14,74.032c1.603,0,2.907,1.299,2.907,2.91
		c0,1.6-1.305,2.904-2.907,2.904c-1.606,0-2.907-1.305-2.907-2.904C51.233,75.331,52.534,74.032,54.14,74.032z"/>
</g>
</svg>
