<?xml version="1.0" encoding="utf-8"?>
<!-- Generator: Adobe Illustrator 16.0.0, SVG Export Plug-In . SVG Version: 6.00 Build 0)  -->
<!DOCTYPE svg PUBLIC "-//W3C//DTD SVG 1.1//EN" "http://www.w3.org/Graphics/SVG/1.1/DTD/svg11.dtd">
<svg version="1.1" id="Capa_1" xmlns="http://www.w3.org/2000/svg" xmlns:xlink="http://www.w3.org/1999/xlink" x="0px" y="0px"
	 width="50px" height="20px" viewBox="0 0 50 20" enable-background="new 0 0 50 20" xml:space="preserve">
<path fill="#76AADB" d="M49,16c0,1.657-1.344,3-3,3H4c-1.657,0-3-1.343-3-3V4c0-1.657,1.343-3,3-3h42c1.656,0,3,1.343,3,3V16z"/>
<g>
	<path fill="#FFFFFF" d="M12.851,12.618c-0.256,0.129-0.768,0.256-1.424,0.256c-1.519,0-2.662-0.959-2.662-2.727
		c0-1.687,1.144-2.83,2.814-2.83c0.672,0,1.096,0.145,1.279,0.24L12.69,8.125c-0.264-0.128-0.639-0.224-1.087-0.224
		c-1.264,0-2.103,0.807-2.103,2.223c0,1.319,0.76,2.166,2.07,2.166c0.424,0,0.855-0.088,1.135-0.224L12.851,12.618z"/>
	<path fill="#FFFFFF" d="M17.115,10.827c0,1.432-0.991,2.055-1.927,2.055c-1.048,0-1.855-0.768-1.855-1.989
		c0-1.295,0.848-2.056,1.919-2.056C16.363,8.837,17.115,9.644,17.115,10.827z M14.045,10.868c0,0.847,0.487,1.485,1.175,1.485
		c0.672,0,1.176-0.631,1.176-1.502c0-0.656-0.328-1.487-1.159-1.487C14.404,9.364,14.045,10.132,14.045,10.868z"/>
	<path fill="#FFFFFF" d="M18.005,9.972c0-0.399-0.008-0.727-0.032-1.047h0.616l0.031,0.623h0.023
		c0.217-0.367,0.576-0.711,1.216-0.711c0.528,0,0.928,0.319,1.096,0.775h0.016c0.12-0.216,0.272-0.384,0.433-0.504
		c0.231-0.176,0.487-0.271,0.855-0.271c0.512,0,1.271,0.336,1.271,1.679v2.278h-0.688v-2.19c0-0.743-0.271-1.19-0.839-1.19
		c-0.4,0-0.712,0.296-0.832,0.64c-0.032,0.096-0.057,0.225-0.057,0.352v2.391h-0.688v-2.318c0-0.615-0.271-1.063-0.807-1.063
		c-0.44,0-0.76,0.353-0.872,0.704c-0.04,0.104-0.056,0.224-0.056,0.344v2.334h-0.688V9.972H18.005z"/>
	<path fill="#FFFFFF" d="M25.067,10.986c0.016,0.951,0.625,1.345,1.328,1.345c0.504,0,0.808-0.088,1.07-0.2l0.121,0.503
		c-0.248,0.113-0.672,0.24-1.287,0.24c-1.191,0-1.903-0.783-1.903-1.951c0-1.166,0.687-2.086,1.815-2.086
		c1.264,0,1.598,1.111,1.598,1.822c0,0.146-0.016,0.256-0.022,0.327H25.067z M27.13,10.483c0.011-0.447-0.185-1.143-0.976-1.143
		c-0.71,0-1.022,0.655-1.079,1.143H27.13z"/>
	<path fill="#FFFFFF" d="M28.686,10.132c0-0.455-0.009-0.848-0.033-1.207h0.617l0.022,0.76h0.031c0.176-0.52,0.6-0.848,1.071-0.848
		c0.08,0,0.135,0.008,0.199,0.023v0.664c-0.072-0.016-0.143-0.023-0.24-0.023c-0.494,0-0.848,0.375-0.942,0.902
		c-0.017,0.096-0.031,0.208-0.031,0.328v2.063h-0.694V10.132z"/>
	<path fill="#FFFFFF" d="M33.979,12.65c-0.185,0.097-0.593,0.224-1.111,0.224c-1.166,0-1.926-0.791-1.926-1.976
		c0-1.19,0.813-2.055,2.078-2.055c0.416,0,0.782,0.104,0.977,0.199l-0.16,0.545c-0.168-0.097-0.432-0.185-0.816-0.185
		c-0.887,0-1.367,0.655-1.367,1.464c0,0.895,0.576,1.447,1.345,1.447c0.399,0,0.664-0.104,0.862-0.193L33.979,12.65z"/>
	<path fill="#FFFFFF" d="M35.587,7.837c0.009,0.24-0.168,0.432-0.446,0.432c-0.248,0-0.425-0.191-0.425-0.432
		c0-0.248,0.185-0.439,0.438-0.439C35.419,7.397,35.587,7.589,35.587,7.837z M34.805,12.794V8.925h0.702v3.869H34.805z"/>
	<path fill="#FFFFFF" d="M38.818,12.794l-0.057-0.487h-0.022c-0.218,0.305-0.634,0.575-1.185,0.575c-0.783,0-1.184-0.551-1.184-1.11
		c0-0.937,0.832-1.447,2.326-1.439v-0.079c0-0.319-0.088-0.896-0.879-0.896c-0.359,0-0.736,0.111-1.008,0.287l-0.16-0.463
		c0.32-0.208,0.783-0.344,1.271-0.344c1.185,0,1.472,0.807,1.472,1.583v1.446c0,0.336,0.018,0.663,0.063,0.928H38.818z
		 M38.714,10.818c-0.769-0.016-1.639,0.121-1.639,0.871c0,0.457,0.305,0.672,0.664,0.672c0.504,0,0.823-0.318,0.936-0.646
		c0.023-0.07,0.039-0.15,0.039-0.224V10.818z"/>
	<path fill="#FFFFFF" d="M40.532,7.118h0.702v5.676h-0.702V7.118z"/>
</g>
</svg>
