<?xml version="1.0" encoding="utf-8"?>
<!-- Generator: Adobe Illustrator 16.0.3, SVG Export Plug-In . SVG Version: 6.00 Build 0)  -->
<!DOCTYPE svg PUBLIC "-//W3C//DTD SVG 1.1//EN" "http://www.w3.org/Graphics/SVG/1.1/DTD/svg11.dtd">
<svg version="1.1" id="Capa_1" xmlns="http://www.w3.org/2000/svg" xmlns:xlink="http://www.w3.org/1999/xlink" x="0px" y="0px"
	 width="24px" height="24px" viewBox="-4 -4 24 24" enable-background="new -4 -4 24 24" xml:space="preserve">
<g>
	<g>
		<path fill="#010202" d="M4.548-1.182H0.75c-0.183,0-0.33,0.15-0.33,0.331c0,0.182,0.148,0.331,0.33,0.331h3.798
			c0.184-0.001,0.33-0.148,0.33-0.331C4.877-1.033,4.732-1.182,4.548-1.182z"/>
		<path fill="#010202" d="M4.548,0.346H0.75c-0.183,0-0.33,0.148-0.33,0.331c0,0.181,0.148,0.329,0.33,0.329h3.798
			c0.184,0,0.33-0.148,0.33-0.329C4.877,0.493,4.732,0.346,4.548,0.346z"/>
		<path fill="#010202" d="M12.364,12.524c0.111-0.702-0.28-1.311-1.003-1.552c-0.097-0.03-0.197-0.065-0.297-0.101V9.398
			c0.262,0.059,0.418,0.181,0.43,0.192c0.14,0.114,0.344,0.1,0.467-0.035c0.12-0.139,0.104-0.345-0.032-0.465
			C11.905,9.07,11.587,8.8,11.064,8.729V8.616c0-0.183-0.147-0.332-0.33-0.332c-0.185,0-0.332,0.148-0.332,0.332v0.136
			c-0.05,0.012-0.1,0.023-0.15,0.036C9.76,8.929,9.399,9.328,9.307,9.834c-0.083,0.444,0.073,0.874,0.405,1.12
			c0.176,0.132,0.394,0.248,0.693,0.374V13.2c-0.27-0.015-0.45-0.073-0.755-0.261c-0.155-0.096-0.358-0.047-0.456,0.107
			c-0.094,0.156-0.047,0.358,0.111,0.451c0.428,0.267,0.719,0.344,1.1,0.367v0.145c0,0.185,0.146,0.332,0.33,0.332
			c0.183,0,0.331-0.147,0.331-0.332v-0.172C11.805,13.697,12.271,13.108,12.364,12.524L12.364,12.524z M10.104,10.422
			C9.955,10.31,9.93,10.103,9.958,9.951c0.035-0.193,0.172-0.428,0.444-0.518v1.165C10.291,10.542,10.188,10.481,10.104,10.422
			L10.104,10.422z M11.709,12.422c-0.046,0.299-0.268,0.614-0.646,0.734v-1.585c0.029,0.009,0.057,0.018,0.087,0.029
			C11.561,11.739,11.771,12.043,11.709,12.422L11.709,12.422z"/>
		<path fill="#010202" d="M17.45,6.624H4.078c-0.533,0-0.967,0.433-0.967,0.967v7.446c0,0.532,0.433,0.968,0.967,0.968H17.45
			c0.531,0,0.966-0.436,0.966-0.968V7.591C18.416,7.057,17.982,6.624,17.45,6.624z M17.758,15.037c0,0.166-0.141,0.306-0.308,0.306
			H4.079c-0.169,0-0.305-0.14-0.305-0.306V7.591c0-0.166,0.136-0.306,0.305-0.306H17.45c0.167,0,0.308,0.14,0.308,0.306V15.037z"/>
		<path fill="#010202" d="M9.183,14.191H5.771c-0.214-0.339-0.508-0.629-0.846-0.845V9.272c0.335-0.214,0.625-0.5,0.839-0.835h3.419
			c0.183,0,0.33-0.146,0.33-0.331c0-0.183-0.148-0.331-0.33-0.331H5.758c-0.225,0-0.425,0.112-0.543,0.297
			c-0.166,0.259-0.392,0.48-0.652,0.645C4.376,8.834,4.262,9.04,4.262,9.264v4.09c0,0.224,0.113,0.43,0.301,0.546
			c0.263,0.166,0.489,0.392,0.655,0.654c0.118,0.188,0.323,0.297,0.546,0.297h3.42c0.184,0,0.329-0.147,0.329-0.331
			C9.513,14.338,9.365,14.191,9.183,14.191L9.183,14.191z"/>
		<path fill="#010202" d="M16.968,8.709c-0.254-0.162-0.474-0.382-0.635-0.636c-0.12-0.186-0.324-0.297-0.545-0.297h-3.506
			c-0.18,0-0.33,0.148-0.33,0.331c0,0.184,0.15,0.331,0.33,0.331h3.498c0.212,0.329,0.494,0.612,0.822,0.823v4.098
			c-0.331,0.216-0.617,0.503-0.828,0.833h-3.492c-0.18,0-0.33,0.149-0.33,0.331c0,0.184,0.15,0.331,0.33,0.331h3.501
			c0.223,0,0.424-0.109,0.541-0.297c0.167-0.257,0.387-0.479,0.644-0.645c0.186-0.117,0.296-0.321,0.296-0.544V9.253
			C17.264,9.029,17.153,8.828,16.968,8.709L16.968,8.709z"/>
		<path fill="#010202" d="M15.222,16.894c-0.183,0-0.333,0.152-0.333,0.332v0.279c0,0.629-0.514,1.143-1.143,1.143H-0.099
			c-0.629,0-1.144-0.514-1.144-1.143V-1.467c0-0.629,0.513-1.143,1.144-1.143h10.777c0.045,0,0.089,0.004,0.133,0.013v2.264
			c0,0.996,0.808,1.804,1.802,1.804h2.267c0.009,0.042,0.012,0.087,0.012,0.132v3.799c0,0.186,0.149,0.331,0.332,0.331
			c0.18,0,0.327-0.147,0.327-0.331V1.602c0-0.386-0.15-0.75-0.423-1.024l-3.425-3.426c-0.271-0.272-0.636-0.423-1.023-0.423H-0.099
			c-0.995,0-1.804,0.81-1.804,1.803v18.971c0,0.994,0.81,1.805,1.804,1.805h13.847c0.994,0,1.802-0.811,1.802-1.805v-0.277
			C15.55,17.046,15.403,16.894,15.222,16.894L15.222,16.894z M14.421,0.809h-1.808c-0.629,0-1.141-0.513-1.141-1.141v-1.809
			L14.421,0.809z"/>
	</g>
</g>
</svg>
