<?xml version="1.0" encoding="utf-8"?>
<!-- Generator: Adobe Illustrator 16.0.3, SVG Export Plug-In . SVG Version: 6.00 Build 0)  -->
<!DOCTYPE svg PUBLIC "-//W3C//DTD SVG 1.1//EN" "http://www.w3.org/Graphics/SVG/1.1/DTD/svg11.dtd">
<svg version="1.1" id="Capa_1" xmlns="http://www.w3.org/2000/svg" xmlns:xlink="http://www.w3.org/1999/xlink" x="0px" y="0px"
	 width="16px" height="16px" viewBox="0 0 16 16" enable-background="new 0 0 16 16" xml:space="preserve">
<g>
	<g>
		<path fill="#010202" d="M5.78,1.874H3.243c-0.122,0-0.22,0.1-0.22,0.221c0,0.122,0.099,0.221,0.22,0.221H5.78
			C5.903,2.315,6,2.217,6,2.095C6,1.973,5.903,1.874,5.78,1.874z"/>
		<path fill="#010202" d="M5.78,2.894H3.243c-0.122,0-0.22,0.099-0.22,0.221c0,0.121,0.099,0.22,0.22,0.22H5.78
			C5.903,3.335,6,3.236,6,3.115C6,2.992,5.903,2.894,5.78,2.894z"/>
		<path fill="#010202" d="M11,11.028c0.074-0.469-0.188-0.875-0.67-1.037c-0.065-0.021-0.132-0.044-0.198-0.067V8.94
			c0.175,0.038,0.279,0.12,0.287,0.128c0.093,0.077,0.23,0.067,0.311-0.023c0.08-0.093,0.07-0.231-0.021-0.311
			c-0.015-0.013-0.228-0.194-0.577-0.242V8.417c0-0.122-0.099-0.221-0.221-0.221c-0.123,0-0.221,0.099-0.221,0.221v0.091
			C9.656,8.515,9.623,8.523,9.589,8.532C9.261,8.626,9.02,8.893,8.958,9.23C8.903,9.528,9.007,9.814,9.229,9.979
			c0.117,0.087,0.262,0.166,0.462,0.249v1.251c-0.179-0.01-0.301-0.05-0.503-0.174c-0.104-0.065-0.24-0.032-0.305,0.071
			c-0.063,0.104-0.031,0.239,0.074,0.302c0.286,0.178,0.481,0.229,0.734,0.245v0.097c0,0.122,0.098,0.221,0.221,0.221
			c0.122,0,0.221-0.099,0.221-0.221v-0.116C10.626,11.811,10.938,11.417,11,11.028L11,11.028z M9.49,9.623
			C9.39,9.548,9.374,9.41,9.393,9.308C9.416,9.179,9.508,9.024,9.69,8.963v0.778C9.615,9.703,9.546,9.663,9.49,9.623L9.49,9.623z
			 M10.563,10.959c-0.032,0.199-0.179,0.41-0.432,0.49v-1.058c0.02,0.006,0.038,0.012,0.059,0.019
			C10.463,10.503,10.604,10.706,10.563,10.959L10.563,10.959z"/>
		<path fill="#010202" d="M14.396,7.087h-8.93c-0.356,0-0.646,0.289-0.646,0.646v4.972c0,0.355,0.289,0.646,0.646,0.646h8.93
			c0.355,0,0.645-0.29,0.645-0.646V7.733C15.041,7.376,14.752,7.087,14.396,7.087z M14.601,12.705c0,0.111-0.093,0.204-0.204,0.204
			h-8.93c-0.113,0-0.204-0.093-0.204-0.204V7.733c0-0.111,0.091-0.204,0.204-0.204h8.93c0.111,0,0.204,0.093,0.204,0.204V12.705z"/>
		<path fill="#010202" d="M8.875,12.14H6.596c-0.143-0.226-0.339-0.419-0.565-0.564v-2.72c0.224-0.143,0.417-0.334,0.561-0.558
			h2.283c0.122,0,0.22-0.098,0.22-0.221c0-0.122-0.099-0.221-0.22-0.221H6.588c-0.15,0-0.284,0.075-0.363,0.198
			C6.114,8.227,5.964,8.375,5.79,8.485C5.665,8.563,5.589,8.7,5.589,8.849v2.732c0,0.15,0.075,0.287,0.201,0.365
			c0.176,0.111,0.326,0.261,0.437,0.437c0.079,0.125,0.216,0.198,0.365,0.198h2.284c0.122,0,0.219-0.099,0.219-0.222
			C9.095,12.238,8.997,12.14,8.875,12.14L8.875,12.14z"/>
		<path fill="#010202" d="M14.074,8.479c-0.17-0.108-0.316-0.255-0.423-0.425c-0.081-0.124-0.218-0.198-0.365-0.198h-2.34
			c-0.121,0-0.222,0.099-0.222,0.221c0,0.123,0.101,0.221,0.222,0.221h2.335c0.142,0.22,0.331,0.409,0.549,0.55v2.736
			c-0.22,0.145-0.412,0.336-0.553,0.557h-2.331c-0.121,0-0.221,0.099-0.221,0.22c0,0.123,0.1,0.222,0.221,0.222h2.337
			c0.149,0,0.284-0.073,0.362-0.198c0.111-0.172,0.258-0.321,0.429-0.431c0.124-0.078,0.198-0.215,0.198-0.363V8.843
			C14.272,8.694,14.198,8.559,14.074,8.479L14.074,8.479z"/>
		<path fill="#010202" d="M12.908,13.946c-0.122,0-0.222,0.101-0.222,0.221v0.186c0,0.421-0.343,0.763-0.763,0.763H2.677
			c-0.42,0-0.764-0.342-0.764-0.763V1.683c0-0.42,0.343-0.763,0.764-0.763h7.197c0.03,0,0.06,0.003,0.089,0.008V2.44
			c0,0.665,0.539,1.205,1.203,1.205h1.513c0.006,0.028,0.008,0.058,0.008,0.088V6.27c0,0.124,0.1,0.221,0.222,0.221
			c0.121,0,0.219-0.098,0.219-0.221V3.733c0-0.258-0.1-0.501-0.282-0.684l-2.287-2.288c-0.182-0.182-0.425-0.283-0.684-0.283H2.677
			c-0.665,0-1.205,0.541-1.205,1.204v12.67c0,0.664,0.541,1.205,1.205,1.205h9.247c0.664,0,1.203-0.541,1.203-1.205v-0.186
			C13.127,14.047,13.029,13.946,12.908,13.946L12.908,13.946z M12.373,3.203h-1.207c-0.42,0-0.762-0.342-0.762-0.762V1.233
			L12.373,3.203z"/>
	</g>
</g>
</svg>
