<?xml version="1.0" encoding="utf-8"?>
<!-- Generator: Adobe Illustrator 16.0.0, SVG Export Plug-In . SVG Version: 6.00 Build 0)  -->
<!DOCTYPE svg PUBLIC "-//W3C//DTD SVG 1.1//EN" "http://www.w3.org/Graphics/SVG/1.1/DTD/svg11.dtd">
<svg version="1.1" id="Capa_1" xmlns="http://www.w3.org/2000/svg" xmlns:xlink="http://www.w3.org/1999/xlink" x="0px" y="0px"
	 width="40px" height="40px" viewBox="0 0 40 40" enable-background="new 0 0 40 40" xml:space="preserve">
<g>
	
		<rect x="10.61" y="5.905" transform="matrix(-0.9964 -0.0851 0.0851 -0.9964 42.5606 41.7709)" fill="#D5D9DE" width="23.121" height="28.146"/>
	
		<rect x="6.815" y="5.904" transform="matrix(-0.9922 0.1247 -0.1247 -0.9922 39.0976 37.508)" fill="#EAECEE" width="23.12" height="28.147"/>
	<rect x="8.44" y="7.662" fill="#EDEDED" width="23.121" height="28.146"/>
	<path fill="#696E70" d="M35.589,6.177c-0.081-0.096-0.196-0.155-0.319-0.166l-6.965-0.595l-0.127-1.003
		c-0.031-0.259-0.269-0.441-0.525-0.409l-6.461,0.812c-0.024-0.006-0.051-0.012-0.077-0.014l-8.881-0.758
		c-0.256-0.023-0.487,0.174-0.51,0.429l-0.132,1.55L4.713,6.888C4.459,6.919,4.271,7.159,4.305,7.414l3.51,27.926
		c0.017,0.127-0.011,0.249,0.041,0.373C7.929,35.885,8.103,36,8.29,36h23.119c0.261,0,0.472-0.211,0.472-0.471v-0.614l0.912,0.078
		c0.256,0.022,0.488-0.175,0.51-0.429L35.698,6.52C35.709,6.396,35.669,6.272,35.589,6.177z M27.543,6.913H12.07l15.231-1.916
		L27.543,6.913z M12.622,5.022l4.124,0.353l-4.199,0.528L12.622,5.022z M5.298,7.764l2.521-0.317v20.368L5.298,7.764z
		 M32.404,34.014l-0.523-0.045V20.2c0-0.261-0.211-0.472-0.472-0.472s-0.472,0.211-0.472,0.472v14.856H8.762V7.854h22.175V18
		c0,0.26,0.211,0.471,0.473,0.471c0.261,0,0.472-0.211,0.472-0.471V7.384c0-0.26-0.211-0.471-0.472-0.471h-2.917l-0.068-0.541
		l6.296,0.537L32.404,34.014z"/>
	<line fill="none" x1="16.549" y1="22.839" x2="23.451" y2="17.161"/>
	<line fill="none" x1="18.375" y1="20" x2="21.625" y2="20"/>
</g>
<path fill="#696E70" d="M28.436,22.266c-0.272-0.242-0.63-0.393-0.987-0.408c-0.426-0.027-0.8,0.117-1.09,0.408l-1.975,1.943
	c-0.034-0.068-0.085-0.119-0.136-0.188c-0.238-0.291-0.596-0.441-0.987-0.441h-2.762c-0.52,0-1.021-0.068-1.507-0.205
	c-1.251-0.34-2.443-0.086-3.456,0.73c-0.409,0.342-0.707,0.699-0.902,0.973l-0.494-0.477c-0.06-0.068-0.153-0.104-0.238-0.104
	c0,0-0.002,0-0.009,0c-0.094,0-0.179,0.035-0.247,0.104l-2.4,2.5c-0.068,0.068-0.102,0.154-0.095,0.238
	c0.001,0.104,0.036,0.189,0.104,0.258l4.06,3.861c0.068,0.068,0.156,0.096,0.247,0.096c0.085,0,0.179-0.043,0.247-0.111l2.375-2.436
	c0.068-0.066,0.102-0.15,0.102-0.254c0-0.086-0.042-0.17-0.102-0.238l-0.213-0.203l0.477-0.053c0.289-0.035,0.579-0.051,0.868-0.051
	h4.184c0.681,0,1.26-0.154,1.719-0.441c0.018,0,0.018,0,0.018-0.012c0.17-0.109,0.322-0.246,0.442-0.396l2.826-3.322
	C28.99,23.459,28.963,22.754,28.436,22.266z M15.553,30.711l-3.566-3.387l1.924-1.992l3.532,3.438L15.553,30.711z M27.976,23.58
	l-2.825,3.318c-0.086,0.115-0.188,0.203-0.307,0.289c-0.341,0.219-0.801,0.322-1.345,0.322h-4.184c-0.314,0-0.639,0.02-0.944,0.053
	l-1.047,0.119l-2.179-2.111c0.153-0.223,0.425-0.596,0.834-0.92c0.84-0.682,1.788-0.885,2.83-0.594
	c0.541,0.135,1.111,0.219,1.69,0.219h2.762c0.494,0,0.626,0.428,0.626,0.682c0,0.189-0.063,0.359-0.167,0.477
	c-0.119,0.137-0.273,0.205-0.477,0.205h-2.4c-0.19,0-0.344,0.154-0.344,0.34c0,0.205,0.153,0.359,0.344,0.359h2.4
	c0.409,0,0.767-0.154,1.005-0.443c0.204-0.238,0.323-0.563,0.323-0.885l2.281-2.248c0.323-0.326,0.816-0.242,1.106,0.018
	C28.112,22.914,28.299,23.203,27.976,23.58z"/>
<path fill="#696E70" d="M13.502,21.475h3.396c0.179,0,0.349-0.063,0.494-0.162c0.136,0.1,0.306,0.162,0.494,0.162h3.392
	c0.184,0,0.354-0.063,0.498-0.162c0.139,0.1,0.309,0.162,0.496,0.162h3.389c0.46,0,0.836-0.385,0.836-0.848v-1.58
	c0-0.715-0.393-1.328-0.988-1.634c0.289-0.349,0.459-0.791,0.459-1.283c0-1.108-0.902-2.006-2.007-2.006
	c-1.108,0-2.012,0.898-2.012,2.006c0,0.492,0.18,0.935,0.466,1.283c-0.262,0.128-0.477,0.323-0.639,0.554
	c-0.169-0.23-0.391-0.425-0.646-0.554c0.289-0.349,0.461-0.791,0.461-1.283c0-1.108-0.904-2.006-2.011-2.006
	s-2.008,0.898-2.008,2.006c0,0.492,0.179,0.935,0.466,1.283c-0.262,0.128-0.483,0.323-0.645,0.554
	c-0.17-0.23-0.392-0.425-0.647-0.554c0.29-0.349,0.459-0.791,0.459-1.282c0-1.109-0.902-2.007-2.009-2.007s-2.009,0.898-2.009,2.007
	c0,0.491,0.179,0.934,0.468,1.282c-0.596,0.306-0.996,0.919-0.996,1.634v1.58C12.66,21.09,13.034,21.475,13.502,21.475z
	 M23.96,14.817c0.73,0,1.31,0.589,1.31,1.313s-0.579,1.317-1.31,1.317c-0.717,0-1.313-0.593-1.313-1.317
	C22.647,15.407,23.243,14.817,23.96,14.817z M23.056,17.924c0.272,0.136,0.579,0.213,0.904,0.213c0.321,0,0.63-0.077,0.9-0.213
	c0.545,0.094,0.951,0.562,0.951,1.124v1.58c0,0.08-0.065,0.148-0.151,0.148h-3.389c-0.085,0-0.153-0.068-0.153-0.148v-1.58
	C22.118,18.485,22.51,18.018,23.056,17.924z M19.579,14.817c0.725,0,1.312,0.589,1.312,1.313s-0.587,1.317-1.312,1.317
	c-0.724,0-1.311-0.593-1.311-1.317C18.269,15.407,18.855,14.817,19.579,14.817z M18.677,17.924c0.272,0.136,0.579,0.213,0.902,0.213
	c0.324,0,0.636-0.077,0.905-0.213c0.542,0.094,0.935,0.562,0.935,1.124v1.58c0,0.08-0.069,0.148-0.142,0.148h-3.392
	c-0.085,0-0.145-0.068-0.145-0.148v-1.58C17.741,18.485,18.133,18.018,18.677,17.924z M15.196,14.817
	c0.724,0,1.314,0.589,1.314,1.313s-0.59,1.317-1.314,1.317c-0.723,0-1.311-0.594-1.311-1.317S14.473,14.817,15.196,14.817z
	 M13.357,19.047c0-0.562,0.396-1.029,0.936-1.124c0.272,0.136,0.579,0.213,0.902,0.213c0.331,0,0.639-0.077,0.911-0.213
	c0.537,0.094,0.937,0.562,0.937,1.124v1.58c0,0.08-0.068,0.148-0.145,0.148h-3.396c-0.079,0-0.145-0.068-0.145-0.148V19.047z"/>
</svg>
