<?xml version="1.0" encoding="utf-8"?>
<!-- Generator: Adobe Illustrator 16.0.0, SVG Export Plug-In . SVG Version: 6.00 Build 0)  -->
<!DOCTYPE svg PUBLIC "-//W3C//DTD SVG 1.1//EN" "http://www.w3.org/Graphics/SVG/1.1/DTD/svg11.dtd">
<svg version="1.1" id="Capa_1" xmlns="http://www.w3.org/2000/svg" xmlns:xlink="http://www.w3.org/1999/xlink" x="0px" y="0px"
	 width="21px" height="21px" viewBox="0 0 21 21" enable-background="new 0 0 21 21" xml:space="preserve">
<g>
	<g>
		<g>
			<polygon fill-rule="evenodd" clip-rule="evenodd" fill="#005694" points="5.959,15.936 11.48,20.5 9.76,20.5 5.943,16.754 
				6.574,16.754 			"/>
			<path fill-rule="evenodd" clip-rule="evenodd" fill="#005694" d="M8.858,16.502l-2.355-2.508l7.625,6.502h-2.089l-3.79-3.801
				l0.622-0.002C8.87,16.693,9.089,16.715,8.858,16.502z"/>
			<path fill-rule="evenodd" clip-rule="evenodd" fill="#005694" d="M10.896,16.664c0.557,0.031,0.481-0.32,0.481-0.32l-4.326-4.369
				l8.884,7.885c0,0-0.563,0.586-1.395,0.637L10.896,16.664z"/>
			<path fill-rule="evenodd" clip-rule="evenodd" fill="#005694" d="M12.268,15.564l0.188-0.684L7.626,9.862l9.656,8.655
				c0,0-0.284,0.686-1.084,1.199L12.268,15.564z"/>
			<path fill-rule="evenodd" clip-rule="evenodd" fill="#005694" d="M12.823,13.535l0.174-0.641L8.218,7.75l9.706,9.033
				c0,0-0.152,0.758-0.527,1.57L12.823,13.535z"/>
			<polygon fill-rule="evenodd" clip-rule="evenodd" fill="#005694" points="8.743,5.804 18.434,14.932 18.025,16.414 
				13.385,11.482 13.544,10.911 			"/>
			<polygon fill-rule="evenodd" clip-rule="evenodd" fill="#005694" points="10.028,4.352 18.987,12.92 18.558,14.477 13.944,9.469 
				14.073,8.996 			"/>
			<polygon fill-rule="evenodd" clip-rule="evenodd" fill="#005694" points="12.695,4.344 19.525,10.93 19.114,12.453 14.533,7.313 
				14.7,6.708 			"/>
			<polygon fill-rule="evenodd" clip-rule="evenodd" fill="#005694" points="15.327,4.426 15.152,5.065 19.65,10.484 20.06,8.996 
							"/>
		</g>
		<g>
			<polygon fill-rule="evenodd" clip-rule="evenodd" fill="#E0A541" points="15.306,4.327 12.695,4.344 8.774,0.5 11.397,0.5 			"/>
			<path fill-rule="evenodd" clip-rule="evenodd" fill="#E0A541" d="M8.439,0.5l3.249,3.86c0,0,0,0-1.659-0.008L6.214,0.63
				c0,0,0.39-0.101,0.869-0.13H8.439z"/>
			<path fill-rule="evenodd" clip-rule="evenodd" fill="#E0A541" d="M4.307,1.812l4.313,4.583l-0.38,1.377L3.494,3.505
				C3.494,3.505,3.601,2.565,4.307,1.812z"/>
			<polygon fill-rule="evenodd" clip-rule="evenodd" fill="#E0A541" points="3.372,3.676 8.024,8.544 7.655,9.893 2.844,5.514 			
				"/>
			<polygon fill-rule="evenodd" clip-rule="evenodd" fill="#E0A541" points="2.755,5.804 7.448,10.634 7.074,11.996 2.194,7.663 			
				"/>
			<polygon fill-rule="evenodd" clip-rule="evenodd" fill="#E0A541" points="2.107,7.972 1.56,9.808 6.516,14.01 6.86,12.754 			"/>
			<polygon fill-rule="evenodd" clip-rule="evenodd" fill="#E0A541" points="1.488,10.038 6.283,14.85 5.8,16.6 0.941,11.848 			"/>
			<path fill-rule="evenodd" clip-rule="evenodd" fill="#E0A541" d="M8.773,5.834L4.467,1.615c0.567-0.677,1.448-0.891,1.448-0.891
				l3.555,3.814C8.867,4.779,8.773,5.834,8.773,5.834z"/>
		</g>
	</g>
</g>
</svg>
