<?xml version="1.0" encoding="utf-8"?>
<!-- Generator: Adobe Illustrator 16.0.0, SVG Export Plug-In . SVG Version: 6.00 Build 0)  -->
<!DOCTYPE svg PUBLIC "-//W3C//DTD SVG 1.1//EN" "http://www.w3.org/Graphics/SVG/1.1/DTD/svg11.dtd">
<svg version="1.1" id="Capa_1" xmlns="http://www.w3.org/2000/svg" xmlns:xlink="http://www.w3.org/1999/xlink" x="0px" y="0px"
	 width="40px" height="40px" viewBox="0 0 40 40" enable-background="new 0 0 40 40" xml:space="preserve">
<g>
	
		<rect x="10.609" y="5.905" transform="matrix(0.9964 0.0851 -0.0851 0.9964 1.7807 -1.8143)" fill="#D5D9DE" width="23.121" height="28.146"/>
	
		<rect x="6.815" y="5.904" transform="matrix(0.9922 -0.1247 0.1247 0.9922 -2.3476 2.4471)" fill="#EAECEE" width="23.12" height="28.147"/>
	<rect x="8.44" y="7.662" fill="#EDEDED" width="23.121" height="28.146"/>
	<path fill="#696E70" d="M35.589,6.177c-0.081-0.096-0.196-0.155-0.32-0.166l-6.964-0.595l-0.127-1.003
		c-0.032-0.259-0.269-0.441-0.525-0.409l-6.461,0.812c-0.025-0.006-0.052-0.012-0.078-0.014l-8.881-0.758
		c-0.256-0.023-0.487,0.174-0.51,0.429l-0.132,1.55L4.713,6.888C4.459,6.919,4.271,7.159,4.305,7.414l3.51,27.926
		c0.017,0.127-0.011,0.249,0.041,0.373C7.929,35.885,8.103,36,8.29,36h23.119c0.261,0,0.472-0.211,0.472-0.471v-0.614l0.912,0.078
		c0.256,0.022,0.488-0.174,0.51-0.429l2.395-28.044C35.709,6.396,35.669,6.272,35.589,6.177z M27.543,6.913H12.07l15.231-1.916
		L27.543,6.913z M12.622,5.022l4.124,0.353l-4.199,0.528L12.622,5.022z M5.298,7.764l2.521-0.317v20.368L5.298,7.764z
		 M32.404,34.014l-0.523-0.045V20.2c0-0.261-0.211-0.472-0.472-0.472s-0.472,0.211-0.472,0.472v14.857H8.762V7.854h22.176v10.146
		c0,0.26,0.211,0.471,0.472,0.471s0.472-0.211,0.472-0.471V7.384c0-0.26-0.211-0.471-0.472-0.471h-2.917l-0.068-0.541l6.295,0.537
		L32.404,34.014z"/>
	<line fill="none" x1="16.549" y1="22.839" x2="23.451" y2="17.161"/>
	<line fill="none" x1="18.375" y1="20" x2="21.625" y2="20"/>
</g>
<g>
	<rect x="19.099" y="10.751" fill="#706F6F" width="1.8" height="0.912"/>
	<rect x="14.517" y="13.472" fill="#706F6F" width="10.965" height="13.188"/>
	<path fill="#706F6F" d="M14.517,13.472c0,0,0-2.266,5.482-2.266c5.483,0,5.483,2.266,5.483,2.266H14.517z"/>
	<path fill="#706F6F" d="M14.517,26.659c0,0,0,2.264,5.482,2.264c5.483,0,5.483-2.264,5.483-2.264H14.517z"/>
	<rect x="18.268" y="10.294" fill="#706F6F" width="3.462" height="0.457"/>
	<rect x="18.268" y="28.819" fill="#706F6F" width="3.462" height="0.758"/>
	<polygon fill="#706F6F" points="14.517,29.634 14.053,29.634 14.053,21.546 14.517,19.978 	"/>
	<rect x="12.678" y="29.101" fill="#706F6F" width="3.212" height="0.605"/>
	<polygon fill="#706F6F" points="25.949,29.706 25.482,29.706 25.482,20.046 25.949,21.616 	"/>
	<rect x="24.111" y="29.101" fill="#706F6F" width="3.211" height="0.605"/>
	<rect x="14.517" y="15.247" fill="#706F6F" width="10.965" height="9.766"/>
</g>
<g>
</g>
<g>
</g>
<g>
</g>
<g>
</g>
<g>
</g>
<g>
</g>
</svg>
