<?xml version="1.0" encoding="utf-8"?>
<!-- Generator: Adobe Illustrator 16.0.0, SVG Export Plug-In . SVG Version: 6.00 Build 0)  -->
<!DOCTYPE svg PUBLIC "-//W3C//DTD SVG 1.1//EN" "http://www.w3.org/Graphics/SVG/1.1/DTD/svg11.dtd">
<svg version="1.1" id="Capa_1" xmlns="http://www.w3.org/2000/svg" xmlns:xlink="http://www.w3.org/1999/xlink" x="0px" y="0px"
	 width="20px" height="20px" viewBox="0 0 20 20" enable-background="new 0 0 20 20" xml:space="preserve">
<g transform="matrix(1.25 0 0 -1.25 0 45)">
	<g>
		<g>
			<path fill="#FC0B33" d="M9.289,28.005l4.445,4.444c0.355,0.355,0.355,0.93,0,1.284c-0.355,0.355-0.929,0.355-1.284,0L8.005,29.29
				l-4.444,4.443c-0.355,0.355-0.93,0.355-1.284,0c-0.355-0.354-0.355-0.929,0-1.284l4.445-4.444l-4.455-4.454
				c-0.355-0.356-0.355-0.93,0-1.284C2.445,22.091,2.677,22,2.909,22c0.232,0,0.466,0.091,0.642,0.267l4.454,4.455l4.445-4.444
				c0.177-0.178,0.41-0.267,0.642-0.267c0.232,0,0.465,0.089,0.642,0.267c0.355,0.355,0.355,0.928,0,1.284L9.289,28.005z"/>
		</g>
	</g>
</g>
</svg>
