<?xml version="1.0" encoding="utf-8"?>
<!-- Generator: Adobe Illustrator 16.0.0, SVG Export Plug-In . SVG Version: 6.00 Build 0)  -->
<!DOCTYPE svg PUBLIC "-//W3C//DTD SVG 1.1//EN" "http://www.w3.org/Graphics/SVG/1.1/DTD/svg11.dtd">
<svg version="1.1" id="Capa_1" xmlns="http://www.w3.org/2000/svg" xmlns:xlink="http://www.w3.org/1999/xlink" x="0px" y="0px"
	 width="50px" height="20px" viewBox="0 0 50 20" enable-background="new 0 0 50 20" xml:space="preserve">
<path fill="#76AADB" d="M49,16c0,1.657-1.344,3-3,3H4c-1.657,0-3-1.343-3-3V4c0-1.657,1.343-3,3-3h42c1.656,0,3,1.343,3,3V16z"/>
<g>
	<path fill="#FFFFFF" d="M8.705,4.548C9.023,4.5,9.401,4.464,9.814,4.464c0.75,0,1.284,0.174,1.638,0.504
		c0.36,0.329,0.569,0.798,0.569,1.451c0,0.659-0.203,1.199-0.581,1.571c-0.378,0.377-1.001,0.582-1.787,0.582
		c-0.372,0-0.684-0.019-0.948-0.049V4.548z M9.228,8.122c0.132,0.024,0.323,0.03,0.528,0.03c1.115,0,1.721-0.624,1.721-1.715
		c0.006-0.954-0.534-1.561-1.637-1.561c-0.271,0-0.475,0.025-0.612,0.055V8.122z"/>
	<path fill="#FFFFFF" d="M13.002,7.18c0.012,0.715,0.467,1.008,0.995,1.008c0.378,0,0.605-0.065,0.804-0.149l0.09,0.378
		c-0.186,0.084-0.504,0.18-0.965,0.18c-0.895,0-1.428-0.588-1.428-1.463c0-0.876,0.516-1.565,1.361-1.565
		c0.947,0,1.199,0.833,1.199,1.367c0,0.108-0.012,0.192-0.018,0.245L13.002,7.18L13.002,7.18z M14.549,6.803
		c0.006-0.336-0.139-0.857-0.731-0.857c-0.534,0-0.768,0.492-0.81,0.857H14.549z"/>
	<path fill="#FFFFFF" d="M15.642,7.996c0.155,0.102,0.432,0.21,0.696,0.21c0.383,0,0.563-0.192,0.563-0.433
		c0-0.252-0.149-0.389-0.539-0.533c-0.521-0.186-0.768-0.474-0.768-0.821c0-0.468,0.378-0.852,1.002-0.852
		c0.293,0,0.551,0.084,0.713,0.18l-0.132,0.384c-0.114-0.072-0.323-0.168-0.594-0.168c-0.312,0-0.485,0.18-0.485,0.396
		c0,0.239,0.174,0.348,0.551,0.491c0.504,0.192,0.762,0.444,0.762,0.876c0,0.51-0.395,0.869-1.085,0.869
		c-0.317,0-0.611-0.078-0.815-0.197L15.642,7.996z"/>
	<path fill="#FFFFFF" d="M19.697,8.535L19.654,8.17h-0.018c-0.162,0.229-0.474,0.432-0.888,0.432c-0.587,0-0.888-0.414-0.888-0.834
		c0-0.701,0.624-1.085,1.746-1.079v-0.06c0-0.24-0.066-0.672-0.66-0.672c-0.27,0-0.552,0.084-0.756,0.216l-0.119-0.348
		c0.239-0.155,0.587-0.258,0.953-0.258c0.887,0,1.104,0.605,1.104,1.187V7.84c0,0.252,0.012,0.498,0.047,0.695H19.697z
		 M19.619,7.055c-0.576-0.012-1.229,0.09-1.229,0.653c0,0.342,0.228,0.504,0.497,0.504c0.379,0,0.618-0.239,0.702-0.485
		c0.019-0.055,0.03-0.114,0.03-0.168V7.055z"/>
	<path fill="#FFFFFF" d="M20.982,6.539c0-0.342-0.007-0.636-0.025-0.906h0.463l0.018,0.57h0.023c0.133-0.391,0.45-0.636,0.805-0.636
		c0.06,0,0.102,0.006,0.149,0.019v0.497c-0.054-0.013-0.108-0.019-0.181-0.019c-0.371,0-0.635,0.282-0.707,0.678
		c-0.012,0.072-0.023,0.156-0.023,0.246v1.547h-0.521L20.982,6.539L20.982,6.539z"/>
	<path fill="#FFFFFF" d="M22.968,6.539c0-0.342-0.007-0.636-0.024-0.906h0.462l0.019,0.57h0.023
		c0.132-0.391,0.449-0.636,0.804-0.636c0.06,0,0.103,0.006,0.149,0.019v0.497c-0.054-0.013-0.107-0.019-0.18-0.019
		c-0.371,0-0.635,0.282-0.707,0.678c-0.012,0.072-0.024,0.156-0.024,0.246v1.547h-0.521L22.968,6.539L22.968,6.539z"/>
	<path fill="#FFFFFF" d="M27.496,7.061c0,1.073-0.744,1.541-1.445,1.541c-0.785,0-1.391-0.576-1.391-1.493
		c0-0.972,0.635-1.541,1.438-1.541C26.932,5.567,27.496,6.173,27.496,7.061z M25.193,7.09c0,0.637,0.366,1.116,0.881,1.116
		c0.504,0,0.881-0.474,0.881-1.128c0-0.491-0.244-1.115-0.869-1.115C25.463,5.963,25.193,6.539,25.193,7.09z"/>
	<path fill="#FFFFFF" d="M28.164,4.277h0.527v4.258h-0.527V4.277z"/>
	<path fill="#FFFFFF" d="M29.58,4.277h0.527v4.258H29.58V4.277z"/>
	<path fill="#FFFFFF" d="M33.621,7.061c0,1.073-0.742,1.541-1.445,1.541c-0.785,0-1.391-0.576-1.391-1.493
		c0-0.972,0.637-1.541,1.439-1.541C33.059,5.567,33.621,6.173,33.621,7.061z M31.318,7.09c0,0.637,0.367,1.116,0.883,1.116
		c0.504,0,0.881-0.474,0.881-1.128c0-0.491-0.246-1.115-0.869-1.115C31.588,5.963,31.318,6.539,31.318,7.09z"/>
	<path fill="#FFFFFF" d="M38.068,4.277v3.509c0,0.258,0.006,0.552,0.022,0.749h-0.475l-0.023-0.504h-0.012
		c-0.162,0.324-0.517,0.57-0.99,0.57c-0.7,0-1.239-0.594-1.239-1.475c-0.006-0.966,0.594-1.56,1.301-1.56
		c0.443,0,0.744,0.21,0.875,0.444h0.012V4.277H38.068z M37.539,6.814c0-0.066-0.006-0.156-0.023-0.222
		C37.438,6.257,37.15,5.98,36.754,5.98c-0.545,0-0.869,0.48-0.869,1.122c0,0.587,0.287,1.073,0.857,1.073
		c0.354,0,0.678-0.234,0.773-0.629c0.018-0.072,0.022-0.145,0.022-0.229L37.539,6.814L37.539,6.814z"/>
	<path fill="#FFFFFF" d="M39.238,7.18c0.012,0.715,0.469,1.008,0.996,1.008c0.377,0,0.604-0.065,0.803-0.149l0.09,0.378
		c-0.186,0.084-0.504,0.18-0.965,0.18c-0.893,0-1.428-0.588-1.428-1.463c0-0.876,0.516-1.565,1.361-1.565
		c0.946,0,1.198,0.833,1.198,1.367c0,0.108-0.012,0.192-0.019,0.245L39.238,7.18L39.238,7.18z M40.785,6.803
		c0.006-0.336-0.137-0.857-0.73-0.857c-0.533,0-0.768,0.492-0.811,0.857H40.785z"/>
	<path fill="#FFFFFF" d="M17.381,12.641H15.81v1.457h1.751v0.438h-2.273v-4.041h2.184v0.438H15.81v1.276h1.571V12.641z"/>
	<path fill="#FFFFFF" d="M20.176,14.086h-0.012c-0.156,0.287-0.479,0.516-0.947,0.516c-0.678,0-1.229-0.588-1.229-1.469
		c0-1.086,0.701-1.564,1.313-1.564c0.449,0,0.75,0.222,0.894,0.502h0.013l0.018-0.438h0.498c-0.013,0.246-0.019,0.498-0.019,0.799
		v3.291h-0.528L20.176,14.086L20.176,14.086z M20.176,12.809c0-0.072-0.006-0.156-0.023-0.222c-0.078-0.323-0.359-0.601-0.756-0.601
		c-0.545,0-0.875,0.463-0.875,1.115c0,0.575,0.275,1.08,0.857,1.08c0.342,0,0.636-0.209,0.756-0.576
		c0.023-0.071,0.041-0.174,0.041-0.252V12.809z"/>
	<path fill="#FFFFFF" d="M24.004,13.744c0,0.3,0.006,0.563,0.024,0.791H23.56l-0.03-0.473h-0.012
		c-0.138,0.232-0.444,0.539-0.96,0.539c-0.455,0-1.001-0.252-1.001-1.271v-1.697h0.527v1.607c0,0.552,0.168,0.924,0.647,0.924
		c0.354,0,0.6-0.246,0.695-0.48c0.031-0.078,0.049-0.174,0.049-0.27v-1.781h0.527v2.111H24.004z"/>
	<path fill="#FFFFFF" d="M25.469,10.818c0.006,0.18-0.125,0.322-0.336,0.322c-0.186,0-0.317-0.144-0.317-0.322
		c0-0.188,0.138-0.331,0.33-0.331C25.344,10.488,25.469,10.632,25.469,10.818z M24.882,14.535v-2.902h0.527v2.902H24.882z"/>
	<path fill="#FFFFFF" d="M26.285,12.58c0-0.371-0.012-0.671-0.023-0.947h0.473l0.025,0.498h0.012
		c0.215-0.354,0.558-0.563,1.031-0.563c0.701,0,1.229,0.594,1.229,1.476c0,1.043-0.636,1.56-1.318,1.56
		c-0.385,0-0.721-0.168-0.896-0.455h-0.012v1.576h-0.521L26.285,12.58L26.285,12.58z M26.807,13.354
		c0,0.078,0.012,0.149,0.023,0.217c0.098,0.365,0.414,0.617,0.793,0.617c0.557,0,0.881-0.455,0.881-1.121
		c0-0.582-0.307-1.08-0.863-1.08c-0.358,0-0.695,0.259-0.797,0.654c-0.02,0.065-0.037,0.145-0.037,0.215V13.354z"/>
	<path fill="#FFFFFF" d="M32.326,13.061c0,1.073-0.744,1.541-1.445,1.541c-0.785,0-1.391-0.576-1.391-1.492
		c0-0.973,0.635-1.541,1.438-1.541C31.762,11.566,32.326,12.173,32.326,13.061z M30.023,13.09c0,0.637,0.365,1.116,0.881,1.116
		c0.504,0,0.881-0.474,0.881-1.128c0-0.491-0.244-1.115-0.869-1.115C30.293,11.963,30.023,12.539,30.023,13.09z"/>
	<path fill="#FFFFFF" d="M32.922,13.996c0.154,0.102,0.432,0.21,0.695,0.21c0.383,0,0.563-0.192,0.563-0.433
		c0-0.252-0.147-0.39-0.539-0.533c-0.521-0.186-0.768-0.475-0.768-0.821c0-0.468,0.379-0.853,1.002-0.853
		c0.293,0,0.551,0.084,0.713,0.181l-0.131,0.384c-0.115-0.072-0.324-0.168-0.594-0.168c-0.313,0-0.486,0.18-0.486,0.396
		c0,0.238,0.174,0.348,0.551,0.49c0.504,0.192,0.762,0.444,0.762,0.877c0,0.51-0.395,0.869-1.084,0.869
		c-0.317,0-0.61-0.078-0.815-0.197L32.922,13.996z"/>
</g>
</svg>
