<?xml version="1.0" encoding="utf-8"?>
<!-- Generator: Adobe Illustrator 16.0.0, SVG Export Plug-In . SVG Version: 6.00 Build 0)  -->
<!DOCTYPE svg PUBLIC "-//W3C//DTD SVG 1.1//EN" "http://www.w3.org/Graphics/SVG/1.1/DTD/svg11.dtd">
<svg version="1.1" id="Capa_1" xmlns="http://www.w3.org/2000/svg" xmlns:xlink="http://www.w3.org/1999/xlink" x="0px" y="0px"
	 width="28.531px" height="22.125px" viewBox="0 0 28.531 22.125" enable-background="new 0 0 28.531 22.125" xml:space="preserve">
<g>
	<g>
		<path fill="#E6B631" d="M7.267,5.682c0-0.564-0.387-1.02-0.866-1.02h-5.19c-0.479,0-0.867,0.456-0.867,1.02
			c0,0.562,0.388,1.02,0.867,1.02h5.19C6.88,6.702,7.267,6.243,7.267,5.682z"/>
		<path fill="#E6B631" d="M6.401,8.738H2.94c-0.476,0-0.867,0.456-0.867,1.02c0,0.562,0.391,1.019,0.867,1.019h3.46
			c0.479,0,0.866-0.457,0.866-1.019C7.267,9.194,6.88,8.738,6.401,8.738z"/>
		<path fill="#E6B631" d="M6.401,12.816h-1.73c-0.479,0-0.866,0.457-0.866,1.019c0,0.563,0.387,1.021,0.866,1.021h1.73
			c0.479,0,0.866-0.457,0.866-1.021C7.267,13.273,6.88,12.816,6.401,12.816z"/>
	</g>
	<path fill="#C54942" d="M27.548,12.294l-2.596-5.098c-0.157-0.308-0.438-0.493-0.743-0.493h-6.063
		c-0.475,0-0.866,0.456-0.866,1.017v10.194c0,0.563,0.392,1.02,0.866,1.02h8.658c0.479,0,0.866-0.456,0.866-1.02v-5.096
		C27.671,12.633,27.63,12.451,27.548,12.294z"/>
	<polygon fill="#FCFBFB" points="20.743,8.74 23.717,8.74 25.794,12.818 20.743,12.818 	"/>
	<path fill="#E6B631" d="M17.87,2.625H6.007c-0.469,0-0.848,0.456-0.848,1.02v14.269c0,0.563,0.379,1.02,0.848,1.02h12.711V3.645
		C18.719,3.081,18.338,2.625,17.87,2.625z"/>
	<ellipse fill="#FCFBFB" cx="23.342" cy="17.915" rx="1.729" ry="2.038"/>
	<path fill="#445962" d="M23.342,20.973c-1.434,0-2.599-1.371-2.599-3.059c0-1.686,1.165-3.057,2.599-3.057
		c1.431,0,2.596,1.371,2.596,3.057C25.938,19.602,24.772,20.973,23.342,20.973z M23.342,16.895c-0.476,0-0.866,0.46-0.866,1.02
		s0.391,1.02,0.866,1.02c0.477,0,0.867-0.46,0.867-1.02S23.818,16.895,23.342,16.895z"/>
	<path fill="#C54942" d="M19.014,18.934H6.026c-0.479,0-0.866-0.456-0.866-1.02v-3.057h13.854V18.934z"/>
	<ellipse fill="#FCFBFB" cx="11.221" cy="17.915" rx="1.73" ry="2.038"/>
	<path fill="#445962" d="M11.221,20.973c-1.433,0-2.596-1.371-2.596-3.059c0-1.686,1.163-3.057,2.596-3.057
		c1.434,0,2.596,1.371,2.596,3.057C13.816,19.602,12.654,20.973,11.221,20.973z M11.221,16.895c-0.479,0-0.865,0.46-0.865,1.02
		s0.387,1.02,0.865,1.02s0.866-0.46,0.866-1.02S11.699,16.895,11.221,16.895z"/>
</g>
</svg>
