<?xml version="1.0" encoding="utf-8"?>
<!-- Generator: Adobe Illustrator 16.0.0, SVG Export Plug-In . SVG Version: 6.00 Build 0)  -->
<!DOCTYPE svg PUBLIC "-//W3C//DTD SVG 1.1//EN" "http://www.w3.org/Graphics/SVG/1.1/DTD/svg11.dtd">
<svg version="1.1" id="Capa_1" xmlns="http://www.w3.org/2000/svg" xmlns:xlink="http://www.w3.org/1999/xlink" x="0px" y="0px"
	 width="50px" height="20px" viewBox="0 0 50 20" enable-background="new 0 0 50 20" xml:space="preserve">
<path fill="#76AADB" d="M49,16c0,1.657-1.344,3-3,3H4c-1.657,0-3-1.343-3-3V4c0-1.657,1.343-3,3-3h42c1.656,0,3,1.343,3,3V16z"/>
<g>
	<path fill="#FFFFFF" d="M5.193,7.478C5.616,7.413,6.12,7.365,6.672,7.365c1,0,1.711,0.231,2.183,0.672
		c0.479,0.44,0.76,1.063,0.76,1.935c0,0.879-0.272,1.6-0.776,2.096c-0.503,0.504-1.334,0.774-2.382,0.774
		c-0.495,0-0.911-0.024-1.263-0.063L5.193,7.478L5.193,7.478z M5.889,12.243c0.176,0.03,0.432,0.039,0.703,0.039
		c1.487,0,2.295-0.831,2.295-2.286c0.008-1.271-0.712-2.079-2.184-2.079c-0.359,0-0.631,0.032-0.814,0.072V12.243z"/>
	<path fill="#FFFFFF" d="M11.279,7.837c0.008,0.24-0.168,0.432-0.447,0.432c-0.248,0-0.424-0.191-0.424-0.432
		c0-0.248,0.184-0.439,0.439-0.439C11.111,7.397,11.279,7.589,11.279,7.837z M10.496,12.794V8.925h0.703v3.869H10.496z"/>
	<path fill="#FFFFFF" d="M12.272,12.075c0.208,0.136,0.575,0.278,0.927,0.278c0.512,0,0.752-0.256,0.752-0.576
		c0-0.334-0.199-0.52-0.719-0.711c-0.696-0.248-1.023-0.631-1.023-1.095c0-0.623,0.504-1.135,1.334-1.135
		c0.393,0,0.736,0.111,0.952,0.24l-0.176,0.512c-0.151-0.097-0.432-0.225-0.792-0.225c-0.416,0-0.647,0.24-0.647,0.527
		c0,0.32,0.231,0.465,0.735,0.656c0.672,0.256,1.016,0.593,1.016,1.167c0,0.68-0.527,1.159-1.447,1.159
		c-0.424,0-0.815-0.104-1.087-0.265L12.272,12.075z"/>
	<path fill="#FFFFFF" d="M16.384,7.813v1.111h1.007V9.46h-1.007v2.088c0,0.479,0.136,0.751,0.528,0.751
		c0.184,0,0.319-0.023,0.407-0.048l0.032,0.526c-0.137,0.058-0.352,0.097-0.624,0.097c-0.327,0-0.591-0.104-0.759-0.295
		c-0.201-0.209-0.272-0.554-0.272-1.009V9.46h-0.6V8.925h0.6V7.997L16.384,7.813z"/>
	<path fill="#FFFFFF" d="M18.184,10.132c0-0.455-0.008-0.848-0.031-1.207h0.615l0.024,0.76h0.032c0.176-0.52,0.6-0.848,1.071-0.848
		c0.079,0,0.136,0.008,0.2,0.023v0.664c-0.072-0.016-0.145-0.023-0.24-0.023c-0.496,0-0.848,0.375-0.943,0.902
		c-0.016,0.096-0.032,0.208-0.032,0.328v2.063h-0.696V10.132z"/>
	<path fill="#FFFFFF" d="M21.615,7.837c0.008,0.24-0.168,0.432-0.447,0.432c-0.248,0-0.424-0.191-0.424-0.432
		c0-0.248,0.184-0.439,0.439-0.439C21.447,7.397,21.615,7.589,21.615,7.837z M20.832,12.794V8.925h0.703v3.869H20.832z"/>
	<path fill="#FFFFFF" d="M22.672,12.794c0.017-0.265,0.032-0.655,0.032-0.999V7.118H23.4v2.43h0.016
		c0.248-0.432,0.695-0.711,1.318-0.711c0.961,0,1.641,0.799,1.633,1.976c0,1.383-0.873,2.069-1.736,2.069
		c-0.559,0-1.008-0.215-1.295-0.728h-0.023l-0.033,0.64H22.672z M23.4,11.243c0,0.088,0.016,0.176,0.031,0.256
		c0.137,0.487,0.544,0.824,1.055,0.824c0.736,0,1.176-0.601,1.176-1.488c0-0.775-0.398-1.438-1.15-1.438
		c-0.48,0-0.928,0.327-1.072,0.863c-0.016,0.08-0.039,0.176-0.039,0.288L23.4,11.243L23.4,11.243z"/>
	<path fill="#FFFFFF" d="M30.494,11.739c0,0.399,0.008,0.752,0.031,1.055h-0.623l-0.039-0.631h-0.018
		c-0.185,0.312-0.591,0.719-1.279,0.719c-0.607,0-1.334-0.336-1.334-1.694V8.925h0.703v2.144c0,0.736,0.225,1.23,0.862,1.23
		c0.474,0,0.802-0.328,0.929-0.64c0.041-0.104,0.063-0.232,0.063-0.359V8.925h0.703L30.494,11.739L30.494,11.739z"/>
	<path fill="#FFFFFF" d="M34.422,12.65c-0.184,0.097-0.592,0.224-1.111,0.224c-1.166,0-1.926-0.791-1.926-1.976
		c0-1.19,0.814-2.055,2.078-2.055c0.416,0,0.783,0.104,0.977,0.199l-0.16,0.545c-0.168-0.097-0.432-0.185-0.815-0.185
		c-0.887,0-1.366,0.655-1.366,1.464c0,0.895,0.575,1.447,1.344,1.447c0.399,0,0.664-0.104,0.863-0.193L34.422,12.65z"/>
	<path fill="#FFFFFF" d="M36.031,7.837c0.008,0.24-0.168,0.432-0.447,0.432c-0.248,0-0.424-0.191-0.424-0.432
		c0-0.248,0.184-0.439,0.439-0.439C35.863,7.397,36.031,7.589,36.031,7.837z M35.248,12.794V8.925h0.703v3.869H35.248z"/>
	<path fill="#FFFFFF" d="M40.623,10.827c0,1.432-0.992,2.055-1.928,2.055c-1.047,0-1.855-0.768-1.855-1.989
		c0-1.295,0.848-2.056,1.92-2.056C39.871,8.837,40.623,9.644,40.623,10.827z M37.553,10.868c0,0.847,0.486,1.485,1.174,1.485
		c0.672,0,1.176-0.631,1.176-1.502c0-0.656-0.327-1.487-1.157-1.487C37.912,9.364,37.553,10.132,37.553,10.868z M39.783,7.253
		l-0.977,1.145h-0.505l0.705-1.145H39.783z"/>
	<path fill="#FFFFFF" d="M41.512,9.972c0-0.399-0.008-0.727-0.031-1.047h0.623l0.039,0.639h0.019
		c0.19-0.367,0.639-0.727,1.278-0.727c0.535,0,1.367,0.319,1.367,1.646v2.311h-0.705v-2.229c0-0.624-0.229-1.144-0.895-1.144
		c-0.463,0-0.824,0.327-0.943,0.719c-0.031,0.088-0.049,0.208-0.049,0.328v2.326h-0.703V9.972z"/>
</g>
</svg>
