<?xml version="1.0" encoding="utf-8"?>
<!-- Generator: Adobe Illustrator 16.0.0, SVG Export Plug-In . SVG Version: 6.00 Build 0)  -->
<!DOCTYPE svg PUBLIC "-//W3C//DTD SVG 1.1//EN" "http://www.w3.org/Graphics/SVG/1.1/DTD/svg11.dtd">
<svg version="1.1" id="Capa_1" xmlns="http://www.w3.org/2000/svg" xmlns:xlink="http://www.w3.org/1999/xlink" x="0px" y="0px"
	 width="20px" height="20px" viewBox="0 0 20 20" enable-background="new 0 0 20 20" xml:space="preserve">
<g>
	<path fill="#0F60B2" d="M2.866,8.103l6.258,6.268c0.25,0.237,0.542,0.356,0.876,0.356c0.34,0,0.629-0.119,0.866-0.356l6.268-6.268
		C17.378,7.858,17.5,7.566,17.5,7.227c0-0.347-0.122-0.636-0.366-0.866l-0.722-0.723c-0.231-0.243-0.52-0.365-0.866-0.365
		s-0.636,0.122-0.867,0.365L10,10.308l-4.679-4.67C5.09,5.395,4.801,5.272,4.454,5.272c-0.34,0-0.632,0.122-0.876,0.365L2.856,6.36
		C2.619,6.598,2.5,6.887,2.5,7.227S2.622,7.858,2.866,8.103z"/>
</g>
</svg>
