<?xml version="1.0" encoding="utf-8"?>
<!-- Generator: Adobe Illustrator 16.0.0, SVG Export Plug-In . SVG Version: 6.00 Build 0)  -->
<!DOCTYPE svg PUBLIC "-//W3C//DTD SVG 1.1//EN" "http://www.w3.org/Graphics/SVG/1.1/DTD/svg11.dtd">
<svg version="1.1" id="Capa_1" xmlns="http://www.w3.org/2000/svg" xmlns:xlink="http://www.w3.org/1999/xlink" x="0px" y="0px"
	 width="25px" height="25px" viewBox="0 0 25 25" enable-background="new 0 0 25 25" xml:space="preserve">
<g>
	<g>
		<path fill="#030104" d="M22.651,15.546c-0.33,0-0.598,0.269-0.598,0.599v5.307c-0.001,0.99-0.804,1.792-1.795,1.794H3.49
			c-0.99-0.002-1.793-0.804-1.795-1.794V5.875C1.697,4.886,2.5,4.083,3.49,4.081h5.305c0.331,0,0.598-0.266,0.598-0.596
			c0-0.33-0.267-0.598-0.598-0.598H3.49C1.84,2.889,0.502,4.225,0.5,5.875v15.576c0.002,1.65,1.34,2.987,2.99,2.988h16.769
			c1.651-0.001,2.988-1.338,2.99-2.988v-5.307C23.249,15.814,22.981,15.546,22.651,15.546z"/>
		<path fill="#030104" d="M23.013,1.349c-1.052-1.051-2.755-1.051-3.804,0L8.545,12.013c-0.074,0.073-0.127,0.163-0.154,0.263
			l-1.402,5.063c-0.058,0.207,0,0.43,0.153,0.582c0.152,0.152,0.375,0.211,0.582,0.153l5.063-1.403
			c0.099-0.028,0.19-0.08,0.264-0.153L23.713,5.854c1.05-1.051,1.05-2.752,0-3.804L23.013,1.349z M9.847,12.4l8.728-8.728
			l2.813,2.815l-8.726,8.728L9.847,12.4z M9.284,13.53l2.25,2.248l-3.11,0.861L9.284,13.53z M22.869,5.009l-0.635,0.633L19.42,2.828
			l0.634-0.633c0.584-0.585,1.529-0.585,2.112,0l0.703,0.7C23.451,3.48,23.451,4.426,22.869,5.009z"/>
	</g>
	<g>
		<path d="M5.798,19.861h0.848c0.19,0,0.336,0.016,0.436,0.046c0.135,0.039,0.25,0.109,0.347,0.209
			c0.096,0.103,0.169,0.227,0.218,0.372c0.051,0.146,0.076,0.328,0.076,0.543c0,0.189-0.024,0.353-0.07,0.488
			c-0.058,0.166-0.14,0.302-0.246,0.405c-0.081,0.078-0.188,0.14-0.327,0.184c-0.101,0.031-0.238,0.048-0.409,0.048H5.798V19.861z
			 M6.261,20.25v1.52h0.346c0.129,0,0.223-0.007,0.28-0.021c0.075-0.02,0.137-0.052,0.187-0.096c0.05-0.044,0.09-0.119,0.121-0.223
			c0.032-0.102,0.047-0.242,0.047-0.42c0-0.177-0.016-0.313-0.047-0.408c-0.031-0.096-0.076-0.168-0.131-0.223
			c-0.057-0.054-0.128-0.089-0.214-0.108c-0.066-0.014-0.191-0.021-0.382-0.021H6.261z"/>
		<path d="M8.116,22.156v-2.295h0.742c0.282,0,0.466,0.012,0.551,0.034c0.131,0.036,0.241,0.111,0.33,0.226
			c0.089,0.115,0.134,0.264,0.134,0.446c0,0.142-0.027,0.259-0.078,0.356c-0.05,0.095-0.117,0.171-0.195,0.226
			c-0.08,0.056-0.159,0.091-0.241,0.109c-0.11,0.021-0.271,0.033-0.48,0.033H8.578v0.864H8.116z M8.578,20.25v0.651h0.254
			c0.182,0,0.304-0.012,0.365-0.036c0.062-0.024,0.11-0.061,0.146-0.112c0.034-0.052,0.052-0.11,0.052-0.18
			c0-0.083-0.025-0.151-0.074-0.206c-0.048-0.055-0.111-0.087-0.185-0.101C9.08,20.255,8.969,20.25,8.802,20.25H8.578z"/>
		<path d="M10.837,22.156l-0.82-2.295h0.503l0.581,1.698l0.563-1.698h0.49l-0.82,2.295H10.837z"/>
		<path d="M12.16,21.544v-0.438h0.866v0.438H12.16z"/>
		<path d="M13.281,22.156v-2.295h1.701v0.389h-1.238v0.508h1.152v0.388h-1.152v0.624h1.283v0.387H13.281z"/>
		<path d="M15.433,22.156V19.88h0.463v1.89h1.152v0.387H15.433z"/>
		<path d="M17.381,22.156v-2.295h0.452l0.938,1.532v-1.532h0.431v2.295h-0.463l-0.926-1.496v1.496H17.381z"/>
	</g>
</g>
</svg>
