<?xml version="1.0" encoding="utf-8"?>
<!-- Generator: Adobe Illustrator 16.0.0, SVG Export Plug-In . SVG Version: 6.00 Build 0)  -->
<!DOCTYPE svg PUBLIC "-//W3C//DTD SVG 1.1//EN" "http://www.w3.org/Graphics/SVG/1.1/DTD/svg11.dtd">
<svg version="1.1" id="Capa_1" xmlns="http://www.w3.org/2000/svg" xmlns:xlink="http://www.w3.org/1999/xlink" x="0px" y="0px"
	 width="25px" height="25px" viewBox="0 0 25 25" enable-background="new 0 0 25 25" xml:space="preserve">
<g>
	<g>
		<g>
			<path fill="#009BDB" d="M12.501,24.502C5.882,24.502,0.5,19.114,0.5,12.5c0-6.617,5.382-12.002,12.001-12.002
				C19.117,0.498,24.5,5.883,24.5,12.5C24.5,19.114,19.117,24.502,12.501,24.502z M12.501,1.869c-5.863,0-10.629,4.77-10.629,10.631
				c0,5.86,4.766,10.632,10.629,10.632c5.861,0,10.625-4.771,10.625-10.632C23.126,6.639,18.362,1.869,12.501,1.869z"/>
		</g>
	</g>
	<g>
		<g id="reply_5_">
			<path fill="#009BDB" d="M4.901,18.483c2.111-3.302,5.065-4.811,9.287-4.811v3.867l5.91-6.604l-5.91-6.604v3.773
				C8.278,9.049,5.745,13.766,4.901,18.483z"/>
		</g>
	</g>
</g>
</svg>
