<?xml version="1.0" encoding="utf-8"?>
<!-- Generator: Adobe Illustrator 16.0.3, SVG Export Plug-In . SVG Version: 6.00 Build 0)  -->
<!DOCTYPE svg PUBLIC "-//W3C//DTD SVG 1.1//EN" "http://www.w3.org/Graphics/SVG/1.1/DTD/svg11.dtd">
<svg version="1.1" id="Capa_1" xmlns="http://www.w3.org/2000/svg" xmlns:xlink="http://www.w3.org/1999/xlink" x="0px" y="0px"
	 width="16px" height="16px" viewBox="0 0 16 16" enable-background="new 0 0 16 16" xml:space="preserve">
<path fill="#464B6E" d="M9.309,11.063C9.266,11.313,9.2,11.558,9.112,11.79l0.791,0.717c-0.11,0.233-0.237,0.458-0.382,0.669
	l-1.016-0.327c-0.161,0.195-0.34,0.374-0.536,0.534l0.327,1.016c-0.21,0.146-0.434,0.271-0.668,0.384l-0.717-0.791
	c-0.232,0.088-0.476,0.153-0.728,0.194l-0.226,1.044C5.832,15.24,5.703,15.25,5.573,15.25c-0.13,0-0.258-0.01-0.386-0.021
	l-0.225-1.044c-0.252-0.041-0.496-0.106-0.729-0.194l-0.717,0.791c-0.233-0.111-0.458-0.237-0.668-0.384l0.328-1.016
	c-0.196-0.16-0.375-0.339-0.535-0.534l-1.015,0.327c-0.146-0.211-0.272-0.436-0.383-0.669l0.791-0.717
	c-0.088-0.232-0.153-0.476-0.195-0.728l-1.045-0.226c-0.01-0.128-0.02-0.256-0.02-0.387c0-0.13,0.01-0.259,0.02-0.387l1.045-0.226
	C1.879,9.587,1.945,9.344,2.033,9.11L1.242,8.393C1.353,8.16,1.479,7.935,1.625,7.725L2.64,8.053C2.8,7.857,2.98,7.678,3.176,7.517
	L2.848,6.502c0.21-0.146,0.435-0.271,0.668-0.383L4.233,6.91c0.233-0.089,0.476-0.154,0.729-0.195l0.226-1.044
	c0.127-0.01,0.256-0.02,0.386-0.02c0.13,0,0.259,0.009,0.387,0.02l0.225,1.044C6.437,6.756,6.68,6.821,6.913,6.91l0.716-0.791
	c0.234,0.112,0.458,0.237,0.668,0.383L7.971,7.517c0.196,0.161,0.375,0.34,0.535,0.536l1.016-0.328
	C9.666,7.937,9.793,8.16,9.903,8.394L9.112,9.11C9.2,9.344,9.266,9.587,9.309,9.839l1.044,0.226
	c0.011,0.127,0.019,0.256,0.019,0.386c0,0.131-0.008,0.259-0.019,0.387L9.309,11.063z M5.573,7.925c-1.395,0-2.526,1.13-2.526,2.525
	s1.131,2.526,2.526,2.526c1.395,0,2.526-1.132,2.526-2.526S6.968,7.925,5.573,7.925z"/>
<path fill="#E89E44" d="M12.812,3.96c-0.039,0.131-0.092,0.255-0.155,0.374l0.4,0.765c-0.135,0.169-0.288,0.323-0.46,0.458
	l-0.764-0.398c-0.117,0.063-0.243,0.116-0.374,0.155l-0.258,0.823c-0.106,0.013-0.215,0.021-0.325,0.021
	c-0.108,0-0.217-0.008-0.323-0.021l-0.257-0.824c-0.131-0.04-0.258-0.092-0.374-0.155L9.157,5.557
	C8.986,5.422,8.833,5.268,8.698,5.099l0.399-0.765C9.033,4.217,8.982,4.091,8.943,3.96L8.12,3.703
	C8.107,3.595,8.099,3.488,8.099,3.377c0-0.109,0.008-0.216,0.021-0.323l0.824-0.26c0.039-0.129,0.09-0.255,0.152-0.373L8.698,1.658
	c0.135-0.17,0.288-0.324,0.457-0.459l0.767,0.399c0.116-0.063,0.243-0.115,0.372-0.153l0.259-0.824
	C10.659,0.608,10.768,0.6,10.876,0.6c0.11,0,0.219,0.008,0.325,0.021l0.258,0.824c0.131,0.039,0.255,0.09,0.374,0.153l0.764-0.399
	c0.17,0.135,0.325,0.289,0.458,0.458l-0.398,0.764c0.063,0.119,0.116,0.244,0.155,0.374l0.824,0.26
	c0.012,0.106,0.02,0.213,0.02,0.323c0,0.11-0.008,0.218-0.02,0.324L12.812,3.96z M10.876,2.368c-0.558,0-1.01,0.452-1.01,1.009
	c0,0.558,0.452,1.011,1.01,1.011c0.559,0,1.012-0.453,1.012-1.011C11.888,2.82,11.435,2.368,10.876,2.368z"/>
<path fill="#4EC2EC" d="M14.854,9.66c-0.041,0.14-0.094,0.272-0.166,0.396l0.252,0.529c-0.114,0.146-0.245,0.277-0.391,0.391
	l-0.529-0.252c-0.123,0.072-0.258,0.126-0.396,0.165l-0.196,0.553c-0.092,0.011-0.182,0.019-0.275,0.019
	c-0.095,0-0.187-0.008-0.276-0.019l-0.198-0.553c-0.139-0.039-0.271-0.093-0.396-0.165l-0.529,0.252
	c-0.146-0.113-0.276-0.245-0.391-0.391l0.252-0.529c-0.07-0.124-0.125-0.257-0.164-0.396l-0.554-0.196
	c-0.01-0.091-0.019-0.183-0.019-0.275c0-0.095,0.009-0.187,0.019-0.277l0.554-0.196c0.039-0.14,0.094-0.273,0.164-0.397L11.36,7.789
	c0.114-0.146,0.245-0.277,0.391-0.391l0.529,0.251c0.125-0.069,0.258-0.125,0.396-0.163l0.198-0.553
	c0.09-0.011,0.182-0.018,0.276-0.018c0.094,0,0.184,0.007,0.275,0.018l0.196,0.553c0.139,0.039,0.273,0.094,0.396,0.163l0.529-0.251
	c0.146,0.114,0.276,0.245,0.391,0.391l-0.252,0.528c0.072,0.125,0.125,0.258,0.166,0.397l0.552,0.196
	c0.01,0.091,0.019,0.183,0.019,0.277c0,0.093-0.009,0.185-0.019,0.275L14.854,9.66z M13.151,8.43c-0.42,0-0.759,0.339-0.759,0.759
	c0,0.418,0.339,0.757,0.759,0.757c0.416,0,0.756-0.339,0.756-0.757C13.907,8.769,13.567,8.43,13.151,8.43z"/>
<g>
	<path fill="#464B6E" d="M15.473,1.11l-1.511-0.302l-0.302,1.51l0.496,0.099l0.135-0.68c0.245,0.51,0.374,1.07,0.374,1.64
		c0,0.871-0.286,1.69-0.829,2.369l0.395,0.315c0.606-0.758,0.939-1.711,0.939-2.685c0-0.661-0.151-1.313-0.443-1.901l0.648,0.129
		L15.473,1.11z"/>
	<path fill="#464B6E" d="M6.004,3.2L5.647,3.557L5.99,3.9C5.852,3.891,5.712,3.883,5.573,3.883c-1.954,0-3.793,0.862-5.046,2.364
		L0.915,6.57c1.157-1.386,2.854-2.182,4.658-2.182c0.128,0,0.257,0.007,0.385,0.016L5.647,4.714l0.357,0.357L6.94,4.136L6.004,3.2z"
		/>
</g>
</svg>
