<?xml version="1.0" encoding="utf-8"?>
<!-- Generator: Adobe Illustrator 16.0.3, SVG Export Plug-In . SVG Version: 6.00 Build 0)  -->
<!DOCTYPE svg PUBLIC "-//W3C//DTD SVG 1.1//EN" "http://www.w3.org/Graphics/SVG/1.1/DTD/svg11.dtd">
<svg version="1.1" id="Capa_1" xmlns="http://www.w3.org/2000/svg" xmlns:xlink="http://www.w3.org/1999/xlink" x="0px" y="0px"
	 width="16px" height="16px" viewBox="0 0 16 16" enable-background="new 0 0 16 16" xml:space="preserve">
<path fill="#ECEFF1" d="M4.263,12.386c-1.019,0-1.925-0.652-2.254-1.623l-0.021-0.073C1.909,10.433,1.876,10.216,1.876,10V5.661
	l-1.543,5.153c-0.199,0.758,0.254,1.543,1.013,1.753l9.841,2.635c0.122,0.032,0.245,0.048,0.365,0.048
	c0.635,0,1.213-0.421,1.376-1.041l0.573-1.823H4.263z"/>
<path fill="#ECEFF1" d="M15.559,2.682V10c0,0.789-0.644,1.432-1.433,1.432H4.263c-0.063,0-0.127-0.007-0.184-0.013
	c-0.669-0.083-1.191-0.63-1.242-1.305C2.831,10.076,2.831,10.038,2.831,10V2.682c0-0.789,0.643-1.432,1.432-1.432h9.863
	C14.915,1.25,15.559,1.893,15.559,2.682z"/>
<path fill="#FCC010" d="M7.286,4.432c0,0.702-0.57,1.272-1.273,1.272S4.74,5.134,4.74,4.432c0-0.703,0.569-1.273,1.272-1.273
	S7.286,3.729,7.286,4.432z"/>
<path fill="#398E3C" d="M15.559,8.211V10c0,0.789-0.644,1.432-1.433,1.432H4.263c-0.063,0-0.127-0.007-0.184-0.013l6.554-6.555
	c0.433-0.433,1.146-0.433,1.578,0L15.559,8.211z"/>
<path fill="#4FB050" d="M11.778,11.432H4.263c-0.063,0-0.127-0.007-0.184-0.013c-0.669-0.083-1.191-0.63-1.242-1.305L5.86,7.092
	c0.433-0.434,1.145-0.434,1.578,0L11.778,11.432z"/>
</svg>
