<?xml version="1.0" encoding="utf-8"?>
<!-- Generator: Adobe Illustrator 16.0.0, SVG Export Plug-In . SVG Version: 6.00 Build 0)  -->
<!DOCTYPE svg PUBLIC "-//W3C//DTD SVG 1.1//EN" "http://www.w3.org/Graphics/SVG/1.1/DTD/svg11.dtd">
<svg version="1.1" id="Capa_1" xmlns="http://www.w3.org/2000/svg" xmlns:xlink="http://www.w3.org/1999/xlink" x="0px" y="0px"
	 width="25px" height="25px" viewBox="0 0 25 25" enable-background="new 0 0 25 25" xml:space="preserve">
<g>
	<linearGradient id="SVGID_1_" gradientUnits="userSpaceOnUse" x1="2.5" y1="12.5" x2="22.5" y2="12.5">
		<stop  offset="0" style="stop-color:#C2D1DA"/>
		<stop  offset="0.132" style="stop-color:#D0DDE3"/>
		<stop  offset="0.3169" style="stop-color:#DFE9EC"/>
		<stop  offset="0.4541" style="stop-color:#E4EDEF"/>
		<stop  offset="0.5583" style="stop-color:#E0E9EC"/>
		<stop  offset="0.6735" style="stop-color:#D4DEE3"/>
		<stop  offset="0.7939" style="stop-color:#BECBD2"/>
		<stop  offset="0.9172" style="stop-color:#A2B1BA"/>
		<stop  offset="1" style="stop-color:#8C9EA7"/>
	</linearGradient>
	<rect x="2.5" y="0.5" fill="url(#SVGID_1_)" width="20" height="24"/>
	<rect x="2.5" y="3.731" fill="#E1CA51" width="20" height="17.773"/>
	<g>
		<path fill="#FFFFFF" stroke="#EDEEF0" stroke-width="0.5" stroke-miterlimit="10" d="M9.172,14.916
			c-0.226,0.087-0.524,0.174-0.896,0.261c-0.371,0.087-0.741,0.13-1.11,0.13c-0.855,0-1.525-0.231-2.01-0.696
			c-0.483-0.464-0.725-1.104-0.725-1.922c0-0.779,0.244-1.407,0.732-1.885c0.489-0.478,1.17-0.716,2.043-0.716
			c0.331,0,0.646,0.03,0.946,0.09c0.299,0.06,0.632,0.178,1,0.355v1.176H9.006c-0.063-0.047-0.155-0.114-0.277-0.201
			c-0.122-0.086-0.238-0.16-0.351-0.221c-0.13-0.072-0.282-0.134-0.458-0.185c-0.175-0.052-0.36-0.078-0.556-0.078
			c-0.229,0-0.438,0.034-0.624,0.101c-0.187,0.067-0.355,0.171-0.504,0.31c-0.142,0.135-0.254,0.306-0.335,0.514
			c-0.082,0.208-0.124,0.447-0.124,0.719c0,0.555,0.148,0.979,0.443,1.273c0.294,0.295,0.73,0.442,1.306,0.442
			c0.05,0,0.104-0.002,0.164-0.005c0.06-0.002,0.114-0.005,0.164-0.009v-0.984H6.852v-0.947h2.32V14.916z"/>
		<path fill="#FFFFFF" stroke="#EDEEF0" stroke-width="0.5" stroke-miterlimit="10" d="M14.979,15.201h-1.338l-0.35-1.013h-1.861
			l-0.351,1.013H9.773l1.857-5.016h1.493L14.979,15.201z M12.979,13.268l-0.619-1.796l-0.619,1.796H12.979z"/>
		<path fill="#FFFFFF" stroke="#EDEEF0" stroke-width="0.5" stroke-miterlimit="10" d="M20.274,15.201h-1.249l-2.135-3.443v3.443
			h-1.188v-5.016h1.551l1.833,2.873v-2.873h1.188V15.201z"/>
	</g>
</g>
</svg>
