<?xml version="1.0" encoding="utf-8"?>
<!-- Generator: Adobe Illustrator 16.0.0, SVG Export Plug-In . SVG Version: 6.00 Build 0)  -->
<!DOCTYPE svg PUBLIC "-//W3C//DTD SVG 1.1//EN" "http://www.w3.org/Graphics/SVG/1.1/DTD/svg11.dtd">
<svg version="1.1" id="Capa_1" xmlns="http://www.w3.org/2000/svg" xmlns:xlink="http://www.w3.org/1999/xlink" x="0px" y="0px"
	 width="25px" height="25px" viewBox="0 0 25 25" enable-background="new 0 0 25 25" xml:space="preserve">
<g>
	<linearGradient id="SVGID_1_" gradientUnits="userSpaceOnUse" x1="2.5005" y1="12.5" x2="22.5" y2="12.5">
		<stop  offset="0" style="stop-color:#C2D1DA"/>
		<stop  offset="0.132" style="stop-color:#D0DDE3"/>
		<stop  offset="0.3169" style="stop-color:#DFE9EC"/>
		<stop  offset="0.4541" style="stop-color:#E4EDEF"/>
		<stop  offset="0.5583" style="stop-color:#E0E9EC"/>
		<stop  offset="0.6735" style="stop-color:#D4DEE3"/>
		<stop  offset="0.7939" style="stop-color:#BECBD2"/>
		<stop  offset="0.9172" style="stop-color:#A2B1BA"/>
		<stop  offset="1" style="stop-color:#8C9EA7"/>
	</linearGradient>
	<rect x="2.5" y="0.5" fill="url(#SVGID_1_)" width="20" height="24"/>
	<rect x="2.5" y="3.731" fill="#00793E" width="20" height="17.773"/>
	<g>
		<path fill="#FFFFFF" d="M9.185,14.916c-0.226,0.087-0.523,0.174-0.895,0.261s-0.742,0.13-1.111,0.13
			c-0.855,0-1.525-0.231-2.009-0.696c-0.484-0.464-0.726-1.104-0.726-1.922c0-0.779,0.244-1.407,0.732-1.885
			s1.169-0.716,2.043-0.716c0.331,0,0.646,0.03,0.945,0.09c0.3,0.06,0.632,0.178,1,0.355v1.176H9.02
			c-0.063-0.047-0.155-0.114-0.277-0.201c-0.122-0.086-0.238-0.16-0.351-0.221c-0.13-0.072-0.283-0.134-0.458-0.185
			c-0.175-0.052-0.36-0.078-0.556-0.078c-0.229,0-0.438,0.034-0.625,0.101c-0.187,0.067-0.354,0.171-0.503,0.31
			c-0.142,0.135-0.254,0.306-0.335,0.514c-0.083,0.208-0.124,0.447-0.124,0.719c0,0.555,0.148,0.979,0.442,1.273
			c0.294,0.295,0.73,0.442,1.307,0.442c0.049,0,0.104-0.002,0.164-0.005c0.06-0.002,0.113-0.005,0.164-0.009v-0.984H6.865v-0.947
			h2.32V14.916z"/>
		<path fill="#FFFFFF" d="M15.236,12.695c0,0.799-0.23,1.435-0.689,1.906c-0.459,0.47-1.094,0.706-1.904,0.706
			c-0.808,0-1.442-0.236-1.901-0.706c-0.459-0.471-0.689-1.106-0.689-1.906c0-0.806,0.229-1.443,0.689-1.912
			c0.459-0.469,1.093-0.703,1.901-0.703c0.806,0,1.439,0.234,1.901,0.703C15.005,11.251,15.236,11.889,15.236,12.695z
			 M13.518,13.966c0.126-0.153,0.219-0.333,0.28-0.541c0.061-0.209,0.091-0.453,0.091-0.733c0-0.301-0.035-0.557-0.104-0.768
			c-0.069-0.211-0.161-0.382-0.273-0.512c-0.115-0.135-0.247-0.233-0.397-0.293c-0.149-0.061-0.305-0.09-0.467-0.09
			c-0.164,0-0.319,0.029-0.465,0.087c-0.144,0.058-0.278,0.155-0.399,0.29c-0.113,0.125-0.204,0.299-0.276,0.521
			c-0.07,0.221-0.106,0.478-0.106,0.77c0,0.299,0.035,0.554,0.104,0.763c0.068,0.21,0.159,0.382,0.271,0.515
			c0.113,0.132,0.245,0.229,0.395,0.292c0.15,0.063,0.309,0.095,0.476,0.095s0.326-0.032,0.476-0.096
			C13.272,14.199,13.404,14.101,13.518,13.966z"/>
		<path fill="#FFFFFF" d="M20.784,15.201h-1.501l-1.082-1.646l-1.104,1.646h-1.432l1.782-2.527l-1.745-2.489h1.496l1.046,1.562
			l1.075-1.562h1.438l-1.755,2.437L20.784,15.201z"/>
	</g>
</g>
</svg>
