<?xml version="1.0" encoding="utf-8"?>
<!-- Generator: Adobe Illustrator 16.0.0, SVG Export Plug-In . SVG Version: 6.00 Build 0)  -->
<!DOCTYPE svg PUBLIC "-//W3C//DTD SVG 1.1//EN" "http://www.w3.org/Graphics/SVG/1.1/DTD/svg11.dtd">
<svg version="1.1" id="Capa_1" xmlns="http://www.w3.org/2000/svg" xmlns:xlink="http://www.w3.org/1999/xlink" x="0px" y="0px"
	 width="25px" height="25px" viewBox="0 0 25 25" enable-background="new 0 0 25 25" xml:space="preserve">
<g>
	<linearGradient id="SVGID_1_" gradientUnits="userSpaceOnUse" x1="3" y1="12.5" x2="23" y2="12.5">
		<stop  offset="0" style="stop-color:#C2D1DA"/>
		<stop  offset="0.132" style="stop-color:#D0DDE3"/>
		<stop  offset="0.3169" style="stop-color:#DFE9EC"/>
		<stop  offset="0.4541" style="stop-color:#E4EDEF"/>
		<stop  offset="0.5583" style="stop-color:#E0E9EC"/>
		<stop  offset="0.6735" style="stop-color:#D4DEE3"/>
		<stop  offset="0.7939" style="stop-color:#BECBD2"/>
		<stop  offset="0.9172" style="stop-color:#A2B1BA"/>
		<stop  offset="1" style="stop-color:#8C9EA7"/>
	</linearGradient>
	<rect x="3" y="0.5" fill="url(#SVGID_1_)" width="20" height="24"/>
	<rect x="3" y="3.731" fill="#C64A38" width="20" height="17.773"/>
	<g>
		<path fill="#FFFFFF" d="M13.288,15.201h-1.297v-2.21h-1.915v2.21H8.779v-5.016h1.297v1.835h1.915v-1.835h1.297V15.201z"/>
		<path fill="#FFFFFF" d="M17.587,15.201h-3.158v-0.663c0.241-0.174,0.483-0.358,0.726-0.555c0.242-0.195,0.437-0.365,0.582-0.507
			c0.219-0.21,0.373-0.394,0.465-0.55c0.092-0.157,0.138-0.311,0.138-0.464c0-0.183-0.059-0.325-0.177-0.424
			c-0.118-0.1-0.288-0.15-0.509-0.15c-0.166,0-0.34,0.035-0.523,0.103c-0.183,0.069-0.353,0.156-0.509,0.262h-0.087V11.36
			c0.128-0.055,0.317-0.111,0.566-0.167c0.249-0.055,0.499-0.083,0.749-0.083c0.505,0,0.89,0.106,1.154,0.317
			c0.265,0.211,0.396,0.51,0.396,0.896c0,0.253-0.063,0.495-0.19,0.722c-0.127,0.229-0.32,0.464-0.582,0.706
			c-0.164,0.151-0.329,0.29-0.494,0.417c-0.166,0.127-0.284,0.216-0.354,0.266h1.807V15.201z"/>
	</g>
</g>
</svg>
