<?xml version="1.0" encoding="utf-8"?>
<!-- Generator: Adobe Illustrator 16.0.0, SVG Export Plug-In . SVG Version: 6.00 Build 0)  -->
<!DOCTYPE svg PUBLIC "-//W3C//DTD SVG 1.1//EN" "http://www.w3.org/Graphics/SVG/1.1/DTD/svg11.dtd">
<svg version="1.1" id="Capa_1" xmlns="http://www.w3.org/2000/svg" xmlns:xlink="http://www.w3.org/1999/xlink" x="0px" y="0px"
	 width="32px" height="25px" viewBox="0 0 32 25" enable-background="new 0 0 32 25" xml:space="preserve">
<path fill="#D8DD0B" d="M1.5,17.25C1.5,18.217,0.828,19,0,19l0,0c-0.828,0-1.5-0.783-1.5-1.75v-9.5C-1.5,6.785-0.828,6,0,6l0,0
	c0.828,0,1.5,0.784,1.5,1.75V17.25z"/>
<g>
	<path fill="#2B2B2B" d="M17.861,0.298C11.124,0.298,5.66,5.763,5.66,12.5c0,6.736,5.463,12.203,12.201,12.203
		S30.063,19.238,30.063,12.5C30.063,5.762,24.6,0.298,17.861,0.298z M17.861,22.369c-5.451,0-9.869-4.42-9.869-9.869
		c0-5.451,4.418-9.868,9.869-9.868c5.449,0,9.869,4.417,9.869,9.868C27.73,17.949,23.311,22.369,17.861,22.369z"/>
	<g>
		<path fill="#2B2B2B" stroke="#2B2B2B" stroke-width="0.75" stroke-miterlimit="10" d="M22.398,13.158h-9.069
			c-0.362,0-0.658-0.295-0.658-0.657s0.296-0.658,0.658-0.658h9.069c0.36,0,0.651,0.296,0.651,0.658S22.76,13.158,22.398,13.158z"/>
	</g>
</g>
</svg>
