<svg id="Capa_1" enable-background="new 0 0 512 512" height="512" viewBox="0 0 512 512" width="512" xmlns="http://www.w3.org/2000/svg"><g><path d="m476.424 148.787h-22.451v-59.482c0-12.404-10.091-22.495-22.494-22.495h-20.529v-49.313c-.001-9.648-7.85-17.497-17.498-17.497h-274.905c-9.647 0-17.497 7.849-17.497 17.497v49.313h-20.528c-12.404 0-22.495 10.091-22.495 22.495v59.482h-22.451c-19.569 0-35.49 15.921-35.49 35.49v192.6c0 19.57 15.921 35.491 35.49 35.491h65.475v15.749c0 4.142 3.358 7.5 7.5 7.5s7.5-3.358 7.5-7.5v-23.249-83.042h279.898v83.042 89.635c0 1.376-1.12 2.497-2.497 2.497h-274.905c-1.376 0-2.497-1.12-2.497-2.497v-31.386c0-4.142-3.358-7.5-7.5-7.5s-7.5 3.358-7.5 7.5v31.386c0 9.647 7.849 17.497 17.497 17.497h274.905c9.647 0 17.497-7.849 17.497-17.497v-82.135h65.475c19.569 0 35.49-15.921 35.49-35.491v-40.142c0-4.142-3.357-7.5-7.5-7.5s-7.5 3.358-7.5 7.5v40.142c0 11.299-9.192 20.491-20.49 20.491h-27.987v-104.467c0-10.75-8.746-19.496-19.496-19.496h-345.881c-10.75 0-19.496 8.746-19.496 19.496v104.467h-27.988c-11.298 0-20.49-9.192-20.49-20.491v-132.456h481.828v57.314c0 4.142 3.357 7.5 7.5 7.5s7.5-3.358 7.5-7.5c0-51.502 0-35.473 0-117.458 0-19.569-15.921-35.49-35.49-35.49zm-397.86 144.114c0-2.479 2.017-4.496 4.496-4.496h345.88c2.479 0 4.496 2.017 4.496 4.496v104.467h-22.487v-83.042c0-4.142-3.357-7.5-7.5-7.5h-294.898c-4.142 0-7.5 3.358-7.5 7.5v83.042h-22.487zm332.385-211.091h20.529c4.132 0 7.494 3.362 7.494 7.495v59.482h-28.023zm-294.898-7.5v-56.813c0-1.376 1.12-2.497 2.497-2.497h274.905c1.377 0 2.497 1.12 2.497 2.497v56.813 74.477h-279.899zm-43.024 14.995c0-4.133 3.362-7.495 7.495-7.495h20.529v66.977h-28.024zm423.887 140.115h-481.828v-45.143c0-11.298 9.192-20.49 20.49-20.49h440.848c11.298 0 20.49 9.192 20.49 20.49z"/><path d="m353.723 347.932h-195.446c-4.142 0-7.5 3.358-7.5 7.5s3.358 7.5 7.5 7.5h195.446c4.143 0 7.5-3.358 7.5-7.5s-3.358-7.5-7.5-7.5z"/><path d="m353.723 383.919h-91.725c-4.143 0-7.5 3.358-7.5 7.5s3.357 7.5 7.5 7.5h91.725c4.143 0 7.5-3.358 7.5-7.5s-3.358-7.5-7.5-7.5z"/><path d="m353.723 419.907h-91.725c-4.143 0-7.5 3.358-7.5 7.5s3.357 7.5 7.5 7.5h91.725c4.143 0 7.5-3.358 7.5-7.5s-3.358-7.5-7.5-7.5z"/><path d="m353.723 455.895h-91.725c-4.143 0-7.5 3.358-7.5 7.5s3.357 7.5 7.5 7.5h91.725c4.143 0 7.5-3.358 7.5-7.5s-3.358-7.5-7.5-7.5z"/><path d="m150.777 458.396c0 6.892 5.607 12.499 12.499 12.499h61.979c6.892 0 12.498-5.607 12.498-12.499v-61.979c0-6.892-5.606-12.498-12.498-12.498h-61.979c-6.892 0-12.499 5.606-12.499 12.498zm15-59.477h56.975v56.975h-56.975z"/><path d="m450.747 175.109h-36.487c-11.853 0-21.495 9.643-21.495 21.495s9.643 21.495 21.495 21.495h36.487c11.853 0 21.495-9.643 21.495-21.495s-9.642-21.495-21.495-21.495zm0 27.99h-36.487c-3.581 0-6.495-2.914-6.495-6.495s2.914-6.495 6.495-6.495h36.487c3.581 0 6.495 2.914 6.495 6.495s-2.914 6.495-6.495 6.495z"/></g></svg>