<?xml version="1.0" encoding="utf-8"?>
<!-- Generator: Adobe Illustrator 16.0.0, SVG Export Plug-In . SVG Version: 6.00 Build 0)  -->
<!DOCTYPE svg PUBLIC "-//W3C//DTD SVG 1.1//EN" "http://www.w3.org/Graphics/SVG/1.1/DTD/svg11.dtd">
<svg version="1.1" id="Capa_1" xmlns="http://www.w3.org/2000/svg" xmlns:xlink="http://www.w3.org/1999/xlink" x="0px" y="0px"
	 width="100px" height="150px" viewBox="0 0 100 150" enable-background="new 0 0 100 150" xml:space="preserve">
<g>
	<image overflow="visible" width="140" height="567" xlink:href="9D9A9A52.png"  transform="matrix(0.24 0 0 0.24 24.5664 6.2319)">
	</image>
	<polygon fill="#00356F" points="3.976,114.782 24.561,124.516 24.561,114.782 	"/>
	<polygon fill="#00356F" points="3.976,33.748 24.561,23.988 24.561,33.748 	"/>
	<path fill="#4A72B2" d="M4.035,33.748h73.714c6.06,0,10.972,3.445,10.972,7.694v65.645c0,4.25-4.912,7.695-10.972,7.695H4.035"/>
</g>
<g>
	<g>
		<path fill="#FFFFFF" stroke="#FFFFFF" stroke-miterlimit="10" d="M71.342,84.281V65.238c0-2.394-1.941-4.356-4.349-4.356h-5.244
			v-9.959c0-1.533-1.254-2.779-2.787-2.779H33.786c-1.526,0-2.787,1.247-2.787,2.779v9.959h-5.237c-2.429,0-4.349,1.963-4.349,4.356
			v19.043c0,2.393,1.92,4.313,4.349,4.313h5.237v8.397c0,1.519,1.261,2.794,2.787,2.794h25.176c1.533,0,2.787-1.275,2.787-2.794
			v-8.397h5.244C69.4,88.594,71.342,86.674,71.342,84.281z M33.084,50.923c0-0.372,0.308-0.702,0.702-0.702h25.176
			c0.401,0,0.695,0.33,0.695,0.702v9.959H33.084V50.923z M59.657,96.991c0,0.357-0.266,0.702-0.667,0.702H33.786
			c-0.395,0-0.702-0.345-0.702-0.702V75.798h26.573V96.991L59.657,96.991z M69.257,84.281c0,1.261-1.046,2.235-2.264,2.235h-5.244
			V74.752c0-0.587-0.466-1.046-1.011-1.046H32.009c-0.559,0-1.01,0.459-1.01,1.046v11.765h-5.237c-1.254,0-2.264-0.975-2.264-2.235
			V65.238c0-1.232,1.01-2.235,2.264-2.235h41.231c1.218,0,2.264,1.003,2.264,2.235V84.281L69.257,84.281z"/>
		<path fill="#FFFFFF" stroke="#FFFFFF" stroke-miterlimit="10" d="M28.85,67.287c-0.301,0-0.552,0.114-0.76,0.301
			c-0.179,0.187-0.314,0.458-0.314,0.745c0,0.258,0.136,0.544,0.314,0.73c0.208,0.172,0.459,0.315,0.76,0.315
			c0.279,0,0.523-0.144,0.717-0.315c0.179-0.187,0.293-0.473,0.293-0.73c0-0.287-0.114-0.559-0.293-0.745
			C29.373,67.401,29.129,67.287,28.85,67.287z"/>
		<path fill="#FFFFFF" stroke="#FFFFFF" stroke-miterlimit="10" d="M38.994,87.806h14.795c0.552,0,1.039-0.458,1.039-1.074
			c0-0.559-0.487-1.018-1.039-1.018H38.994c-0.58,0-1.046,0.459-1.046,1.018C37.948,87.348,38.414,87.806,38.994,87.806z"/>
		<path fill="#FFFFFF" stroke="#FFFFFF" stroke-miterlimit="10" d="M38.994,93.724h14.795c0.552,0,1.039-0.501,1.039-1.046
			c0-0.587-0.487-1.074-1.039-1.074H38.994c-0.58,0-1.046,0.487-1.046,1.074C37.948,93.223,38.414,93.724,38.994,93.724z"/>
		<path fill="#FFFFFF" stroke="#FFFFFF" stroke-miterlimit="10" d="M38.994,81.859h14.795c0.552,0,1.039-0.458,1.039-1.018
			c0-0.602-0.487-1.074-1.039-1.074H38.994c-0.58,0-1.046,0.473-1.046,1.074C37.948,81.401,38.414,81.859,38.994,81.859z"/>
	</g>
</g>
</svg>
