<?xml version="1.0" encoding="utf-8"?>
<!-- Generator: Adobe Illustrator 16.0.0, SVG Export Plug-In . SVG Version: 6.00 Build 0)  -->
<!DOCTYPE svg PUBLIC "-//W3C//DTD SVG 1.1//EN" "http://www.w3.org/Graphics/SVG/1.1/DTD/svg11.dtd">
<svg version="1.1" id="Capa_1" xmlns="http://www.w3.org/2000/svg" xmlns:xlink="http://www.w3.org/1999/xlink" x="0px" y="0px"
	 width="50px" height="20px" viewBox="0 0 50 20" enable-background="new 0 0 50 20" xml:space="preserve">
<path fill="#76AADB" d="M49,16c0,1.657-1.344,3-3,3H4c-1.657,0-3-1.343-3-3V4c0-1.657,1.343-3,3-3h42c1.656,0,3,1.343,3,3V16z"/>
<g>
	<path fill="#FFFFFF" d="M4.505,7.405v5.389H3.81V7.405H4.505z"/>
	<path fill="#FFFFFF" d="M5.776,9.972c0-0.399-0.008-0.727-0.031-1.047h0.623l0.04,0.639h0.017c0.191-0.367,0.639-0.727,1.279-0.727
		c0.535,0,1.367,0.319,1.367,1.646v2.311H8.367v-2.229c0-0.624-0.231-1.144-0.896-1.144c-0.464,0-0.824,0.327-0.943,0.719
		c-0.032,0.088-0.049,0.208-0.049,0.328v2.326H5.776V9.972z"/>
	<path fill="#FFFFFF" d="M10.121,12.075c0.208,0.136,0.575,0.278,0.927,0.278c0.512,0,0.752-0.256,0.752-0.576
		c0-0.334-0.199-0.52-0.719-0.711c-0.696-0.248-1.023-0.631-1.023-1.095c0-0.623,0.504-1.135,1.334-1.135
		c0.393,0,0.736,0.111,0.952,0.24l-0.176,0.512c-0.151-0.097-0.432-0.225-0.792-0.225c-0.416,0-0.647,0.24-0.647,0.527
		c0,0.32,0.231,0.465,0.735,0.656c0.672,0.256,1.016,0.593,1.016,1.167c0,0.68-0.527,1.159-1.447,1.159
		c-0.424,0-0.815-0.104-1.087-0.265L10.121,12.075z"/>
	<path fill="#FFFFFF" d="M14.232,7.813v1.111h1.007V9.46h-1.007v2.088c0,0.479,0.136,0.751,0.528,0.751
		c0.184,0,0.319-0.023,0.407-0.048l0.032,0.526c-0.137,0.058-0.352,0.097-0.624,0.097c-0.327,0-0.591-0.104-0.759-0.295
		c-0.201-0.209-0.272-0.554-0.272-1.009V9.46h-0.6V8.925h0.6V7.997L14.232,7.813z"/>
	<path fill="#FFFFFF" d="M18.175,12.794l-0.056-0.487h-0.024c-0.215,0.305-0.631,0.575-1.183,0.575c-0.784,0-1.184-0.551-1.184-1.11
		c0-0.937,0.831-1.447,2.327-1.439v-0.079c0-0.319-0.088-0.896-0.88-0.896c-0.36,0-0.735,0.111-1.007,0.287l-0.16-0.463
		c0.319-0.208,0.783-0.344,1.271-0.344c1.183,0,1.471,0.807,1.471,1.583v1.446c0,0.336,0.016,0.663,0.064,0.928H18.175z
		 M18.071,10.818c-0.768-0.016-1.639,0.121-1.639,0.871c0,0.457,0.303,0.672,0.663,0.672c0.504,0,0.823-0.318,0.936-0.646
		c0.024-0.07,0.04-0.15,0.04-0.224V10.818L18.071,10.818z"/>
	<path fill="#FFFFFF" d="M19.889,7.118h0.704v5.676h-0.704V7.118z"/>
	<path fill="#FFFFFF" d="M23.919,12.794l-0.055-0.487h-0.025c-0.215,0.305-0.631,0.575-1.183,0.575c-0.784,0-1.184-0.551-1.184-1.11
		c0-0.937,0.831-1.447,2.327-1.439v-0.079c0-0.319-0.088-0.896-0.88-0.896c-0.36,0-0.735,0.111-1.007,0.287l-0.16-0.463
		c0.319-0.208,0.783-0.344,1.271-0.344c1.184,0,1.471,0.807,1.471,1.583v1.446c0,0.336,0.016,0.663,0.064,0.928H23.919z
		 M23.815,10.818c-0.768-0.016-1.639,0.121-1.639,0.871c0,0.457,0.303,0.672,0.663,0.672c0.503,0,0.823-0.318,0.937-0.646
		c0.023-0.07,0.039-0.15,0.039-0.224V10.818z"/>
	<path fill="#FFFFFF" d="M28.391,12.65c-0.185,0.097-0.593,0.224-1.111,0.224c-1.166,0-1.926-0.791-1.926-1.976
		c0-1.19,0.814-2.055,2.079-2.055c0.416,0,0.782,0.104,0.977,0.199l-0.16,0.545c-0.168-0.097-0.432-0.185-0.816-0.185
		c-0.887,0-1.367,0.655-1.367,1.464c0,0.895,0.576,1.447,1.345,1.447c0.399,0,0.664-0.104,0.862-0.193L28.391,12.65z"/>
	<path fill="#FFFFFF" d="M29.999,7.837c0.008,0.24-0.168,0.432-0.447,0.432c-0.247,0-0.424-0.191-0.424-0.432
		c0-0.248,0.185-0.439,0.438-0.439C29.831,7.397,29.999,7.589,29.999,7.837z M29.216,12.794V8.925h0.703v3.869H29.216z"/>
	<path fill="#FFFFFF" d="M34.591,10.827c0,1.432-0.991,2.055-1.928,2.055c-1.047,0-1.854-0.768-1.854-1.989
		c0-1.295,0.848-2.056,1.92-2.056C33.839,8.837,34.591,9.644,34.591,10.827z M31.521,10.868c0,0.847,0.485,1.485,1.174,1.485
		c0.672,0,1.176-0.631,1.176-1.502c0-0.656-0.328-1.487-1.158-1.487C31.88,9.364,31.521,10.132,31.521,10.868z"/>
	<path fill="#FFFFFF" d="M35.48,9.972c0-0.399-0.01-0.727-0.032-1.047h0.625l0.038,0.639h0.017c0.19-0.367,0.642-0.727,1.279-0.727
		c0.534,0,1.366,0.319,1.366,1.646v2.311H38.07v-2.229c0-0.624-0.231-1.144-0.896-1.144c-0.463,0-0.821,0.327-0.942,0.719
		c-0.031,0.088-0.047,0.208-0.047,0.328v2.326h-0.703V9.972H35.48z"/>
	<path fill="#FFFFFF" d="M40.313,10.986c0.016,0.951,0.623,1.345,1.328,1.345c0.504,0,0.807-0.088,1.069-0.2l0.121,0.503
		c-0.248,0.113-0.672,0.24-1.287,0.24c-1.19,0-1.903-0.783-1.903-1.951c0-1.166,0.688-2.086,1.815-2.086
		c1.262,0,1.599,1.111,1.599,1.822c0,0.146-0.017,0.256-0.023,0.327H40.313z M42.374,10.483c0.008-0.447-0.185-1.143-0.976-1.143
		c-0.711,0-1.022,0.655-1.08,1.143H42.374z"/>
	<path fill="#FFFFFF" d="M43.831,12.075c0.209,0.136,0.576,0.278,0.928,0.278c0.513,0,0.752-0.256,0.752-0.576
		c0-0.334-0.198-0.52-0.719-0.711c-0.694-0.248-1.022-0.631-1.022-1.095c0-0.623,0.504-1.135,1.334-1.135
		c0.393,0,0.735,0.111,0.953,0.24l-0.179,0.512c-0.149-0.097-0.433-0.225-0.791-0.225c-0.416,0-0.646,0.24-0.646,0.527
		c0,0.32,0.229,0.465,0.733,0.656c0.673,0.256,1.017,0.593,1.017,1.167c0,0.68-0.527,1.159-1.447,1.159
		c-0.424,0-0.814-0.104-1.088-0.265L43.831,12.075z"/>
</g>
</svg>
