<?xml version="1.0" encoding="utf-8"?>
<!-- Generator: Adobe Illustrator 16.0.0, SVG Export Plug-In . SVG Version: 6.00 Build 0)  -->
<!DOCTYPE svg PUBLIC "-//W3C//DTD SVG 1.1//EN" "http://www.w3.org/Graphics/SVG/1.1/DTD/svg11.dtd">
<svg version="1.1" id="Capa_1" xmlns="http://www.w3.org/2000/svg" xmlns:xlink="http://www.w3.org/1999/xlink" x="0px" y="0px"
	 width="25px" height="25px" viewBox="0 0 25 25" enable-background="new 0 0 25 25" xml:space="preserve">
<g>
	<linearGradient id="SVGID_1_" gradientUnits="userSpaceOnUse" x1="2.5005" y1="12.5" x2="22.5" y2="12.5">
		<stop  offset="0" style="stop-color:#C2D1DA"/>
		<stop  offset="0.132" style="stop-color:#D0DDE3"/>
		<stop  offset="0.3169" style="stop-color:#DFE9EC"/>
		<stop  offset="0.4541" style="stop-color:#E4EDEF"/>
		<stop  offset="0.5583" style="stop-color:#E0E9EC"/>
		<stop  offset="0.6735" style="stop-color:#D4DEE3"/>
		<stop  offset="0.7939" style="stop-color:#BECBD2"/>
		<stop  offset="0.9172" style="stop-color:#A2B1BA"/>
		<stop  offset="1" style="stop-color:#8C9EA7"/>
	</linearGradient>
	<rect x="2.5" y="0.5" fill="url(#SVGID_1_)" width="20" height="24"/>
	<rect x="2.5" y="3.731" fill="#3F74B5" width="20" height="17.773"/>
	<g>
		<path fill="#FFFFFF" d="M9.176,15.201H5.55v-5.016h1.296v4.046h2.33V15.201z"/>
		<path fill="#FFFFFF" d="M14.603,15.201h-1.339l-0.35-1.013h-1.861l-0.35,1.013H9.396l1.857-5.016h1.492L14.603,15.201z
			 M12.602,13.268l-0.619-1.796l-0.619,1.796H12.602z"/>
		<path fill="#FFFFFF" d="M20.167,15.201h-1.583l-1.368-1.839h-0.601v1.839h-1.29v-5.016H17.5c0.297,0,0.552,0.016,0.767,0.05
			c0.214,0.034,0.413,0.107,0.601,0.22c0.189,0.112,0.339,0.257,0.451,0.436c0.11,0.179,0.167,0.402,0.167,0.672
			c0,0.371-0.086,0.673-0.259,0.907c-0.172,0.233-0.418,0.427-0.737,0.582L20.167,15.201z M18.145,11.722
			c0-0.126-0.025-0.234-0.077-0.323c-0.053-0.09-0.141-0.161-0.268-0.213c-0.088-0.036-0.19-0.058-0.307-0.065
			c-0.117-0.008-0.254-0.012-0.409-0.012h-0.469v1.351h0.398c0.207,0,0.38-0.01,0.52-0.03s0.257-0.067,0.352-0.139
			c0.09-0.069,0.156-0.146,0.197-0.23C18.124,11.976,18.145,11.863,18.145,11.722z"/>
	</g>
</g>
</svg>
