<?xml version="1.0" encoding="utf-8"?>
<!-- Generator: Adobe Illustrator 16.0.0, SVG Export Plug-In . SVG Version: 6.00 Build 0)  -->
<!DOCTYPE svg PUBLIC "-//W3C//DTD SVG 1.1//EN" "http://www.w3.org/Graphics/SVG/1.1/DTD/svg11.dtd">
<svg version="1.1" id="Capa_1" xmlns="http://www.w3.org/2000/svg" xmlns:xlink="http://www.w3.org/1999/xlink" x="0px" y="0px"
	 width="25px" height="25px" viewBox="0 0 25 25" enable-background="new 0 0 25 25" xml:space="preserve">
<g>
	<g>
		<path fill="#030104" d="M20.241,17.34c-0.099,0-0.198-0.036-0.275-0.109l-4.639-4.352c-0.162-0.151-0.17-0.407-0.018-0.569
			c0.152-0.164,0.406-0.171,0.569-0.018l4.639,4.352c0.162,0.151,0.17,0.407,0.018,0.569C20.455,17.297,20.35,17.34,20.241,17.34z"
			/>
		<path fill="#030104" d="M4.758,17.34c-0.107,0-0.214-0.043-0.294-0.127c-0.152-0.162-0.144-0.418,0.018-0.569l4.64-4.352
			c0.163-0.151,0.418-0.145,0.57,0.018c0.152,0.162,0.145,0.418-0.018,0.569l-4.64,4.352C4.956,17.304,4.857,17.34,4.758,17.34z"/>
	</g>
	<path fill="#030104" d="M22.984,21.387H2.015C0.904,21.387,0,20.482,0,19.371V5.628c0-1.112,0.904-2.015,2.015-2.015h20.969
		C24.096,3.613,25,4.517,25,5.628v13.743C25,20.482,24.096,21.387,22.984,21.387z M2.015,4.419c-0.667,0-1.209,0.542-1.209,1.209
		v13.743c0,0.666,0.542,1.209,1.209,1.209h20.969c0.667,0,1.209-0.543,1.209-1.209V5.628c0-0.667-0.542-1.209-1.209-1.209H2.015z"/>
	<path fill="#030104" d="M12.5,14.525c-0.536,0-1.072-0.179-1.48-0.534L0.669,4.962c-0.167-0.146-0.185-0.401-0.04-0.569
		c0.148-0.167,0.402-0.183,0.569-0.039l10.351,9.029c0.515,0.449,1.386,0.449,1.899,0l10.338-9.014
		c0.168-0.146,0.422-0.13,0.569,0.039c0.146,0.168,0.13,0.422-0.038,0.569L13.98,13.99C13.571,14.347,13.036,14.525,12.5,14.525z"/>
</g>
</svg>
