<?xml version="1.0" encoding="utf-8"?>
<!-- Generator: Adobe Illustrator 16.0.0, SVG Export Plug-In . SVG Version: 6.00 Build 0)  -->
<!DOCTYPE svg PUBLIC "-//W3C//DTD SVG 1.1//EN" "http://www.w3.org/Graphics/SVG/1.1/DTD/svg11.dtd">
<svg version="1.1" id="Capa_1" xmlns="http://www.w3.org/2000/svg" xmlns:xlink="http://www.w3.org/1999/xlink" x="0px" y="0px"
	 width="25px" height="25px" viewBox="0 0 25 25" enable-background="new 0 0 25 25" xml:space="preserve">
<g>
	<path fill="#030104" d="M22.273,3.864V0.227H0v21.364h3.182v3.183H25V3.864H22.273z M0.909,20.682V1.136h20.454v2.728H3.182v16.818
		H0.909z M24.091,23.863h-20v-2.272V4.773h18.183h1.817V23.863z"/>
	<path fill="#030104" d="M19.091,13.863h-4.546V9.318c0-0.251-0.203-0.455-0.454-0.455s-0.454,0.203-0.454,0.455v4.545H9.091
		c-0.251,0-0.455,0.203-0.455,0.455c0,0.251,0.203,0.455,0.455,0.455h4.546v4.545c0,0.251,0.203,0.455,0.454,0.455
		s0.454-0.204,0.454-0.455v-4.545h4.546c0.251,0,0.454-0.204,0.454-0.455C19.545,14.066,19.342,13.863,19.091,13.863z"/>
</g>
</svg>
