<?xml version="1.0" encoding="utf-8"?>
<!-- Generator: Adobe Illustrator 16.0.3, SVG Export Plug-In . SVG Version: 6.00 Build 0)  -->
<!DOCTYPE svg PUBLIC "-//W3C//DTD SVG 1.1//EN" "http://www.w3.org/Graphics/SVG/1.1/DTD/svg11.dtd">
<svg version="1.1" id="Capa_1" xmlns="http://www.w3.org/2000/svg" xmlns:xlink="http://www.w3.org/1999/xlink" x="0px" y="0px"
	 width="50px" height="50px" viewBox="0 0 50 50" enable-background="new 0 0 50 50" xml:space="preserve">
<g>
	<g>
		<path fill="#005496" d="M24.998,1.182c-11.125,0-20.178,9.052-20.178,20.18c0,6.337,5.603,13.877,8.941,17.809
			c2.126,2.503,8.753,9.647,11.236,9.647c3.005,0,11.187-9.553,11.27-9.65c3.326-3.925,8.912-11.46,8.912-17.806
			C45.18,10.234,36.127,1.182,24.998,1.182z M37.76,21.213c0,6.993-5.689,12.683-12.684,12.683c-6.992,0-12.683-5.689-12.683-12.683
			c0-6.994,5.688-12.683,12.683-12.683S37.76,14.219,37.76,21.213z"/>
	</g>
</g>
<g>
	<g>
		<path fill="#FAF3F4" d="M35.801,20.274h-9.339c-0.31,0-0.563,0.252-0.563,0.563v1.808c0,0.311,0.253,0.563,0.563,0.563h9.339
			c0.312,0,0.563-0.252,0.563-0.563v-1.808C36.363,20.526,36.112,20.274,35.801,20.274L35.801,20.274z"/>
		<path fill="#DAEBEB" d="M35.801,20.274h-4.669v2.933h4.669c0.312,0,0.563-0.252,0.563-0.563v-1.808
			C36.363,20.526,36.112,20.274,35.801,20.274L35.801,20.274z"/>
		<g>
			<g>
				<path fill="#BCE9F8" d="M18.027,15.715h8.435v5.121h-8.435V15.715z"/>
				<path fill="#9CE0F6" d="M22.245,15.715h4.217v5.121h-4.217V15.715z"/>
				<path fill="#F2D231" d="M26.462,15.153h-8.435c-0.311,0-0.563,0.251-0.563,0.563v5.121v6.327c0,0.642,0.522,1.165,1.165,1.165
					h7.23c0.642,0,1.164-0.523,1.164-1.165v-6.327v-5.121C27.024,15.404,26.773,15.153,26.462,15.153L26.462,15.153z M18.59,16.278
					h7.31v3.996h-7.31V16.278z"/>
				<path fill="#E79D26" d="M26.462,15.153h-4.217v1.125h3.654v3.996h-3.654v8.054h3.615c0.642,0,1.164-0.523,1.164-1.165v-6.327
					v-5.121C27.024,15.404,26.773,15.153,26.462,15.153L26.462,15.153z"/>
			</g>
		</g>
		<path fill="#E79D25" d="M26.161,12.743h-7.833c-0.642,0-1.164,0.522-1.164,1.165v1.808c0,0.311,0.251,0.563,0.563,0.563h9.037
			c0.311,0,0.563-0.252,0.563-0.563v-1.808C27.326,13.265,26.804,12.743,26.161,12.743L26.161,12.743z"/>
		<path fill="#DF6426" d="M26.161,12.743h-3.916v3.535h4.519c0.311,0,0.563-0.252,0.563-0.563v-1.808
			C27.326,13.265,26.804,12.743,26.161,12.743L26.161,12.743z"/>
	</g>
	<path fill="#DD4A4A" d="M28.524,20.274l-1.466,2.933h1.258l1.466-2.933H28.524z"/>
	<path fill="#DD4A4A" d="M30.332,20.274l-1.466,2.933h1.258l1.466-2.933H30.332z"/>
	<g>
		<path fill="#CF0050" d="M32.14,20.274l-1.466,2.933h1.258l1.466-2.933H32.14z"/>
		<path fill="#CF0050" d="M33.947,20.274l-1.466,2.933h1.257l1.467-2.933H33.947z"/>
	</g>
</g>
</svg>
