<?xml version="1.0" encoding="utf-8"?>
<!-- Generator: Adobe Illustrator 16.0.3, SVG Export Plug-In . SVG Version: 6.00 Build 0)  -->
<!DOCTYPE svg PUBLIC "-//W3C//DTD SVG 1.1//EN" "http://www.w3.org/Graphics/SVG/1.1/DTD/svg11.dtd">
<svg version="1.1" id="Capa_1" xmlns="http://www.w3.org/2000/svg" xmlns:xlink="http://www.w3.org/1999/xlink" x="0px" y="0px"
	 width="50px" height="50px" viewBox="50 -25.917 50 50" enable-background="new 50 -25.917 50 50" xml:space="preserve">
<g>
	<g>
		<path fill="#005496" d="M74.737-24.917c-11.125,0-20.179,9.052-20.179,20.18c0,6.337,5.603,13.877,8.942,17.809
			c2.126,2.502,8.753,9.647,11.237,9.647c3.004,0,11.186-9.553,11.269-9.65c3.326-3.925,8.912-11.46,8.912-17.806
			C94.918-15.865,85.865-24.917,74.737-24.917z M87.498-4.886c0,6.993-5.689,12.683-12.683,12.683
			c-6.993,0-12.683-5.689-12.683-12.683c0-6.994,5.689-12.683,12.683-12.683C81.809-17.569,87.498-11.88,87.498-4.886z"/>
	</g>
	<g>
		<g>
			<polygon fill-rule="evenodd" clip-rule="evenodd" fill="#005496" points="70.589,-0.134 75.634,4.039 74.061,4.039 70.575,0.613 
				71.151,0.613 			"/>
			<path fill-rule="evenodd" clip-rule="evenodd" fill="#005496" d="M73.237,0.386l-2.151-2.292l6.967,5.938h-1.911l-3.46-3.472
				h0.568C73.25,0.559,73.45,0.581,73.237,0.386z"/>
			<path fill-rule="evenodd" clip-rule="evenodd" fill="#005496" d="M75.1,0.53c0.509,0.032,0.44-0.289,0.44-0.289l-3.954-3.992
				l8.118,7.205c0,0-0.515,0.534-1.274,0.577L75.1,0.53z"/>
			<path fill-rule="evenodd" clip-rule="evenodd" fill="#005496" d="M76.353-0.474l0.173-0.625l-4.414-4.584l8.823,7.909
				c0,0-0.258,0.625-0.989,1.098L76.353-0.474z"/>
			<path fill-rule="evenodd" clip-rule="evenodd" fill="#005496" d="M76.86-2.325L77.02-2.91l-4.366-4.704l8.867,8.255
				c0,0-0.139,0.693-0.481,1.434L76.86-2.325z"/>
			<polygon fill-rule="evenodd" clip-rule="evenodd" fill="#005496" points="73.132,-9.39 81.986,-1.051 81.614,0.302 
				77.374,-4.202 77.519,-4.726 			"/>
			<polygon fill-rule="evenodd" clip-rule="evenodd" fill="#005496" points="74.307,-10.718 82.492,-2.889 82.101,-1.466 
				77.885,-6.043 78.004,-6.477 			"/>
			<polygon fill-rule="evenodd" clip-rule="evenodd" fill="#005496" points="76.744,-10.725 82.985,-4.708 82.61,-3.315 
				78.422,-8.011 78.575,-8.567 			"/>
			<polygon fill-rule="evenodd" clip-rule="evenodd" fill="#005496" points="79.149,-10.649 78.99,-10.065 83.098,-5.116 
				83.472,-6.477 			"/>
		</g>
		<g>
			<polygon fill-rule="evenodd" clip-rule="evenodd" fill="#F5A12D" points="79.13,-10.74 76.744,-10.725 73.162,-14.238 
				75.558,-14.238 			"/>
			<path fill-rule="evenodd" clip-rule="evenodd" fill="#F5A12D" d="M72.854-14.238l2.969,3.526c0,0,0,0-1.516-0.007l-3.485-3.4
				c0,0,0.355-0.09,0.794-0.119H72.854z"/>
			<path fill-rule="evenodd" clip-rule="evenodd" fill="#F5A12D" d="M69.079-13.039l3.941,4.187l-0.349,1.26l-4.334-3.899
				C68.337-11.491,68.434-12.35,69.079-13.039z"/>
			<polygon fill-rule="evenodd" clip-rule="evenodd" fill="#F5A12D" points="68.225,-11.335 72.475,-6.888 72.137,-5.653 
				67.743,-9.657 			"/>
			<polygon fill-rule="evenodd" clip-rule="evenodd" fill="#F5A12D" points="67.662,-9.39 71.95,-4.979 71.607,-3.733 
				67.149,-7.694 			"/>
			<polygon fill-rule="evenodd" clip-rule="evenodd" fill="#F5A12D" points="67.07,-7.412 66.57,-5.733 71.098,-1.892 71.413,-3.04 
							"/>
			<polygon fill-rule="evenodd" clip-rule="evenodd" fill="#F5A12D" points="66.503,-5.523 70.885,-1.126 70.443,0.476 
				66.003,-3.867 			"/>
			<path fill-rule="evenodd" clip-rule="evenodd" fill="#F5A12D" d="M73.162-9.364l-3.937-3.856c0.52-0.617,1.323-0.812,1.323-0.812
				l3.249,3.483C73.246-10.328,73.162-9.364,73.162-9.364z"/>
		</g>
	</g>
</g>
</svg>
