<?xml version="1.0" encoding="utf-8"?>
<!-- Generator: Adobe Illustrator 16.0.3, SVG Export Plug-In . SVG Version: 6.00 Build 0)  -->
<!DOCTYPE svg PUBLIC "-//W3C//DTD SVG 1.1//EN" "http://www.w3.org/Graphics/SVG/1.1/DTD/svg11.dtd">
<svg version="1.1" id="Capa_1" xmlns="http://www.w3.org/2000/svg" xmlns:xlink="http://www.w3.org/1999/xlink" x="0px" y="0px"
	 width="50px" height="50px" viewBox="50 -25.917 50 50" enable-background="new 50 -25.917 50 50" xml:space="preserve">
<g>
	<g>
		<path fill="#005496" d="M74.737-24.917c-11.125,0-20.179,9.052-20.179,20.18c0,6.337,5.603,13.877,8.942,17.809
			c2.126,2.502,8.753,9.647,11.237,9.647c3.004,0,11.186-9.553,11.269-9.65c3.326-3.925,8.912-11.46,8.912-17.806
			C94.918-15.865,85.865-24.917,74.737-24.917z M87.498-4.886c0,6.993-5.689,12.683-12.683,12.683
			c-6.993,0-12.683-5.689-12.683-12.683c0-6.994,5.689-12.683,12.683-12.683C81.809-17.569,87.498-11.88,87.498-4.886z"/>
	</g>
	<path fill="#FEDBAB" d="M83.527-3.722l-3.059,4.43c-0.59,0.791-1.539,1.266-2.531,1.266h-9.035l-0.548-5.548l0.548-0.495
		c0.802-0.707,1.329-1.192,2.362-1.435c1.234-0.285,2.461,0.063,3.273,0.802c0.211,0.179,0.337,0.348,0.601,0.348h0.127
		c2.447,0,0.236,0,2.671,0c0.58,0,1.055,0.475,1.055,1.055s-0.475,1.055-1.055,1.055h-2.145c-0.295,0-0.527,0.232-0.527,0.527
		s0.232,0.527,0.527,0.527h2.492c0.201,0,0.58-0.127,0.781-0.338l2.848-3.543c0.358-0.391,0.959-0.454,1.393-0.138
		C83.781-4.86,83.875-4.186,83.527-3.722z"/>
	<g>
		<path fill="#FEC478" d="M75.266-1.718v-2.637c2.447,0,0.236,0,2.671,0c0.58,0,1.055,0.475,1.055,1.055s-0.475,1.055-1.055,1.055
			h-2.145C75.498-2.245,75.266-2.013,75.266-1.718z"/>
		<path fill="#FEC478" d="M83.527-3.722l-3.059,4.43c-0.59,0.791-1.539,1.266-2.531,1.266h-2.671v-3.691
			c0,0.295,0.232,0.527,0.527,0.527h2.492c0.201,0,0.58-0.127,0.781-0.338l2.848-3.543c0.358-0.391,0.959-0.454,1.393-0.138
			C83.781-4.86,83.875-4.186,83.527-3.722z"/>
	</g>
	<path fill="#17ACE8" d="M68.958,3.791l-3.164-6.328c-0.13-0.26-0.024-0.576,0.236-0.707l1.166-0.583
		c0.781-0.391,1.732-0.072,2.123,0.708l2.22,4.441c0.391,0.781,0.075,1.73-0.708,2.122l-1.166,0.583
		C69.402,4.158,69.088,4.05,68.958,3.791z"/>
	<path fill="#1689FC" d="M75.266-10.753c-1.741,0-3.2,1.459-3.2,3.199v0.563c0,0.295,0.232,0.527,0.527,0.527h5.344
		c0.295,0,0.527-0.232,0.527-0.527v-0.563C78.465-9.294,77.006-10.753,75.266-10.753z"/>
	<path fill="#136EF1" d="M78.465-7.554v0.563c0,0.295-0.232,0.527-0.527,0.527h-2.671v-4.289
		C77.006-10.753,78.465-9.294,78.465-7.554z"/>
	<path fill="#17ACE8" d="M75.266-13.917c-1.16,0-2.145,0.949-2.145,2.109s0.985,2.109,2.145,2.109c1.16,0,2.144-0.949,2.144-2.109
		S76.426-13.917,75.266-13.917z"/>
	<path fill="#1689FC" d="M77.41-11.808c0,1.16-0.984,2.109-2.144,2.109v-4.219C76.426-13.917,77.41-12.968,77.41-11.808z"/>
</g>
</svg>
