<?xml version="1.0" encoding="utf-8"?>
<!-- Generator: Adobe Illustrator 16.0.0, SVG Export Plug-In . SVG Version: 6.00 Build 0)  -->
<!DOCTYPE svg PUBLIC "-//W3C//DTD SVG 1.1//EN" "http://www.w3.org/Graphics/SVG/1.1/DTD/svg11.dtd">
<svg version="1.1" id="Capa_1" xmlns="http://www.w3.org/2000/svg" xmlns:xlink="http://www.w3.org/1999/xlink" x="0px" y="0px"
	 width="50px" height="20px" viewBox="0 0 50 20" enable-background="new 0 0 50 20" xml:space="preserve">
<path fill="#76AADB" d="M49,16c0,1.657-1.344,3-3,3H4c-1.657,0-3-1.343-3-3V4c0-1.657,1.343-3,3-3h42c1.656,0,3,1.343,3,3V16z"/>
<g>
	<path fill="#FFFFFF" d="M7.31,7.47c0.335-0.057,0.775-0.104,1.335-0.104c0.688,0,1.191,0.16,1.511,0.448
		c0.296,0.256,0.472,0.647,0.472,1.127c0,0.488-0.144,0.871-0.415,1.151c-0.368,0.392-0.968,0.592-1.647,0.592
		c-0.208,0-0.399-0.008-0.56-0.048v2.158H7.31V7.47z M8.005,10.067c0.151,0.041,0.344,0.057,0.575,0.057
		c0.84,0,1.352-0.408,1.352-1.151c0-0.712-0.504-1.056-1.271-1.056c-0.304,0-0.535,0.023-0.655,0.057L8.005,10.067L8.005,10.067z"/>
	<path fill="#FFFFFF" d="M11.501,7.118h0.704v5.676h-0.704V7.118z"/>
	<path fill="#FFFFFF" d="M15.532,12.794l-0.057-0.487h-0.023c-0.217,0.305-0.633,0.575-1.184,0.575c-0.783,0-1.184-0.551-1.184-1.11
		c0-0.937,0.832-1.447,2.326-1.439v-0.079c0-0.319-0.088-0.896-0.879-0.896c-0.359,0-0.736,0.111-1.008,0.287l-0.16-0.463
		c0.32-0.208,0.784-0.344,1.271-0.344c1.184,0,1.472,0.807,1.472,1.583v1.446c0,0.336,0.017,0.663,0.063,0.928H15.532z
		 M15.428,10.818c-0.768-0.016-1.64,0.121-1.64,0.871c0,0.457,0.305,0.672,0.664,0.672c0.504,0,0.824-0.318,0.936-0.646
		c0.023-0.07,0.04-0.15,0.04-0.224V10.818z"/>
	<path fill="#FFFFFF" d="M17.245,9.972c0-0.399-0.008-0.727-0.032-1.047h0.624l0.039,0.639h0.017
		c0.192-0.367,0.64-0.727,1.279-0.727c0.536,0,1.367,0.319,1.367,1.646v2.311h-0.704v-2.229c0-0.624-0.231-1.144-0.895-1.144
		c-0.465,0-0.824,0.327-0.943,0.719c-0.033,0.088-0.049,0.208-0.049,0.328v2.326h-0.703V9.972z"/>
	<path fill="#FFFFFF" d="M22.077,10.986c0.016,0.951,0.623,1.345,1.326,1.345c0.504,0,0.809-0.088,1.072-0.2l0.119,0.503
		c-0.248,0.113-0.672,0.24-1.287,0.24c-1.191,0-1.902-0.783-1.902-1.951c0-1.166,0.688-2.086,1.814-2.086
		c1.264,0,1.6,1.111,1.6,1.822c0,0.146-0.016,0.256-0.024,0.327H22.077z M24.14,10.483c0.008-0.447-0.184-1.143-0.976-1.143
		c-0.712,0-1.023,0.655-1.079,1.143H24.14z"/>
	<path fill="#FFFFFF" d="M27.835,12.794l-0.056-0.487h-0.024c-0.215,0.305-0.631,0.575-1.185,0.575c-0.782,0-1.182-0.551-1.182-1.11
		c0-0.937,0.831-1.447,2.327-1.439v-0.079c0-0.319-0.088-0.896-0.881-0.896c-0.359,0-0.734,0.111-1.006,0.287l-0.16-0.463
		c0.318-0.208,0.783-0.344,1.271-0.344c1.184,0,1.471,0.807,1.471,1.583v1.446c0,0.336,0.016,0.663,0.064,0.928H27.835z
		 M27.73,10.818c-0.768-0.016-1.639,0.121-1.639,0.871c0,0.457,0.303,0.672,0.664,0.672c0.502,0,0.822-0.318,0.936-0.646
		c0.023-0.07,0.039-0.15,0.039-0.224V10.818z"/>
	<path fill="#FFFFFF" d="M32.309,12.65c-0.185,0.097-0.593,0.224-1.111,0.224c-1.168,0-1.928-0.791-1.928-1.976
		c0-1.19,0.815-2.055,2.08-2.055c0.416,0,0.782,0.104,0.975,0.199l-0.16,0.545c-0.168-0.097-0.432-0.185-0.814-0.185
		c-0.889,0-1.367,0.655-1.367,1.464c0,0.895,0.574,1.447,1.343,1.447c0.399,0,0.663-0.104,0.864-0.193L32.309,12.65z"/>
	<path fill="#FFFFFF" d="M33.917,7.837c0.008,0.24-0.168,0.432-0.446,0.432c-0.248,0-0.425-0.191-0.425-0.432
		c0-0.248,0.185-0.439,0.438-0.439C33.749,7.397,33.917,7.589,33.917,7.837z M33.134,12.794V8.925h0.703v3.869H33.134z"/>
	<path fill="#FFFFFF" d="M38.507,10.827c0,1.432-0.989,2.055-1.926,2.055c-1.049,0-1.854-0.768-1.854-1.989
		c0-1.295,0.848-2.056,1.918-2.056C37.755,8.837,38.507,9.644,38.507,10.827z M35.438,10.868c0,0.847,0.487,1.485,1.176,1.485
		c0.672,0,1.176-0.631,1.176-1.502c0-0.656-0.328-1.487-1.16-1.487S35.438,10.132,35.438,10.868z M37.667,7.253l-0.976,1.145h-0.504
		l0.703-1.145H37.667z"/>
	<path fill="#FFFFFF" d="M39.396,9.972c0-0.399-0.01-0.727-0.032-1.047h0.625l0.038,0.639h0.017c0.19-0.367,0.642-0.727,1.279-0.727
		c0.534,0,1.366,0.319,1.366,1.646v2.311h-0.703v-2.229c0-0.624-0.231-1.144-0.896-1.144c-0.463,0-0.821,0.327-0.942,0.719
		c-0.031,0.088-0.047,0.208-0.047,0.328v2.326h-0.703V9.972H39.396z"/>
</g>
</svg>
