<?xml version="1.0" encoding="utf-8"?>
<!-- Generator: Adobe Illustrator 16.0.0, SVG Export Plug-In . SVG Version: 6.00 Build 0)  -->
<!DOCTYPE svg PUBLIC "-//W3C//DTD SVG 1.1//EN" "http://www.w3.org/Graphics/SVG/1.1/DTD/svg11.dtd">
<svg version="1.1" id="Capa_1" xmlns="http://www.w3.org/2000/svg" xmlns:xlink="http://www.w3.org/1999/xlink" x="0px" y="0px"
	 width="20px" height="20px" viewBox="0 0 20 20" enable-background="new 0 0 20 20" xml:space="preserve">
<g>
	<path fill="#0F60B2" d="M17.134,11.896l-6.258-6.268C10.626,5.392,10.334,5.272,10,5.272c-0.34,0-0.629,0.119-0.866,0.356
		l-6.268,6.268C2.622,12.141,2.5,12.433,2.5,12.772c0,0.347,0.122,0.636,0.366,0.866l0.722,0.723
		c0.231,0.243,0.52,0.365,0.866,0.365s0.636-0.122,0.867-0.365L10,9.691l4.679,4.67c0.231,0.243,0.521,0.365,0.867,0.365
		c0.34,0,0.632-0.122,0.876-0.365l0.722-0.723c0.237-0.237,0.356-0.526,0.356-0.866S17.378,12.141,17.134,11.896z"/>
</g>
</svg>
