<?xml version="1.0" encoding="utf-8"?>
<!-- Generator: Adobe Illustrator 16.0.0, SVG Export Plug-In . SVG Version: 6.00 Build 0)  -->
<!DOCTYPE svg PUBLIC "-//W3C//DTD SVG 1.1//EN" "http://www.w3.org/Graphics/SVG/1.1/DTD/svg11.dtd">
<svg version="1.1" id="Capa_1" xmlns="http://www.w3.org/2000/svg" xmlns:xlink="http://www.w3.org/1999/xlink" x="0px" y="0px"
	 width="24px" height="24px" viewBox="-4 -4 24 24" enable-background="new -4 -4 24 24" xml:space="preserve">
<path d="M-2.781,10.754c0.397,0,0.719,0.321,0.719,0.719v3.594c0,0.793,0.644,1.438,1.438,1.438h17.25
	c0.795,0,1.438-0.645,1.438-1.438v-3.594c0-0.397,0.321-0.719,0.719-0.719s0.719,0.321,0.719,0.719v3.594
	c0,1.586-1.287,2.875-2.875,2.875h-17.25c-1.588,0-2.875-1.289-2.875-2.875v-3.594C-3.5,11.075-3.179,10.754-2.781,10.754z"/>
<path d="M7.491,13.562c0.28,0.28,0.735,0.282,1.017,0.003c0-0.002,0-0.002,0.001-0.003l4.312-4.313c0.281-0.281,0.281-0.736,0-1.018
	c-0.28-0.281-0.735-0.281-1.016,0l-3.086,3.087v-12.64c0-0.397-0.321-0.719-0.719-0.719S7.281-1.719,7.281-1.322v12.64L4.196,8.231
	c-0.281-0.281-0.737-0.281-1.018,0c-0.281,0.281-0.281,0.736,0,1.018L7.491,13.562z"/>
</svg>
